SplineFontDB: 3.2
FontName: AcariSans-Bold
FullName: Acari Sans Bold
FamilyName: Acari Sans
Weight: Bold
Copyright: Copyright (c)2015, HK Grotesk Latin by Alfredo Marco Pradil (ammpradil@gmail.com) and HK Grotesk Cyrillic by Stefan Peev (http://www.contextbg.net/). HK Grotesk is a trademark of Alfredo Marco Pradil. Copyright (c) 2018-2023 The Acari Sans Project Authors (https://github.com/cssobral2013/acari-sans)
Version: 1.063; ttfautohint (v1.8.3)
ItalicAngle: 0
UnderlinePosition: -250
UnderlineWidth: 100
Ascent: 1600
Descent: 400
InvalidEm: 0
sfntRevision: 0x00011020
LayerCount: 2
Layer: 0 1 "Back" 1
Layer: 1 1 "Fore" 0
XUID: [1021 467 -1401554168 16348082]
StyleMap: 0x0020
FSType: 0
OS2Version: 4
OS2_WeightWidthSlopeOnly: 0
OS2_UseTypoMetrics: 1
CreationTime: 1480856841
ModificationTime: 1687307200
PfmFamily: 81
TTFWeight: 700
TTFWidth: 5
LineGap: 26
VLineGap: 0
Panose: 0 0 0 0 0 0 0 0 0 0
OS2TypoAscent: 1900
OS2TypoAOffset: 0
OS2TypoDescent: -487
OS2TypoDOffset: 0
OS2TypoLinegap: 26
OS2WinAscent: 1913
OS2WinAOffset: 0
OS2WinDescent: 500
OS2WinDOffset: 0
HheadAscent: 1900
HheadAOffset: 0
HheadDescent: -487
HheadDOffset: 0
OS2SubXSize: 1331
OS2SubYSize: 1228
OS2SubXOff: 0
OS2SubYOff: 153
OS2SupXSize: 1331
OS2SupYSize: 1228
OS2SupXOff: 0
OS2SupYOff: 716
OS2StrikeYSize: 82
OS2StrikeYPos: 599
OS2CapHeight: 1413
OS2XHeight: 1039
OS2Vendor: 'AMSP'
OS2CodePages: 20000197.00000000
OS2UnicodeRanges: 2000020f.10000001.00000000.00000000
Lookup: 1 0 0 "'locl' Localized Forms in Latin lookup 23" { "'locl' Localized Forms in Latin lookup 23-1"  } ['locl' ('latn' <'AZE ' 'CRT ' 'KAZ ' 'TAT ' 'TRK ' 'dflt' > ) ]
Lookup: 1 0 0 "'aalt' Access All Alternates lookup 0" { "'aalt' Access All Alternates lookup 0 subtable"  } ['aalt' ('DFLT' <'dflt' > 'cyrl' <'BGR ' 'MKD ' 'RUS ' 'SRB ' 'dflt' > 'latn' <'AZE ' 'CRT ' 'KAZ ' 'MOL ' 'ROM ' 'TAT ' 'TRK ' 'dflt' > ) ]

StartChar: .notdef
Encoding: 65536 -1 0
Width: 728
GlyphClass: 1
Flags: W
LayerCount: 2
Fore
SplineSet
596 0 m 1,0,-1
 66 0 l 1,1,-1
 66 1333 l 1,2,-1
 596 1333 l 1,3,-1
 596 0 l 1,0,-1
530 66 m 1,4,-1
 530 1267 l 1,5,-1
 132 1267 l 1,6,-1
 132 66 l 1,7,-1
 530 66 l 1,4,-1
EndSplineSet
EndChar

StartChar: exclam
Encoding: 33 33 4
Width: 635
GlyphClass: 1
Flags: W
LayerCount: 2
Fore
SplineSet
410 428 m 1,0,-1
 225 428 l 1,1,-1
 197 1434 l 1,2,-1
 438 1434 l 1,3,-1
 410 428 l 1,0,-1
451 0 m 1,4,-1
 184 0 l 1,5,-1
 184 264 l 1,6,-1
 451 264 l 1,7,-1
 451 0 l 1,4,-1
EndSplineSet
EndChar

StartChar: quotedbl
Encoding: 34 34 5
Width: 958
GlyphClass: 1
Flags: W
LayerCount: 2
Fore
SplineSet
408 866 m 1,0,-1
 203 866 l 1,1,-1
 203 1413 l 1,2,-1
 408 1413 l 1,3,-1
 408 866 l 1,0,-1
756 866 m 1,4,-1
 551 866 l 1,5,-1
 551 1413 l 1,6,-1
 756 1413 l 1,7,-1
 756 866 l 1,4,-1
EndSplineSet
EndChar

StartChar: numbersign
Encoding: 35 35 6
Width: 1382
GlyphClass: 1
Flags: W
LayerCount: 2
Fore
SplineSet
850 0 m 1,0,-1
 659 0 l 1,1,-1
 752 436 l 1,2,-1
 502 436 l 1,3,-1
 412 0 l 1,4,-1
 221 0 l 1,5,-1
 311 414 l 1,6,-1
 78 414 l 1,7,-1
 78 586 l 1,8,-1
 348 586 l 1,9,-1
 401 848 l 1,10,-1
 160 848 l 1,11,-1
 160 1028 l 1,12,-1
 438 1028 l 1,13,-1
 532 1434 l 1,14,-1
 725 1434 l 1,15,-1
 629 997 l 1,16,-1
 879 997 l 1,17,-1
 971 1434 l 1,18,-1
 1163 1434 l 1,19,-1
 1069 1020 l 1,20,-1
 1303 1020 l 1,21,-1
 1303 848 l 1,22,-1
 1032 848 l 1,23,-1
 979 586 l 1,24,-1
 1221 586 l 1,25,-1
 1221 406 l 1,26,-1
 942 406 l 1,27,-1
 850 0 l 1,0,-1
788 586 m 1,28,-1
 842 848 l 1,29,-1
 592 848 l 1,30,-1
 539 586 l 1,31,-1
 788 586 l 1,28,-1
EndSplineSet
EndChar

StartChar: dollar
Encoding: 36 36 7
Width: 1130
GlyphClass: 1
Flags: W
LayerCount: 2
Fore
SplineSet
666 -246 m 1,0,-1
 465 -246 l 1,1,-1
 465 -12 l 1,2,3
 309 15 309 15 193 113.5 c 128,-1,4
 77 212 77 212 45 385 c 1,5,-1
 291 438 l 1,6,7
 307 322 307 322 388.5 266.5 c 128,-1,8
 470 211 470 211 584 211 c 0,9,10
 819 211 819 211 819 403 c 0,11,12
 819 459 819 459 783 499 c 128,-1,13
 747 539 747 539 693.5 566.5 c 128,-1,14
 640 594 640 594 545 633 c 0,15,16
 416 685 416 685 335 731 c 128,-1,17
 254 777 254 777 196.5 856.5 c 128,-1,18
 139 936 139 936 139 1055 c 0,19,20
 139 1154 139 1154 183 1231 c 128,-1,21
 227 1308 227 1308 300.5 1358 c 128,-1,22
 374 1408 374 1408 465 1427 c 1,23,-1
 465 1659 l 1,24,-1
 666 1659 l 1,25,-1
 666 1432 l 1,26,27
 896 1395 896 1395 1004 1200 c 1,28,-1
 799 1079 l 1,29,30
 760 1149 760 1149 700 1181.5 c 128,-1,31
 640 1214 640 1214 571 1214 c 0,32,33
 491 1214 491 1214 441 1171 c 128,-1,34
 391 1128 391 1128 391 1065 c 0,35,36
 391 1014 391 1014 425 977.5 c 128,-1,37
 459 941 459 941 510 915.5 c 128,-1,38
 561 890 561 890 652 854 c 0,39,40
 783 801 783 801 867 753.5 c 128,-1,41
 951 706 951 706 1011 622 c 128,-1,42
 1071 538 1071 538 1071 410 c 0,43,44
 1071 289 1071 289 1016.5 198 c 128,-1,45
 962 107 962 107 871 52 c 128,-1,46
 780 -3 780 -3 666 -16 c 1,47,-1
 666 -246 l 1,0,-1
EndSplineSet
EndChar

StartChar: percent
Encoding: 37 37 8
Width: 1540
GlyphClass: 1
Flags: W
LayerCount: 2
Fore
SplineSet
473 -20 m 1,0,-1
 262 -20 l 1,1,-1
 1053 1454 l 1,2,-1
 1264 1454 l 1,3,-1
 473 -20 l 1,0,-1
360 768 m 0,4,5
 257 768 257 768 193.5 821 c 128,-1,6
 130 874 130 874 103 950.5 c 128,-1,7
 76 1027 76 1027 76 1102 c 256,8,9
 76 1177 76 1177 102.5 1253.5 c 128,-1,10
 129 1330 129 1330 191 1383 c 128,-1,11
 253 1436 253 1436 354 1436 c 0,12,13
 450 1436 450 1436 512.5 1385.5 c 128,-1,14
 575 1335 575 1335 606 1258 c 128,-1,15
 637 1181 637 1181 637 1100 c 0,16,17
 637 1042 637 1042 620.5 983 c 128,-1,18
 604 924 604 924 570.5 875.5 c 128,-1,19
 537 827 537 827 484.5 797.5 c 128,-1,20
 432 768 432 768 360 768 c 0,4,5
356 940 m 0,21,22
 403 940 403 940 430 988.5 c 128,-1,23
 457 1037 457 1037 457 1102 c 0,24,25
 457 1168 457 1168 430 1215 c 128,-1,26
 403 1262 403 1262 354 1262 c 256,27,28
 305 1262 305 1262 278.5 1215 c 128,-1,29
 252 1168 252 1168 252 1102 c 0,30,31
 252 1035 252 1035 279 987.5 c 128,-1,32
 306 940 306 940 356 940 c 0,21,22
1188 -10 m 0,33,34
 1086 -10 1086 -10 1022 44 c 128,-1,35
 958 98 958 98 930.5 175.5 c 128,-1,36
 903 253 903 253 903 328 c 0,37,38
 903 404 903 404 929.5 482 c 128,-1,39
 956 560 956 560 1018.5 614 c 128,-1,40
 1081 668 1081 668 1182 668 c 0,41,42
 1278 668 1278 668 1340.5 617 c 128,-1,43
 1403 566 1403 566 1433.5 488 c 128,-1,44
 1464 410 1464 410 1464 328 c 0,45,46
 1464 269 1464 269 1447.5 209 c 128,-1,47
 1431 149 1431 149 1397.5 99.5 c 128,-1,48
 1364 50 1364 50 1311.5 20 c 128,-1,49
 1259 -10 1259 -10 1188 -10 c 0,33,34
1186 162 m 0,50,51
 1231 162 1231 162 1257.5 212.5 c 128,-1,52
 1284 263 1284 263 1284 330 c 0,53,54
 1284 398 1284 398 1257 446 c 128,-1,55
 1230 494 1230 494 1182 494 c 0,56,57
 1133 494 1133 494 1106 445.5 c 128,-1,58
 1079 397 1079 397 1079 328 c 256,59,60
 1079 259 1079 259 1106.5 210.5 c 128,-1,61
 1134 162 1134 162 1186 162 c 0,50,51
EndSplineSet
EndChar

StartChar: ampersand
Encoding: 38 38 9
Width: 1382
GlyphClass: 1
Flags: W
LayerCount: 2
Fore
SplineSet
1155 -76 m 1,0,-1
 969 137 l 1,1,2
 885 63 885 63 777.5 20 c 128,-1,3
 670 -23 670 -23 543 -23 c 0,4,5
 420 -23 420 -23 314.5 16 c 128,-1,6
 209 55 209 55 144.5 133.5 c 128,-1,7
 80 212 80 212 80 330 c 0,8,9
 80 431 80 431 123.5 508.5 c 128,-1,10
 167 586 167 586 237 646 c 128,-1,11
 307 706 307 706 407 765 c 1,12,13
 240 932 240 932 240 1098 c 0,14,15
 240 1202 240 1202 298 1276.5 c 128,-1,16
 356 1351 356 1351 445.5 1390.5 c 128,-1,17
 535 1430 535 1430 631 1430 c 0,18,19
 735 1430 735 1430 820 1385.5 c 128,-1,20
 905 1341 905 1341 955.5 1266 c 128,-1,21
 1006 1191 1006 1191 1006 1100 c 0,22,23
 1006 982 1006 982 938.5 893.5 c 128,-1,24
 871 805 871 805 751 724 c 1,25,-1
 951 500 l 1,26,27
 985 596 985 596 985 696 c 1,28,-1
 1223 672 l 1,29,30
 1213 479 1213 479 1117 314 c 1,31,-1
 1327 78 l 1,32,-1
 1155 -76 l 1,0,-1
594 873 m 1,33,34
 686 928 686 928 733 981 c 128,-1,35
 780 1034 780 1034 780 1096 c 0,36,37
 780 1153 780 1153 742.5 1196 c 128,-1,38
 705 1239 705 1239 633 1239 c 0,39,40
 570 1239 570 1239 522.5 1202 c 128,-1,41
 475 1165 475 1165 475 1094 c 0,42,43
 475 1011 475 1011 594 873 c 1,33,34
537 184 m 0,44,45
 706 184 706 184 826 301 c 1,46,-1
 559 606 l 1,47,48
 438 533 438 533 376.5 469 c 128,-1,49
 315 405 315 405 315 326 c 0,50,51
 315 254 315 254 377.5 219 c 128,-1,52
 440 184 440 184 537 184 c 0,44,45
EndSplineSet
EndChar

StartChar: quotesingle
Encoding: 39 39 10
Width: 610
GlyphClass: 1
Flags: W
LayerCount: 2
Fore
SplineSet
408 895 m 1,0,-1
 203 895 l 1,1,-1
 203 1442 l 1,2,-1
 408 1442 l 1,3,-1
 408 895 l 1,0,-1
EndSplineSet
EndChar

StartChar: parenleft
Encoding: 40 40 11
Width: 573
GlyphClass: 1
Flags: W
LayerCount: 2
Fore
SplineSet
559 -125 m 1,0,-1
 346 -125 l 1,1,2
 229 4 229 4 164.5 241.5 c 128,-1,3
 100 479 100 479 100 707 c 0,4,5
 100 998 100 998 166 1205 c 128,-1,6
 232 1412 232 1412 342 1534 c 1,7,-1
 561 1534 l 1,8,9
 428 1373 428 1373 360.5 1168 c 128,-1,10
 293 963 293 963 293 702 c 0,11,12
 293 438 293 438 354.5 248.5 c 128,-1,13
 416 59 416 59 559 -125 c 1,0,-1
EndSplineSet
EndChar

StartChar: parenright
Encoding: 41 41 12
Width: 573
GlyphClass: 1
Flags: W
LayerCount: 2
Fore
SplineSet
227 -125 m 1,0,-1
 14 -125 l 1,1,2
 159 62 159 62 220 251.5 c 128,-1,3
 281 441 281 441 281 702 c 0,4,5
 281 961 281 961 213.5 1166 c 128,-1,6
 146 1371 146 1371 12 1534 c 1,7,-1
 231 1534 l 1,8,9
 341 1414 341 1414 407 1207.5 c 128,-1,10
 473 1001 473 1001 473 707 c 0,11,12
 473 479 473 479 408.5 241.5 c 128,-1,13
 344 4 344 4 227 -125 c 1,0,-1
EndSplineSet
EndChar

StartChar: asterisk
Encoding: 42 42 13
Width: 901
GlyphClass: 1
Flags: W
LayerCount: 2
Fore
SplineSet
561 834 m 1,0,-1
 451 1042 l 1,1,-1
 340 834 l 1,2,-1
 182 936 l 1,3,-1
 340 1096 l 1,4,-1
 113 1126 l 1,5,-1
 174 1294 l 1,6,-1
 383 1212 l 1,7,-1
 354 1413 l 1,8,-1
 549 1413 l 1,9,-1
 520 1212 l 1,10,-1
 729 1294 l 1,11,-1
 788 1126 l 1,12,-1
 561 1096 l 1,13,-1
 719 936 l 1,14,-1
 561 834 l 1,0,-1
EndSplineSet
EndChar

StartChar: plus
Encoding: 43 43 14
Width: 1253
GlyphClass: 1
Flags: W
LayerCount: 2
Fore
SplineSet
719 106 m 1,0,-1
 535 106 l 1,1,-1
 535 532 l 1,2,-1
 78 532 l 1,3,-1
 78 717 l 1,4,-1
 535 717 l 1,5,-1
 535 1143 l 1,6,-1
 719 1143 l 1,7,-1
 719 717 l 1,8,-1
 1176 717 l 1,9,-1
 1176 532 l 1,10,-1
 719 532 l 1,11,-1
 719 106 l 1,0,-1
EndSplineSet
EndChar

StartChar: comma
Encoding: 44 44 15
Width: 600
GlyphClass: 1
Flags: W
LayerCount: 2
Fore
SplineSet
263 -304 m 1,0,-1
 101 -304 l 1,1,-1
 237 264 l 1,2,-1
 518 264 l 1,3,-1
 263 -304 l 1,0,-1
EndSplineSet
EndChar

StartChar: hyphen
Encoding: 45 45 16
Width: 866
GlyphClass: 1
Flags: W
LayerCount: 2
Fore
SplineSet
725 508 m 1,0,-1
 141 508 l 1,1,-1
 141 692 l 1,2,-1
 725 692 l 1,3,-1
 725 508 l 1,0,-1
EndSplineSet
EndChar

StartChar: period
Encoding: 46 46 17
Width: 600
GlyphClass: 1
Flags: W
LayerCount: 2
Fore
SplineSet
422 0 m 1,0,-1
 177 0 l 1,1,-1
 177 264 l 1,2,-1
 422 264 l 1,3,-1
 422 0 l 1,0,-1
EndSplineSet
EndChar

StartChar: slash
Encoding: 47 47 18
Width: 934
GlyphClass: 1
Flags: W
LayerCount: 2
Fore
SplineSet
190 -430 m 1,0,-1
 -37 -430 l 1,1,-1
 743 1516 l 1,2,-1
 971 1516 l 1,3,-1
 190 -430 l 1,0,-1
EndSplineSet
EndChar

StartChar: zero
Encoding: 48 48 19
Width: 1200
GlyphClass: 1
Flags: W
LayerCount: 2
Fore
SplineSet
606 -20 m 0,0,1
 511 -20 511 -20 434.5 10.5 c 128,-1,2
 358 41 358 41 299 93.5 c 128,-1,3
 240 146 240 146 197.5 217 c 128,-1,4
 155 288 155 288 128 368.5 c 128,-1,5
 101 449 101 449 88 535.5 c 128,-1,6
 75 622 75 622 75 707 c 0,7,8
 75 785 75 785 86.5 869.5 c 128,-1,9
 98 954 98 954 123 1035 c 128,-1,10
 148 1116 148 1116 188.5 1189 c 128,-1,11
 229 1262 229 1262 286.5 1316.5 c 128,-1,12
 344 1371 344 1371 420.5 1403.5 c 128,-1,13
 497 1436 497 1436 594 1436 c 0,14,15
 685 1436 685 1436 759.5 1405.5 c 128,-1,16
 834 1375 834 1375 893 1321.5 c 128,-1,17
 952 1268 952 1268 995.5 1197 c 128,-1,18
 1039 1126 1039 1126 1067.5 1044.5 c 128,-1,19
 1096 963 1096 963 1110 876 c 128,-1,20
 1124 789 1124 789 1124 705 c 0,21,22
 1124 625 1124 625 1111.5 540.5 c 128,-1,23
 1099 456 1099 456 1072 375.5 c 128,-1,24
 1045 295 1045 295 1003.5 223 c 128,-1,25
 962 151 962 151 904.5 97 c 128,-1,26
 847 43 847 43 772.5 11.5 c 128,-1,27
 698 -20 698 -20 606 -20 c 0,0,1
601 221 m 0,28,29
 664 221 664 221 709.5 253 c 128,-1,30
 755 285 755 285 787 341 c 0,31,32
 811 382 811 382 827.5 431.5 c 128,-1,33
 844 481 844 481 853.5 532.5 c 128,-1,34
 863 584 863 584 867 633.5 c 128,-1,35
 871 683 871 683 871 725 c 0,36,37
 871 769 871 769 865 821 c 128,-1,38
 859 873 859 873 845.5 924.5 c 128,-1,39
 832 976 832 976 810.5 1024 c 128,-1,40
 789 1072 789 1072 758 1109 c 128,-1,41
 727 1146 727 1146 685.5 1168 c 128,-1,42
 644 1190 644 1190 590 1190 c 256,43,44
 536 1190 536 1190 495 1166.5 c 128,-1,45
 454 1143 454 1143 423.5 1103.5 c 128,-1,46
 393 1064 393 1064 372 1013 c 128,-1,47
 351 962 351 962 338.5 907 c 128,-1,48
 326 852 326 852 320.5 797 c 128,-1,49
 315 742 315 742 315 695 c 0,50,51
 315 624 315 624 329 543 c 128,-1,52
 343 462 343 462 376 390 c 0,53,54
 393 353 393 353 415 321.5 c 128,-1,55
 437 290 437 290 465 267.5 c 128,-1,56
 493 245 493 245 526.5 233 c 128,-1,57
 560 221 560 221 601 221 c 0,28,29
EndSplineSet
Substitution2: "'subs' Subscript lookup 22 subtable" uni2080
Substitution2: "'sinf' Scientific Inferiors lookup 21 subtable" uni2080
Substitution2: "'sups' Superscript lookup 19 subtable" uni2070
Substitution2: "'aalt' Access All Alternates lookup 0 subtable" uni2070
EndChar

StartChar: one
Encoding: 49 49 20
Width: 1200
GlyphClass: 1
Flags: W
LayerCount: 2
Fore
SplineSet
811 0 m 1,0,-1
 561 0 l 1,1,-1
 561 1030 l 1,2,-1
 187 1030 l 1,3,-1
 187 1223 l 1,4,-1
 420 1223 l 2,5,6
 489 1223 489 1223 530 1260.5 c 128,-1,7
 571 1298 571 1298 571 1374 c 2,8,-1
 571 1413 l 1,9,-1
 811 1413 l 1,10,-1
 811 0 l 1,0,-1
EndSplineSet
Substitution2: "'subs' Subscript lookup 22 subtable" uni2081
Substitution2: "'sinf' Scientific Inferiors lookup 21 subtable" uni2081
Substitution2: "'sups' Superscript lookup 19 subtable" onesuperior
Substitution2: "'aalt' Access All Alternates lookup 0 subtable" onesuperior
EndChar

StartChar: two
Encoding: 50 50 21
Width: 1200
GlyphClass: 1
Flags: W
LayerCount: 2
Fore
SplineSet
1123 0 m 1,0,-1
 52 0 l 1,1,-1
 52 201 l 1,2,-1
 135 252 l 2,3,4
 223 306 223 306 347.5 401.5 c 128,-1,5
 472 497 472 497 574 596 c 0,6,7
 682 701 682 701 741 800 c 128,-1,8
 800 899 800 899 800 999 c 0,9,10
 800 1057 800 1057 779 1103.5 c 128,-1,11
 758 1150 758 1150 714 1177 c 128,-1,12
 670 1204 670 1204 601 1204 c 0,13,14
 475 1204 475 1204 417.5 1115.5 c 128,-1,15
 360 1027 360 1027 355 899 c 1,16,-1
 107 915 l 1,17,18
 107 1043 107 1043 164 1162 c 128,-1,19
 221 1281 221 1281 338 1360 c 0,20,21
 450 1432 450 1432 599 1432 c 0,22,23
 735 1432 735 1432 837.5 1375.5 c 128,-1,24
 940 1319 940 1319 997 1224 c 128,-1,25
 1054 1129 1054 1129 1054 1014 c 0,26,27
 1054 746 1054 746 730 434 c 0,28,29
 584 298 584 298 470 229 c 1,30,-1
 1123 229 l 1,31,-1
 1123 0 l 1,0,-1
EndSplineSet
Substitution2: "'subs' Subscript lookup 22 subtable" uni2082
Substitution2: "'sinf' Scientific Inferiors lookup 21 subtable" uni2082
Substitution2: "'sups' Superscript lookup 19 subtable" twosuperior
Substitution2: "'aalt' Access All Alternates lookup 0 subtable" twosuperior
EndChar

StartChar: three
Encoding: 51 51 22
Width: 1200
GlyphClass: 1
Flags: W
LayerCount: 2
Fore
SplineSet
584 -20 m 0,0,1
 445 -20 445 -20 324.5 30 c 128,-1,2
 204 80 204 80 128 190 c 0,3,4
 57 295 57 295 57 446 c 1,5,-1
 299 461 l 1,6,7
 299 382 299 382 336.5 326.5 c 128,-1,8
 374 271 374 271 439 242 c 128,-1,9
 504 213 504 213 586 213 c 0,10,11
 659 213 659 213 722.5 237 c 128,-1,12
 786 261 786 261 825 310.5 c 128,-1,13
 864 360 864 360 864 436 c 0,14,15
 864 532 864 532 799.5 587.5 c 128,-1,16
 735 643 735 643 620 643 c 2,17,-1
 457 643 l 1,18,-1
 457 856 l 1,19,-1
 620 856 l 2,20,21
 707 856 707 856 746.5 902.5 c 128,-1,22
 786 949 786 949 786 1018 c 0,23,24
 786 1079 786 1079 759 1119 c 128,-1,25
 732 1159 732 1159 686 1178.5 c 128,-1,26
 640 1198 640 1198 582 1198 c 0,27,28
 488 1198 488 1198 428 1146 c 128,-1,29
 368 1094 368 1094 364 997 c 1,30,-1
 125 1014 l 1,31,32
 125 1148 125 1148 187.5 1242 c 128,-1,33
 250 1336 250 1336 353 1385 c 128,-1,34
 456 1434 456 1434 577 1434 c 0,35,36
 692 1434 692 1434 795.5 1389 c 128,-1,37
 899 1344 899 1344 964.5 1257.5 c 128,-1,38
 1030 1171 1030 1171 1030 1049 c 0,39,40
 1030 963 1030 963 997 891 c 128,-1,41
 964 819 964 819 907 768 c 1,42,43
 1009 710 1009 710 1056.5 620.5 c 128,-1,44
 1104 531 1104 531 1106 422 c 0,45,46
 1106 312 1106 312 1064 229 c 128,-1,47
 1022 146 1022 146 949.5 90.5 c 128,-1,48
 877 35 877 35 782.5 7.5 c 128,-1,49
 688 -20 688 -20 584 -20 c 0,0,1
EndSplineSet
Substitution2: "'subs' Subscript lookup 22 subtable" uni2083
Substitution2: "'sinf' Scientific Inferiors lookup 21 subtable" uni2083
Substitution2: "'sups' Superscript lookup 19 subtable" threesuperior
Substitution2: "'aalt' Access All Alternates lookup 0 subtable" threesuperior
EndChar

StartChar: four
Encoding: 52 52 23
Width: 1200
GlyphClass: 1
Flags: W
LayerCount: 2
Fore
SplineSet
917 0 m 1,0,-1
 667 0 l 1,1,-1
 667 331 l 1,2,-1
 39 331 l 1,3,-1
 39 477 l 1,4,-1
 702 1413 l 1,5,-1
 917 1413 l 1,6,-1
 917 564 l 1,7,-1
 1134 564 l 1,8,-1
 1134 331 l 1,9,-1
 917 331 l 1,10,-1
 917 0 l 1,0,-1
667 564 m 1,11,-1
 667 1006 l 1,12,-1
 362 564 l 1,13,-1
 667 564 l 1,11,-1
EndSplineSet
Substitution2: "'subs' Subscript lookup 22 subtable" uni2084
Substitution2: "'sinf' Scientific Inferiors lookup 21 subtable" uni2084
Substitution2: "'sups' Superscript lookup 19 subtable" uni2074
Substitution2: "'aalt' Access All Alternates lookup 0 subtable" uni2074
EndChar

StartChar: five
Encoding: 53 53 24
Width: 1200
GlyphClass: 1
Flags: W
LayerCount: 2
Fore
SplineSet
592 -20 m 0,0,1
 460 -20 460 -20 354 39.5 c 128,-1,2
 248 99 248 99 178 196 c 128,-1,3
 108 293 108 293 82 410 c 1,4,-1
 317 475 l 1,5,6
 341 362 341 362 407.5 285.5 c 128,-1,7
 474 209 474 209 592 209 c 0,8,9
 671 209 671 209 729 249.5 c 128,-1,10
 787 290 787 290 819.5 353 c 128,-1,11
 852 416 852 416 852 483 c 0,12,13
 852 553 852 553 821.5 612 c 128,-1,14
 791 671 791 671 733 707 c 128,-1,15
 675 743 675 743 592 743 c 0,16,17
 525 743 525 743 459 709 c 128,-1,18
 393 675 393 675 352 612 c 1,19,-1
 123 670 l 1,20,-1
 260 1413 l 1,21,-1
 1047 1413 l 1,22,-1
 1047 1180 l 1,23,-1
 461 1180 l 1,24,-1
 410 915 l 1,25,26
 515 971 515 971 629 971 c 0,27,28
 765 971 765 971 873.5 903 c 128,-1,29
 982 835 982 835 1046 724 c 128,-1,30
 1110 613 1110 613 1110 481 c 0,31,32
 1110 343 1110 343 1038 229.5 c 128,-1,33
 966 116 966 116 848.5 48 c 128,-1,34
 731 -20 731 -20 592 -20 c 0,0,1
EndSplineSet
Substitution2: "'subs' Subscript lookup 22 subtable" uni2085
Substitution2: "'sinf' Scientific Inferiors lookup 21 subtable" uni2085
Substitution2: "'sups' Superscript lookup 19 subtable" uni2075
Substitution2: "'aalt' Access All Alternates lookup 0 subtable" uni2075
EndChar

StartChar: six
Encoding: 54 54 25
Width: 1200
GlyphClass: 1
Flags: W
LayerCount: 2
Fore
SplineSet
601 -20 m 0,0,1
 454 -20 454 -20 338.5 47 c 128,-1,2
 223 114 223 114 155 224 c 128,-1,3
 87 334 87 334 87 467 c 0,4,5
 87 605 87 605 163 717 c 1,6,-1
 587 1413 l 1,7,-1
 878 1413 l 1,8,-1
 573 948 l 1,9,-1
 603 948 l 2,10,11
 745 948 745 948 861 887 c 128,-1,12
 977 826 977 826 1047 717.5 c 128,-1,13
 1117 609 1117 609 1117 475 c 0,14,15
 1117 344 1117 344 1050 231 c 128,-1,16
 983 118 983 118 866.5 49 c 128,-1,17
 750 -20 750 -20 601 -20 c 0,0,1
603 217 m 0,18,19
 681 217 681 217 741.5 253.5 c 128,-1,20
 802 290 802 290 836 348.5 c 128,-1,21
 870 407 870 407 870 473 c 0,22,23
 870 548 870 548 832 605.5 c 128,-1,24
 794 663 794 663 733 696 c 128,-1,25
 672 729 672 729 603 729 c 0,26,27
 524 729 524 729 463.5 692.5 c 128,-1,28
 403 656 403 656 369 597.5 c 128,-1,29
 335 539 335 539 335 473 c 0,30,31
 335 398 335 398 373.5 340 c 128,-1,32
 412 282 412 282 473 249.5 c 128,-1,33
 534 217 534 217 603 217 c 0,18,19
EndSplineSet
Substitution2: "'subs' Subscript lookup 22 subtable" uni2086
Substitution2: "'sinf' Scientific Inferiors lookup 21 subtable" uni2086
Substitution2: "'sups' Superscript lookup 19 subtable" uni2076
Substitution2: "'aalt' Access All Alternates lookup 0 subtable" uni2076
EndChar

StartChar: seven
Encoding: 55 55 26
Width: 1200
GlyphClass: 1
Flags: W
LayerCount: 2
Fore
SplineSet
490 0 m 1,0,-1
 210 0 l 1,1,-1
 810 1182 l 1,2,-1
 97 1182 l 1,3,-1
 97 1413 l 1,4,-1
 1117 1413 l 1,5,-1
 1117 1284 l 1,6,-1
 490 0 l 1,0,-1
EndSplineSet
Substitution2: "'subs' Subscript lookup 22 subtable" uni2087
Substitution2: "'sinf' Scientific Inferiors lookup 21 subtable" uni2087
Substitution2: "'sups' Superscript lookup 19 subtable" uni2077
Substitution2: "'aalt' Access All Alternates lookup 0 subtable" uni2077
EndChar

StartChar: eight
Encoding: 56 56 27
Width: 1200
GlyphClass: 1
Flags: W
LayerCount: 2
Fore
SplineSet
600 -20 m 0,0,1
 467 -20 467 -20 347.5 26.5 c 128,-1,2
 228 73 228 73 150 173 c 0,3,4
 78 269 78 269 78 406 c 0,5,6
 78 528 78 528 134 618.5 c 128,-1,7
 190 709 190 709 283 764 c 1,8,9
 215 821 215 821 182 894 c 128,-1,10
 149 967 149 967 149 1049 c 0,11,12
 149 1172 149 1172 213 1258 c 128,-1,13
 277 1344 277 1344 380.5 1389 c 128,-1,14
 484 1434 484 1434 600 1434 c 0,15,16
 713 1434 713 1434 816.5 1389.5 c 128,-1,17
 920 1345 920 1345 988 1254 c 0,18,19
 1051 1167 1051 1167 1051 1051 c 0,20,21
 1051 961 1051 961 1014.5 888.5 c 128,-1,22
 978 816 978 816 917 764 c 1,23,24
 1020 704 1020 704 1071 612 c 128,-1,25
 1122 520 1122 520 1122 408 c 0,26,27
 1122 301 1122 301 1079.5 220.5 c 128,-1,28
 1037 140 1037 140 963.5 86.5 c 128,-1,29
 890 33 890 33 796.5 6.5 c 128,-1,30
 703 -20 703 -20 600 -20 c 0,0,1
604 858 m 0,31,32
 691 858 691 858 750 904.5 c 128,-1,33
 809 951 809 951 809 1040 c 0,34,35
 809 1130 809 1130 749.5 1176.5 c 128,-1,36
 690 1223 690 1223 604 1223 c 0,37,38
 548 1223 548 1223 501 1203 c 128,-1,39
 454 1183 454 1183 426.5 1143.5 c 128,-1,40
 399 1104 399 1104 399 1044 c 0,41,42
 399 960 399 960 454.5 909 c 128,-1,43
 510 858 510 858 604 858 c 0,31,32
598 197 m 0,44,45
 671 197 671 197 733 220.5 c 128,-1,46
 795 244 795 244 832.5 293 c 128,-1,47
 870 342 870 342 870 418 c 0,48,49
 870 490 870 490 834.5 540.5 c 128,-1,50
 799 591 799 591 737.5 617 c 128,-1,51
 676 643 676 643 598 643 c 0,52,53
 521 643 521 643 459.5 618 c 128,-1,54
 398 593 398 593 362 543.5 c 128,-1,55
 326 494 326 494 326 420 c 0,56,57
 326 345 326 345 363 295.5 c 128,-1,58
 400 246 400 246 461.5 221.5 c 128,-1,59
 523 197 523 197 598 197 c 0,44,45
EndSplineSet
Substitution2: "'subs' Subscript lookup 22 subtable" uni2088
Substitution2: "'sinf' Scientific Inferiors lookup 21 subtable" uni2088
Substitution2: "'sups' Superscript lookup 19 subtable" uni2078
Substitution2: "'aalt' Access All Alternates lookup 0 subtable" uni2078
EndChar

StartChar: nine
Encoding: 57 57 28
Width: 1200
GlyphClass: 1
Flags: W
LayerCount: 2
Fore
SplineSet
613 0 m 1,0,-1
 322 0 l 1,1,-1
 627 465 l 1,2,-1
 596 465 l 2,3,4
 454 465 454 465 337.5 526.5 c 128,-1,5
 221 588 221 588 151.5 696 c 128,-1,6
 82 804 82 804 82 938 c 0,7,8
 82 1067 82 1067 147.5 1180.5 c 128,-1,9
 213 1294 213 1294 335 1366 c 0,10,11
 453 1434 453 1434 598 1434 c 0,12,13
 745 1434 745 1434 860.5 1367 c 128,-1,14
 976 1300 976 1300 1044 1189.5 c 128,-1,15
 1112 1079 1112 1079 1112 946 c 0,16,17
 1112 805 1112 805 1036 696 c 1,18,-1
 613 0 l 1,0,-1
596 684 m 0,19,20
 675 684 675 684 735.5 720.5 c 128,-1,21
 796 757 796 757 830 815 c 128,-1,22
 864 873 864 873 864 940 c 0,23,24
 864 1014 864 1014 826.5 1072 c 128,-1,25
 789 1130 789 1130 727.5 1163 c 128,-1,26
 666 1196 666 1196 596 1196 c 0,27,28
 518 1196 518 1196 458 1159.5 c 128,-1,29
 398 1123 398 1123 364 1064.5 c 128,-1,30
 330 1006 330 1006 330 940 c 0,31,32
 330 865 330 865 368 807 c 128,-1,33
 406 749 406 749 467 716.5 c 128,-1,34
 528 684 528 684 596 684 c 0,19,20
EndSplineSet
Substitution2: "'subs' Subscript lookup 22 subtable" uni2089
Substitution2: "'sinf' Scientific Inferiors lookup 21 subtable" uni2089
Substitution2: "'sups' Superscript lookup 19 subtable" uni2079
Substitution2: "'aalt' Access All Alternates lookup 0 subtable" uni2079
EndChar

StartChar: colon
Encoding: 58 58 29
Width: 600
GlyphClass: 1
Flags: W
LayerCount: 2
Fore
SplineSet
433 690 m 1,0,-1
 167 690 l 1,1,-1
 167 954 l 1,2,-1
 433 954 l 1,3,-1
 433 690 l 1,0,-1
433 0 m 1,4,-1
 167 0 l 1,5,-1
 167 264 l 1,6,-1
 433 264 l 1,7,-1
 433 0 l 1,4,-1
EndSplineSet
EndChar

StartChar: semicolon
Encoding: 59 59 30
Width: 600
GlyphClass: 1
Flags: W
LayerCount: 2
Fore
SplineSet
440 690 m 1,0,-1
 174 690 l 1,1,-1
 174 954 l 1,2,-1
 440 954 l 1,3,-1
 440 690 l 1,0,-1
239 -304 m 1,4,-1
 77 -304 l 1,5,-1
 213 264 l 1,6,-1
 494 264 l 1,7,-1
 239 -304 l 1,4,-1
EndSplineSet
EndChar

StartChar: less
Encoding: 60 60 31
Width: 1237
GlyphClass: 1
Flags: W
LayerCount: 2
Fore
SplineSet
1030 152 m 1,0,-1
 45 674 l 1,1,-1
 1030 1196 l 1,2,-1
 1133 1018 l 1,3,-1
 440 674 l 1,4,-1
 1133 330 l 1,5,-1
 1030 152 l 1,0,-1
EndSplineSet
EndChar

StartChar: equal
Encoding: 61 61 32
Width: 1268
GlyphClass: 1
Flags: W
LayerCount: 2
Fore
SplineSet
1049 752 m 1,0,-1
 219 752 l 1,1,-1
 219 958 l 1,2,-1
 1049 958 l 1,3,-1
 1049 752 l 1,0,-1
1049 385 m 1,4,-1
 219 385 l 1,5,-1
 219 592 l 1,6,-1
 1049 592 l 1,7,-1
 1049 385 l 1,4,-1
EndSplineSet
EndChar

StartChar: greater
Encoding: 62 62 33
Width: 1237
GlyphClass: 1
Flags: W
LayerCount: 2
Fore
SplineSet
207 152 m 1,0,-1
 104 330 l 1,1,-1
 797 674 l 1,2,-1
 104 1018 l 1,3,-1
 207 1196 l 1,4,-1
 1192 674 l 1,5,-1
 207 152 l 1,0,-1
EndSplineSet
EndChar

StartChar: question
Encoding: 63 63 34
Width: 997
GlyphClass: 1
Flags: W
LayerCount: 2
Fore
SplineSet
594 424 m 1,0,-1
 387 424 l 1,1,-1
 387 569 l 2,2,3
 387 652 387 652 412.5 705.5 c 128,-1,4
 438 759 438 759 476 788 c 128,-1,5
 514 817 514 817 575 850 c 0,6,7
 624 876 624 876 653.5 898.5 c 128,-1,8
 683 921 683 921 702 954 c 128,-1,9
 721 987 721 987 721 1038 c 0,10,11
 721 1140 721 1140 656.5 1185.5 c 128,-1,12
 592 1231 592 1231 489 1231 c 0,13,14
 260 1231 260 1231 260 991 c 1,15,-1
 45 991 l 1,16,17
 45 1133 45 1133 100 1232 c 128,-1,18
 155 1331 155 1331 253.5 1382.5 c 128,-1,19
 352 1434 352 1434 481 1434 c 0,20,21
 599 1434 599 1434 702.5 1389.5 c 128,-1,22
 806 1345 806 1345 870 1256 c 128,-1,23
 934 1167 934 1167 934 1034 c 0,24,25
 934 854 934 854 822 759 c 0,26,27
 776 720 776 720 705 682 c 0,28,29
 646 650 646 650 620 625.5 c 128,-1,30
 594 601 594 601 594 567 c 2,31,-1
 594 424 l 1,0,-1
627 0 m 1,32,-1
 360 0 l 1,33,-1
 360 264 l 1,34,-1
 627 264 l 1,35,-1
 627 0 l 1,32,-1
EndSplineSet
EndChar

StartChar: at
Encoding: 64 64 35
Width: 2015
GlyphClass: 1
Flags: W
LayerCount: 2
Fore
SplineSet
999 -348 m 0,0,1
 762 -348 762 -348 556 -245.5 c 128,-1,2
 350 -143 350 -143 221 63 c 0,3,4
 100 260 100 260 100 520 c 0,5,6
 100 765 100 765 211 973.5 c 128,-1,7
 322 1182 322 1182 539 1311 c 0,8,9
 748 1432 748 1432 1016 1432 c 0,10,11
 1287 1432 1287 1432 1492 1311 c 0,12,13
 1707 1180 1707 1180 1813 976 c 128,-1,14
 1919 772 1919 772 1919 545 c 0,15,16
 1919 391 1919 391 1868.5 249 c 128,-1,17
 1818 107 1818 107 1709 12 c 0,18,19
 1604 -76 1604 -76 1454 -76 c 0,20,21
 1322 -76 1322 -76 1253 -11.5 c 128,-1,22
 1184 53 1184 53 1174 160 c 1,23,24
 1109 101 1109 101 1032.5 72 c 128,-1,25
 956 43 956 43 881 43 c 0,26,27
 768 43 768 43 693.5 98.5 c 128,-1,28
 619 154 619 154 582 245.5 c 128,-1,29
 545 337 545 337 545 444 c 0,30,31
 545 578 545 578 601.5 721 c 128,-1,32
 658 864 658 864 774 967 c 0,33,34
 884 1061 884 1061 1030 1061 c 0,35,36
 1124 1061 1124 1061 1189.5 1023.5 c 128,-1,37
 1255 986 1255 986 1290 926 c 1,38,-1
 1309 1012 l 1,39,-1
 1505 1012 l 1,40,41
 1483 902 1483 902 1445 744 c 0,42,43
 1404 574 1404 574 1378 444 c 0,44,45
 1354 323 1354 323 1354 236 c 0,46,47
 1354 171 1354 171 1374.5 147 c 128,-1,48
 1395 123 1395 123 1448 123 c 0,49,50
 1545 123 1545 123 1608 186 c 0,51,52
 1673 253 1673 253 1701 350 c 128,-1,53
 1729 447 1729 447 1729 549 c 0,54,55
 1729 726 1729 726 1646.5 886 c 128,-1,56
 1564 1046 1564 1046 1395 1149 c 0,57,58
 1233 1245 1233 1245 1018 1245 c 0,59,60
 847 1245 847 1245 712.5 1187.5 c 128,-1,61
 578 1130 578 1130 484 1030.5 c 128,-1,62
 390 931 390 931 340.5 800.5 c 128,-1,63
 291 670 291 670 291 524 c 0,64,65
 291 362 291 362 347.5 236.5 c 128,-1,66
 404 111 404 111 502.5 24.5 c 128,-1,67
 601 -62 601 -62 729.5 -107 c 128,-1,68
 858 -152 858 -152 1001 -152 c 0,69,70
 1128 -152 1128 -152 1243 -113 c 1,71,-1
 1311 -295 l 1,72,73
 1171 -348 1171 -348 999 -348 c 0,0,1
897 238 m 0,74,75
 976 238 976 238 1037 277.5 c 128,-1,76
 1098 317 1098 317 1140 381.5 c 128,-1,77
 1182 446 1182 446 1203.5 522 c 128,-1,78
 1225 598 1225 598 1225 672 c 0,79,80
 1225 866 1225 866 1059 866 c 0,81,82
 979 866 979 866 917.5 826.5 c 128,-1,83
 856 787 856 787 814 723.5 c 128,-1,84
 772 660 772 660 750.5 584.5 c 128,-1,85
 729 509 729 509 729 436 c 0,86,87
 729 238 729 238 897 238 c 0,74,75
EndSplineSet
EndChar

StartChar: A
Encoding: 65 65 36
Width: 1343
GlyphClass: 1
Flags: W
LayerCount: 2
Fore
SplineSet
1331 0 m 1,0,-1
 1057 0 l 1,1,-1
 948 307 l 1,2,-1
 399 307 l 1,3,-1
 289 0 l 1,4,-1
 12 0 l 1,5,-1
 578 1413 l 1,6,-1
 768 1413 l 1,7,-1
 1331 0 l 1,0,-1
862 524 m 1,8,-1
 674 1040 l 1,9,-1
 485 524 l 1,10,-1
 862 524 l 1,8,-1
EndSplineSet
Substitution2: "Single Substitution lookup 3 subtable" ordfeminine
Substitution2: "Single Substitution lookup 2 subtable" ordfeminine
Position2: "'cpsp' Capital Spacing lookup 0 subtable" dx=5 dy=0 dh=10 dv=0
EndChar

StartChar: B
Encoding: 66 66 37
Width: 1274
GlyphClass: 1
Flags: W
LayerCount: 2
Fore
SplineSet
733 0 m 2,0,-1
 182 0 l 1,1,-1
 182 1413 l 1,2,-1
 672 1413 l 2,3,4
 757 1413 757 1413 838 1392.5 c 128,-1,5
 919 1372 919 1372 983.5 1326.5 c 128,-1,6
 1048 1281 1048 1281 1086 1208.5 c 128,-1,7
 1124 1136 1124 1136 1124 1032 c 0,8,9
 1124 937 1124 937 1077.5 864 c 128,-1,10
 1031 791 1031 791 967 756 c 1,11,12
 1069 712 1069 712 1131.5 612 c 128,-1,13
 1194 512 1194 512 1194 410 c 0,14,15
 1194 277 1194 277 1128.5 185.5 c 128,-1,16
 1063 94 1063 94 957.5 47 c 128,-1,17
 852 0 852 0 733 0 c 2,0,-1
696 844 m 2,18,19
 891 844 891 844 891 1018 c 0,20,21
 891 1074 891 1074 862.5 1110.5 c 128,-1,22
 834 1147 834 1147 785.5 1165.5 c 128,-1,23
 737 1184 737 1184 676 1184 c 2,24,-1
 436 1184 l 1,25,-1
 436 844 l 1,26,-1
 696 844 l 2,18,19
737 242 m 2,27,28
 832 242 832 242 888 288.5 c 128,-1,29
 944 335 944 335 944 438 c 0,30,31
 944 515 944 515 885 570 c 128,-1,32
 826 625 826 625 727 625 c 2,33,-1
 436 625 l 1,34,-1
 436 242 l 1,35,-1
 737 242 l 2,27,28
EndSplineSet
Position2: "'cpsp' Capital Spacing lookup 0 subtable" dx=5 dy=0 dh=10 dv=0
EndChar

StartChar: C
Encoding: 67 67 38
Width: 1432
GlyphClass: 1
Flags: W
LayerCount: 2
Fore
SplineSet
766 -20 m 0,0,1
 542 -20 542 -20 388 78 c 0,2,3
 281 147 281 147 213 245.5 c 128,-1,4
 145 344 145 344 113.5 462 c 128,-1,5
 82 580 82 580 82 707 c 256,6,7
 82 834 82 834 113.5 952 c 128,-1,8
 145 1070 145 1070 212.5 1168.5 c 128,-1,9
 280 1267 280 1267 387 1337 c 0,10,11
 541 1436 541 1436 764 1436 c 0,12,13
 965 1436 965 1436 1127.5 1336 c 128,-1,14
 1290 1236 1290 1236 1382 1030 c 1,15,-1
 1145 936 l 1,16,17
 1069 1194 1069 1194 762 1194 c 0,18,19
 616 1194 616 1194 521 1131 c 128,-1,20
 426 1068 426 1068 380 960 c 128,-1,21
 334 852 334 852 334 717 c 0,22,23
 334 576 334 576 379 463.5 c 128,-1,24
 424 351 424 351 519.5 286 c 128,-1,25
 615 221 615 221 766 221 c 0,26,27
 911 221 911 221 1003.5 285.5 c 128,-1,28
 1096 350 1096 350 1149 483 c 1,29,-1
 1384 387 l 1,30,31
 1295 181 1295 181 1131.5 80.5 c 128,-1,32
 968 -20 968 -20 766 -20 c 0,0,1
EndSplineSet
Position2: "'cpsp' Capital Spacing lookup 0 subtable" dx=5 dy=0 dh=10 dv=0
EndChar

StartChar: D
Encoding: 68 68 39
Width: 1409
GlyphClass: 1
Flags: W
LayerCount: 2
Fore
SplineSet
590 0 m 2,0,-1
 182 0 l 1,1,-1
 182 1413 l 1,2,-1
 592 1413 l 2,3,4
 840 1413 840 1413 1002 1327 c 128,-1,5
 1164 1241 1164 1241 1244 1086 c 0,6,7
 1327 926 1327 926 1327 696 c 0,8,9
 1327 360 1327 360 1134 180 c 128,-1,10
 941 0 941 0 590 0 c 2,0,-1
565 233 m 2,11,12
 812 233 812 233 942.5 343 c 128,-1,13
 1073 453 1073 453 1073 707 c 0,14,15
 1073 884 1073 884 1021.5 985.5 c 128,-1,16
 970 1087 970 1087 869 1132 c 0,17,18
 763 1180 763 1180 588 1180 c 2,19,-1
 436 1180 l 1,20,-1
 436 233 l 1,21,-1
 565 233 l 2,11,12
EndSplineSet
Position2: "'cpsp' Capital Spacing lookup 0 subtable" dx=5 dy=0 dh=10 dv=0
EndChar

StartChar: E
Encoding: 69 69 40
Width: 1245
GlyphClass: 1
Flags: W
LayerCount: 2
Fore
SplineSet
1122 0 m 1,0,-1
 182 0 l 1,1,-1
 182 1413 l 1,2,-1
 1122 1413 l 1,3,-1
 1122 1180 l 1,4,-1
 436 1180 l 1,5,-1
 436 823 l 1,6,-1
 1075 823 l 1,7,-1
 1075 590 l 1,8,-1
 436 590 l 1,9,-1
 436 240 l 1,10,-1
 1122 240 l 1,11,-1
 1122 0 l 1,0,-1
EndSplineSet
Position2: "'cpsp' Capital Spacing lookup 0 subtable" dx=5 dy=0 dh=10 dv=0
EndChar

StartChar: F
Encoding: 70 70 41
Width: 1235
GlyphClass: 1
Flags: W
LayerCount: 2
Fore
SplineSet
436 0 m 1,0,-1
 182 0 l 1,1,-1
 182 1413 l 1,2,-1
 1184 1413 l 1,3,-1
 1184 1180 l 1,4,-1
 436 1180 l 1,5,-1
 436 823 l 1,6,-1
 1096 823 l 1,7,-1
 1096 590 l 1,8,-1
 436 590 l 1,9,-1
 436 0 l 1,0,-1
EndSplineSet
Position2: "'cpsp' Capital Spacing lookup 0 subtable" dx=5 dy=0 dh=10 dv=0
EndChar

StartChar: G
Encoding: 71 71 42
Width: 1534
GlyphClass: 1
Flags: W
LayerCount: 2
Fore
SplineSet
766 -20 m 0,0,1
 542 -20 542 -20 388 78 c 0,2,3
 281 147 281 147 213 245.5 c 128,-1,4
 145 344 145 344 113.5 462 c 128,-1,5
 82 580 82 580 82 707 c 0,6,7
 82 835 82 835 113.5 953 c 128,-1,8
 145 1071 145 1071 212 1169 c 128,-1,9
 279 1267 279 1267 387 1337 c 0,10,11
 540 1436 540 1436 764 1436 c 0,12,13
 964 1436 964 1436 1126 1336 c 128,-1,14
 1288 1236 1288 1236 1380 1030 c 1,15,-1
 1155 936 l 1,16,17
 1104 1082 1104 1082 999.5 1148 c 128,-1,18
 895 1214 895 1214 762 1214 c 0,19,20
 615 1214 615 1214 520.5 1146 c 128,-1,21
 426 1078 426 1078 380 965 c 128,-1,22
 334 852 334 852 334 717 c 0,23,24
 334 576 334 576 378.5 460.5 c 128,-1,25
 423 345 423 345 518.5 276 c 128,-1,26
 614 207 614 207 766 207 c 0,27,28
 924 207 924 207 1031 304 c 128,-1,29
 1138 401 1138 401 1161 559 c 1,30,-1
 840 559 l 1,31,-1
 840 764 l 1,32,-1
 1407 764 l 1,33,-1
 1407 0 l 1,34,-1
 1206 0 l 1,35,-1
 1184 199 l 1,36,37
 1127 100 1127 100 1019 40 c 128,-1,38
 911 -20 911 -20 766 -20 c 0,0,1
EndSplineSet
Position2: "'cpsp' Capital Spacing lookup 0 subtable" dx=5 dy=0 dh=10 dv=0
EndChar

StartChar: H
Encoding: 72 72 43
Width: 1491
GlyphClass: 1
Flags: W
LayerCount: 2
Fore
SplineSet
1309 0 m 1,0,-1
 1055 0 l 1,1,-1
 1055 590 l 1,2,-1
 436 590 l 1,3,-1
 436 0 l 1,4,-1
 182 0 l 1,5,-1
 182 1413 l 1,6,-1
 436 1413 l 1,7,-1
 436 823 l 1,8,-1
 1055 823 l 1,9,-1
 1055 1413 l 1,10,-1
 1309 1413 l 1,11,-1
 1309 0 l 1,0,-1
EndSplineSet
Position2: "'cpsp' Capital Spacing lookup 0 subtable" dx=5 dy=0 dh=10 dv=0
EndChar

StartChar: I
Encoding: 73 73 44
Width: 618
GlyphClass: 1
Flags: W
LayerCount: 2
Fore
SplineSet
436 0 m 1,0,-1
 182 0 l 1,1,-1
 182 1413 l 1,2,-1
 436 1413 l 1,3,-1
 436 0 l 1,0,-1
EndSplineSet
Position2: "'cpsp' Capital Spacing lookup 0 subtable" dx=5 dy=0 dh=10 dv=0
EndChar

StartChar: J
Encoding: 74 74 45
Width: 1139
GlyphClass: 1
Flags: W
LayerCount: 2
Fore
SplineSet
508 -20 m 0,0,1
 363 -20 363 -20 259.5 43 c 128,-1,2
 156 106 156 106 98 210 c 128,-1,3
 40 314 40 314 31 440 c 1,4,-1
 281 469 l 1,5,6
 289 356 289 356 345 285.5 c 128,-1,7
 401 215 401 215 508 215 c 0,8,9
 635 215 635 215 683 284.5 c 128,-1,10
 731 354 731 354 731 506 c 2,11,-1
 731 1413 l 1,12,-1
 985 1413 l 1,13,-1
 985 510 l 2,14,15
 985 268 985 268 869.5 124 c 128,-1,16
 754 -20 754 -20 508 -20 c 0,0,1
EndSplineSet
Position2: "'cpsp' Capital Spacing lookup 0 subtable" dx=5 dy=0 dh=10 dv=0
EndChar

StartChar: K
Encoding: 75 75 46
Width: 1491
GlyphClass: 1
Flags: W
LayerCount: 2
Fore
SplineSet
1475 0 m 1,0,-1
 1159 0 l 1,1,-1
 723 664 l 1,2,-1
 436 367 l 1,3,-1
 436 0 l 1,4,-1
 182 0 l 1,5,-1
 182 1413 l 1,6,-1
 436 1413 l 1,7,-1
 436 676 l 1,8,-1
 1124 1413 l 1,9,-1
 1464 1413 l 1,10,-1
 899 834 l 1,11,-1
 1475 0 l 1,0,-1
EndSplineSet
Position2: "'cpsp' Capital Spacing lookup 0 subtable" dx=5 dy=0 dh=10 dv=0
EndChar

StartChar: L
Encoding: 76 76 47
Width: 1063
GlyphClass: 1
Flags: W
LayerCount: 2
Fore
SplineSet
1040 0 m 1,0,-1
 182 0 l 1,1,-1
 182 1413 l 1,2,-1
 436 1413 l 1,3,-1
 436 240 l 1,4,-1
 1040 240 l 1,5,-1
 1040 0 l 1,0,-1
EndSplineSet
Position2: "'cpsp' Capital Spacing lookup 0 subtable" dx=5 dy=0 dh=10 dv=0
EndChar

StartChar: M
Encoding: 77 77 48
Width: 1798
GlyphClass: 1
Flags: W
LayerCount: 2
Fore
SplineSet
1616 0 m 1,0,-1
 1372 0 l 1,1,-1
 1372 1057 l 1,2,-1
 1022 123 l 1,3,-1
 776 123 l 1,4,-1
 426 1057 l 1,5,-1
 426 0 l 1,6,-1
 182 0 l 1,7,-1
 182 1413 l 1,8,-1
 524 1413 l 1,9,-1
 899 408 l 1,10,-1
 1274 1413 l 1,11,-1
 1616 1413 l 1,12,-1
 1616 0 l 1,0,-1
EndSplineSet
Position2: "'cpsp' Capital Spacing lookup 0 subtable" dx=5 dy=0 dh=10 dv=0
EndChar

StartChar: N
Encoding: 78 78 49
Width: 1454
GlyphClass: 1
Flags: W
LayerCount: 2
Fore
SplineSet
1272 0 m 1,0,-1
 1018 0 l 1,1,-1
 426 991 l 1,2,-1
 426 0 l 1,3,-1
 182 0 l 1,4,-1
 182 1413 l 1,5,-1
 434 1413 l 1,6,-1
 1028 424 l 1,7,-1
 1028 1413 l 1,8,-1
 1272 1413 l 1,9,-1
 1272 0 l 1,0,-1
EndSplineSet
Position2: "'cpsp' Capital Spacing lookup 0 subtable" dx=5 dy=0 dh=10 dv=0
EndChar

StartChar: O
Encoding: 79 79 50
Width: 1528
GlyphClass: 1
Flags: W
LayerCount: 2
Fore
SplineSet
764 -20 m 256,0,1
 540 -20 540 -20 387 79 c 0,2,3
 279 148 279 148 212 246 c 128,-1,4
 145 344 145 344 113.5 462 c 128,-1,5
 82 580 82 580 82 707 c 256,6,7
 82 834 82 834 113.5 952 c 128,-1,8
 145 1070 145 1070 212 1168 c 128,-1,9
 279 1266 279 1266 387 1336 c 0,10,11
 540 1434 540 1434 764 1434 c 256,12,13
 988 1434 988 1434 1142 1336 c 0,14,15
 1249 1266 1249 1266 1316 1168 c 128,-1,16
 1383 1070 1383 1070 1414.5 952 c 128,-1,17
 1446 834 1446 834 1446 707 c 256,18,19
 1446 580 1446 580 1414.5 462 c 128,-1,20
 1383 344 1383 344 1316 246 c 128,-1,21
 1249 148 1249 148 1142 79 c 0,22,23
 988 -20 988 -20 764 -20 c 256,0,1
764 205 m 0,24,25
 909 205 909 205 1002 273 c 0,26,27
 1178 405 1178 405 1178 707 c 0,28,29
 1178 928 1178 928 1083 1060 c 0,30,31
 977 1208 977 1208 764 1208 c 0,32,33
 619 1208 619 1208 527 1141 c 0,34,35
 350 1008 350 1008 350 707 c 0,36,37
 350 568 350 568 392 454 c 128,-1,38
 434 340 434 340 525 272.5 c 128,-1,39
 616 205 616 205 764 205 c 0,24,25
EndSplineSet
Substitution2: "Single Substitution lookup 3 subtable" ordmasculine
Substitution2: "Single Substitution lookup 2 subtable" ordmasculine
Position2: "'cpsp' Capital Spacing lookup 0 subtable" dx=5 dy=0 dh=10 dv=0
EndChar

StartChar: P
Encoding: 80 80 51
Width: 1167
GlyphClass: 1
Flags: W
LayerCount: 2
Fore
SplineSet
434 0 m 1,0,-1
 182 0 l 1,1,-1
 182 1413 l 1,2,-1
 625 1413 l 2,3,4
 764 1413 764 1413 877 1365.5 c 128,-1,5
 990 1318 990 1318 1057 1225 c 128,-1,6
 1124 1132 1124 1132 1124 995 c 0,7,8
 1124 863 1124 863 1059 771.5 c 128,-1,9
 994 680 994 680 881 633 c 128,-1,10
 768 586 768 586 625 586 c 2,11,-1
 434 586 l 1,12,-1
 434 0 l 1,0,-1
625 823 m 2,13,14
 747 823 747 823 809.5 864 c 128,-1,15
 872 905 872 905 872 995 c 0,16,17
 872 1176 872 1176 625 1176 c 2,18,-1
 434 1176 l 1,19,-1
 434 823 l 1,20,-1
 625 823 l 2,13,14
EndSplineSet
Position2: "'cpsp' Capital Spacing lookup 0 subtable" dx=5 dy=0 dh=10 dv=0
EndChar

StartChar: Q
Encoding: 81 81 52
Width: 1573
GlyphClass: 1
Flags: W
LayerCount: 2
Fore
SplineSet
1346 -119 m 1,0,-1
 1143 84 l 1,1,2
 985 -20 985 -20 764 -20 c 0,3,4
 540 -20 540 -20 387 79 c 0,5,6
 279 148 279 148 212 246 c 128,-1,7
 145 344 145 344 113.5 462 c 128,-1,8
 82 580 82 580 82 707 c 256,9,10
 82 834 82 834 113.5 952 c 128,-1,11
 145 1070 145 1070 212 1168 c 128,-1,12
 279 1266 279 1266 387 1336 c 0,13,14
 540 1434 540 1434 764 1434 c 256,15,16
 988 1434 988 1434 1142 1335 c 0,17,18
 1249 1265 1249 1265 1316 1166.5 c 128,-1,19
 1383 1068 1383 1068 1414.5 950 c 128,-1,20
 1446 832 1446 832 1446 705 c 0,21,22
 1446 573 1446 573 1411 448.5 c 128,-1,23
 1376 324 1376 324 1307 227 c 1,24,-1
 1509 35 l 1,25,-1
 1346 -119 l 1,0,-1
764 219 m 0,26,27
 874 219 874 219 963 260 c 1,28,-1
 770 436 l 1,29,-1
 934 586 l 1,30,-1
 1122 412 l 1,31,32
 1192 538 1192 538 1192 707 c 0,33,34
 1192 844 1192 844 1147.5 954 c 128,-1,35
 1103 1064 1103 1064 1008.5 1129 c 128,-1,36
 914 1194 914 1194 764 1194 c 0,37,38
 616 1194 616 1194 521.5 1130 c 128,-1,39
 427 1066 427 1066 381.5 955.5 c 128,-1,40
 336 845 336 845 336 707 c 0,41,42
 336 573 336 573 380 462 c 128,-1,43
 424 351 424 351 518 285 c 128,-1,44
 612 219 612 219 764 219 c 0,26,27
EndSplineSet
Position2: "'cpsp' Capital Spacing lookup 0 subtable" dx=5 dy=0 dh=10 dv=0
EndChar

StartChar: R
Encoding: 82 82 53
Width: 1268
GlyphClass: 1
Flags: W
LayerCount: 2
Fore
SplineSet
1245 -2 m 1,0,-1
 954 -2 l 1,1,-1
 606 604 l 1,2,-1
 436 604 l 1,3,-1
 436 -2 l 1,4,-1
 182 -2 l 1,5,-1
 182 1413 l 1,6,-1
 639 1413 l 2,7,8
 767 1413 767 1413 879 1365.5 c 128,-1,9
 991 1318 991 1318 1062 1220 c 0,10,11
 1128 1125 1128 1125 1128 997 c 0,12,13
 1128 907 1128 907 1092 834 c 128,-1,14
 1056 761 1056 761 994 709 c 128,-1,15
 932 657 932 657 852 629 c 1,16,-1
 1245 -2 l 1,0,-1
662 811 m 1,17,18
 767 816 767 816 822 865.5 c 128,-1,19
 877 915 877 915 877 993 c 0,20,21
 877 1082 877 1082 813 1134 c 128,-1,22
 749 1186 749 1186 641 1186 c 2,23,-1
 438 1186 l 1,24,-1
 438 811 l 1,25,-1
 662 811 l 1,17,18
EndSplineSet
Position2: "'cpsp' Capital Spacing lookup 0 subtable" dx=5 dy=0 dh=10 dv=0
EndChar

StartChar: S
Encoding: 83 83 54
Width: 1145
GlyphClass: 1
Flags: W
LayerCount: 2
Fore
SplineSet
590 -16 m 0,0,1
 491 -16 491 -16 401 11 c 128,-1,2
 311 38 311 38 239 91 c 128,-1,3
 167 144 167 144 118 222 c 128,-1,4
 69 300 69 300 52 402 c 1,5,-1
 306 469 l 1,6,7
 315 410 315 410 337 362 c 128,-1,8
 359 314 359 314 395 280 c 128,-1,9
 431 246 431 246 480.5 227.5 c 128,-1,10
 530 209 530 209 593 209 c 0,11,12
 636 209 636 209 677 219.5 c 128,-1,13
 718 230 718 230 750 252 c 128,-1,14
 782 274 782 274 801 308.5 c 128,-1,15
 820 343 820 343 820 391 c 0,16,17
 820 430 820 430 804 460.5 c 128,-1,18
 788 491 788 491 760.5 516 c 128,-1,19
 733 541 733 541 696 561 c 128,-1,20
 659 581 659 581 618 599 c 128,-1,21
 577 617 577 617 533.5 633.5 c 128,-1,22
 490 650 490 650 449 668 c 0,23,24
 390 694 390 694 335.5 727 c 128,-1,25
 281 760 281 760 239 804.5 c 128,-1,26
 197 849 197 849 171.5 908 c 128,-1,27
 146 967 146 967 146 1045 c 0,28,29
 146 1133 146 1133 179 1204.5 c 128,-1,30
 212 1276 212 1276 270.5 1327 c 128,-1,31
 329 1378 329 1378 409 1405.5 c 128,-1,32
 489 1433 489 1433 583 1433 c 0,33,34
 726 1433 726 1433 834.5 1370 c 128,-1,35
 943 1307 943 1307 1016 1182 c 1,36,-1
 804 1051 l 1,37,38
 771 1114 771 1114 720 1156 c 128,-1,39
 669 1198 669 1198 603 1206 c 0,40,41
 588 1208 588 1208 575 1208 c 2,42,-1
 566 1208 l 2,43,44
 535 1206 535 1206 506 1196 c 128,-1,45
 477 1186 477 1186 454 1167.5 c 128,-1,46
 431 1149 431 1149 417 1121.5 c 128,-1,47
 403 1094 403 1094 403 1058 c 0,48,49
 403 1012 403 1012 427 980 c 128,-1,50
 451 948 451 948 490 924 c 128,-1,51
 529 900 529 900 579 880 c 128,-1,52
 629 860 629 860 682 838 c 0,53,54
 750 810 750 810 820.5 776.5 c 128,-1,55
 891 743 891 743 948 695 c 128,-1,56
 1005 647 1005 647 1041.5 578.5 c 128,-1,57
 1078 510 1078 510 1078 412 c 0,58,59
 1078 313 1078 313 1040 233.5 c 128,-1,60
 1002 154 1002 154 936 98.5 c 128,-1,61
 870 43 870 43 781 13.5 c 128,-1,62
 692 -16 692 -16 590 -16 c 0,0,1
EndSplineSet
Position2: "'cpsp' Capital Spacing lookup 0 subtable" dx=5 dy=0 dh=10 dv=0
EndChar

StartChar: T
Encoding: 84 84 55
Width: 1180
GlyphClass: 1
Flags: W
LayerCount: 2
Fore
SplineSet
717 0 m 1,0,-1
 463 0 l 1,1,-1
 463 1186 l 1,2,-1
 20 1186 l 1,3,-1
 20 1413 l 1,4,-1
 1159 1413 l 1,5,-1
 1159 1186 l 1,6,-1
 717 1186 l 1,7,-1
 717 0 l 1,0,-1
EndSplineSet
Position2: "'cpsp' Capital Spacing lookup 0 subtable" dx=5 dy=0 dh=10 dv=0
EndChar

StartChar: U
Encoding: 85 85 56
Width: 1380
GlyphClass: 1
Flags: W
LayerCount: 2
Fore
SplineSet
690 -20 m 0,0,1
 415 -20 415 -20 282.5 130.5 c 128,-1,2
 150 281 150 281 150 551 c 2,3,-1
 150 1413 l 1,4,-1
 403 1413 l 1,5,-1
 403 580 l 2,6,7
 403 454 403 454 430 378.5 c 128,-1,8
 457 303 457 303 517 266 c 0,9,10
 579 225 579 225 690 225 c 0,11,12
 798 225 798 225 860.5 262.5 c 128,-1,13
 923 300 923 300 950 378.5 c 128,-1,14
 977 457 977 457 977 580 c 2,15,-1
 977 1413 l 1,16,-1
 1231 1413 l 1,17,-1
 1231 561 l 2,18,19
 1231 284 1231 284 1098.5 132 c 128,-1,20
 966 -20 966 -20 690 -20 c 0,0,1
EndSplineSet
Position2: "'cpsp' Capital Spacing lookup 0 subtable" dx=5 dy=0 dh=10 dv=0
EndChar

StartChar: V
Encoding: 86 86 57
Width: 1343
GlyphClass: 1
Flags: W
LayerCount: 2
Fore
SplineSet
768 0 m 1,0,-1
 578 0 l 1,1,-1
 12 1413 l 1,2,-1
 293 1413 l 1,3,-1
 674 412 l 1,4,-1
 1053 1413 l 1,5,-1
 1331 1413 l 1,6,-1
 768 0 l 1,0,-1
EndSplineSet
Position2: "'cpsp' Capital Spacing lookup 0 subtable" dx=5 dy=0 dh=10 dv=0
EndChar

StartChar: W
Encoding: 87 87 58
Width: 2003
GlyphClass: 1
Flags: W
LayerCount: 2
Fore
SplineSet
1554 0 m 1,0,-1
 1309 0 l 1,1,-1
 1001 1012 l 1,2,-1
 694 0 l 1,3,-1
 449 0 l 1,4,-1
 25 1413 l 1,5,-1
 289 1413 l 1,6,-1
 590 373 l 1,7,-1
 903 1413 l 1,8,-1
 1100 1413 l 1,9,-1
 1413 373 l 1,10,-1
 1714 1413 l 1,11,-1
 1978 1413 l 1,12,-1
 1554 0 l 1,0,-1
EndSplineSet
Position2: "'cpsp' Capital Spacing lookup 0 subtable" dx=5 dy=0 dh=10 dv=0
EndChar

StartChar: X
Encoding: 88 88 59
Width: 1343
GlyphClass: 1
Flags: W
LayerCount: 2
Fore
SplineSet
1319 0 m 1,0,-1
 1016 0 l 1,1,-1
 670 537 l 1,2,-1
 328 0 l 1,3,-1
 25 0 l 1,4,-1
 498 707 l 1,5,-1
 27 1413 l 1,6,-1
 330 1413 l 1,7,-1
 672 868 l 1,8,-1
 1014 1413 l 1,9,-1
 1317 1413 l 1,10,-1
 846 707 l 1,11,-1
 1319 0 l 1,0,-1
EndSplineSet
Position2: "'cpsp' Capital Spacing lookup 0 subtable" dx=5 dy=0 dh=10 dv=0
EndChar

StartChar: Y
Encoding: 89 89 60
Width: 1319
GlyphClass: 1
Flags: W
LayerCount: 2
Fore
SplineSet
793 0 m 1,0,-1
 528 0 l 1,1,-1
 528 551 l 1,2,-1
 -2 1413 l 1,3,-1
 305 1413 l 1,4,-1
 657 795 l 1,5,-1
 1012 1413 l 1,6,-1
 1321 1413 l 1,7,-1
 793 551 l 1,8,-1
 793 0 l 1,0,-1
EndSplineSet
Position2: "'cpsp' Capital Spacing lookup 0 subtable" dx=5 dy=0 dh=10 dv=0
EndChar

StartChar: Z
Encoding: 90 90 61
Width: 1272
GlyphClass: 1
Flags: W
LayerCount: 2
Fore
SplineSet
1198 0 m 1,0,-1
 59 0 l 1,1,-1
 59 176 l 1,2,-1
 848 1180 l 1,3,-1
 104 1180 l 1,4,-1
 104 1413 l 1,5,-1
 1198 1413 l 1,6,-1
 1198 1229 l 1,7,-1
 414 229 l 1,8,-1
 1198 229 l 1,9,-1
 1198 0 l 1,0,-1
EndSplineSet
Position2: "'cpsp' Capital Spacing lookup 0 subtable" dx=5 dy=0 dh=10 dv=0
EndChar

StartChar: bracketleft
Encoding: 91 91 62
Width: 641
GlyphClass: 1
Flags: W
LayerCount: 2
Fore
SplineSet
608 -164 m 1,0,-1
 176 -164 l 1,1,-1
 176 1573 l 1,2,-1
 608 1573 l 1,3,-1
 608 1411 l 1,4,-1
 373 1411 l 1,5,-1
 373 0 l 1,6,-1
 608 0 l 1,7,-1
 608 -164 l 1,0,-1
EndSplineSet
EndChar

StartChar: backslash
Encoding: 92 92 63
Width: 934
GlyphClass: 1
Flags: W
LayerCount: 2
Fore
SplineSet
971 -430 m 1,0,-1
 743 -430 l 1,1,-1
 -37 1516 l 1,2,-1
 190 1516 l 1,3,-1
 971 -430 l 1,0,-1
EndSplineSet
EndChar

StartChar: bracketright
Encoding: 93 93 64
Width: 641
GlyphClass: 1
Flags: W
LayerCount: 2
Fore
SplineSet
465 -164 m 1,0,-1
 33 -164 l 1,1,-1
 33 0 l 1,2,-1
 268 0 l 1,3,-1
 268 1411 l 1,4,-1
 33 1411 l 1,5,-1
 33 1573 l 1,6,-1
 465 1573 l 1,7,-1
 465 -164 l 1,0,-1
EndSplineSet
EndChar

StartChar: asciicircum
Encoding: 94 94 65
Width: 981
GlyphClass: 1
Flags: W
LayerCount: 2
Fore
SplineSet
918 805 m 1,0,-1
 676 805 l 1,1,-1
 489 1106 l 1,2,-1
 305 805 l 1,3,-1
 63 805 l 1,4,-1
 489 1497 l 1,5,-1
 918 805 l 1,0,-1
EndSplineSet
EndChar

StartChar: underscore
Encoding: 95 95 66
Width: 1247
GlyphClass: 1
Flags: W
LayerCount: 2
Fore
SplineSet
1049 -184 m 1,0,-1
 199 -184 l 1,1,-1
 199 0 l 1,2,-1
 1049 0 l 1,3,-1
 1049 -184 l 1,0,-1
EndSplineSet
EndChar

StartChar: a
Encoding: 97 97 68
Width: 1077
GlyphClass: 1
Flags: W
LayerCount: 2
Fore
SplineSet
429 -20 m 256,0,1
 327 -20 327 -20 239 19 c 128,-1,2
 151 58 151 58 98 133.5 c 128,-1,3
 45 209 45 209 45 318 c 0,4,5
 45 476 45 476 160 546.5 c 128,-1,6
 275 617 275 617 465 617 c 2,7,-1
 732 617 l 1,8,9
 732 717 732 717 681.5 780 c 128,-1,10
 631 843 631 843 527 843 c 0,11,12
 441 843 441 843 380 801 c 128,-1,13
 319 759 319 759 283 694 c 1,14,-1
 96 841 l 1,15,16
 176 949 176 949 280 1002.5 c 128,-1,17
 384 1056 384 1056 522 1056 c 0,18,19
 665 1056 665 1056 764 1001.5 c 128,-1,20
 863 947 863 947 914 851 c 128,-1,21
 965 755 965 755 965 630 c 2,22,-1
 965 0 l 1,23,-1
 764 0 l 1,24,-1
 748 143 l 1,25,26
 689 58 689 58 610 19 c 128,-1,27
 531 -20 531 -20 429 -20 c 256,0,1
461 186 m 0,28,29
 536 186 536 186 596.5 222.5 c 128,-1,30
 657 259 657 259 692.5 317 c 128,-1,31
 728 375 728 375 732 441 c 1,32,-1
 476 441 l 2,33,34
 389 441 389 441 342 400.5 c 128,-1,35
 295 360 295 360 295 309 c 0,36,37
 295 253 295 253 341.5 219.5 c 128,-1,38
 388 186 388 186 461 186 c 0,28,29
EndSplineSet
Substitution2: "Single Substitution lookup 3 subtable" ordfeminine
Substitution2: "Single Substitution lookup 2 subtable" ordfeminine
EndChar

StartChar: b
Encoding: 98 98 69
Width: 1194
GlyphClass: 1
Flags: W
LayerCount: 2
Fore
SplineSet
697 -20 m 0,0,1
 615 -20 615 -20 537.5 8.5 c 128,-1,2
 460 37 460 37 405 100 c 1,3,-1
 405 0 l 1,4,-1
 153 0 l 1,5,-1
 153 1411 l 1,6,-1
 405 1411 l 1,7,-1
 405 939 l 1,8,9
 459 1003 459 1003 534.5 1031.5 c 128,-1,10
 610 1060 610 1060 693 1060 c 0,11,12
 837 1060 837 1060 936 985.5 c 128,-1,13
 1035 911 1035 911 1086 788 c 128,-1,14
 1137 665 1137 665 1137 520 c 0,15,16
 1137 380 1137 380 1087 256 c 128,-1,17
 1037 132 1037 132 934 54 c 0,18,19
 835 -20 835 -20 697 -20 c 0,0,1
638 205 m 0,20,21
 764 205 764 205 827.5 292 c 128,-1,22
 891 379 891 379 891 520 c 256,23,24
 891 661 891 661 827 750 c 128,-1,25
 763 839 763 839 638 839 c 0,26,27
 512 839 512 839 447.5 750.5 c 128,-1,28
 383 662 383 662 383 520 c 0,29,30
 383 430 383 430 410 359 c 128,-1,31
 437 288 437 288 493.5 246.5 c 128,-1,32
 550 205 550 205 638 205 c 0,20,21
EndSplineSet
EndChar

StartChar: c
Encoding: 99 99 70
Width: 1030
GlyphClass: 1
Flags: W
LayerCount: 2
Fore
SplineSet
557 -20 m 0,0,1
 432 -20 432 -20 339 24 c 128,-1,2
 246 68 246 68 183.5 144 c 128,-1,3
 121 220 121 220 90 316.5 c 128,-1,4
 59 413 59 413 59 518 c 0,5,6
 59 653 59 653 112.5 776 c 128,-1,7
 166 899 166 899 283 981 c 0,8,9
 395 1056 395 1056 555 1056 c 0,10,11
 713 1056 713 1056 827.5 975 c 128,-1,12
 942 894 942 894 1000 761 c 1,13,-1
 759 665 l 1,14,15
 737 745 737 745 681.5 785.5 c 128,-1,16
 626 826 626 826 551 826 c 0,17,18
 467 826 467 826 412.5 783.5 c 128,-1,19
 358 741 358 741 332.5 671 c 128,-1,20
 307 601 307 601 307 518 c 0,21,22
 307 384 307 384 366.5 296.5 c 128,-1,23
 426 209 426 209 551 209 c 0,24,25
 629 209 629 209 683.5 252.5 c 128,-1,26
 738 296 738 296 759 370 c 1,27,-1
 990 281 l 1,28,29
 936 136 936 136 821.5 58 c 128,-1,30
 707 -20 707 -20 557 -20 c 0,0,1
EndSplineSet
AlternateSubs2: "'salt' Stylistic Alternatives lookup 15 subtable" c.001
Substitution2: "'aalt' Access All Alternates lookup 0 subtable" c.001
EndChar

StartChar: d
Encoding: 100 100 71
Width: 1189
GlyphClass: 1
Flags: W
LayerCount: 2
Fore
SplineSet
510 -20 m 0,0,1
 365 -20 365 -20 266 55 c 128,-1,2
 167 130 167 130 116.5 252.5 c 128,-1,3
 66 375 66 375 66 520 c 0,4,5
 66 660 66 660 115.5 783.5 c 128,-1,6
 165 907 165 907 269 986 c 0,7,8
 369 1060 369 1060 506 1060 c 0,9,10
 588 1060 588 1060 665.5 1031 c 128,-1,11
 743 1002 743 1002 797 939 c 1,12,-1
 797 1413 l 1,13,-1
 1045 1413 l 1,14,-1
 1045 0 l 1,15,-1
 818 0 l 1,16,-1
 807 112 l 1,17,18
 753 42 753 42 674.5 11 c 128,-1,19
 596 -20 596 -20 510 -20 c 0,0,1
567 205 m 256,20,21
 655 205 655 205 710 245.5 c 128,-1,22
 765 286 765 286 791.5 357.5 c 128,-1,23
 818 429 818 429 818 520 c 0,24,25
 818 663 818 663 754.5 751 c 128,-1,26
 691 839 691 839 567 839 c 0,27,28
 442 839 442 839 378 750 c 128,-1,29
 314 661 314 661 314 520 c 0,30,31
 314 429 314 429 341 358 c 128,-1,32
 368 287 368 287 423.5 246 c 128,-1,33
 479 205 479 205 567 205 c 256,20,21
EndSplineSet
EndChar

StartChar: e
Encoding: 101 101 72
Width: 1105
GlyphClass: 1
Flags: W
LayerCount: 2
Fore
SplineSet
577 -12 m 0,0,1
 448 -12 448 -12 350.5 30 c 128,-1,2
 253 72 253 72 188 145.5 c 128,-1,3
 123 219 123 219 90 314 c 128,-1,4
 57 409 57 409 57 514 c 0,5,6
 57 649 57 649 111 772 c 128,-1,7
 165 895 165 895 283 977 c 0,8,9
 396 1052 396 1052 558 1052 c 0,10,11
 737 1052 737 1052 846.5 977.5 c 128,-1,12
 956 903 956 903 1002 783.5 c 128,-1,13
 1048 664 1048 664 1048 518 c 0,14,15
 1048 465 1048 465 1039 440 c 1,16,-1
 326 440 l 1,17,18
 338 338 338 338 399 276.5 c 128,-1,19
 460 215 460 215 575 215 c 0,20,21
 668 215 668 215 726.5 238 c 128,-1,22
 785 261 785 261 835 316 c 1,23,-1
 1010 160 l 1,24,25
 926 73 926 73 820 30.5 c 128,-1,26
 714 -12 714 -12 577 -12 c 0,0,1
799 616 m 1,27,28
 772 847 772 847 558 847 c 0,29,30
 453 847 453 847 397.5 783.5 c 128,-1,31
 342 720 342 720 326 616 c 1,32,-1
 799 616 l 1,27,28
EndSplineSet
EndChar

StartChar: f
Encoding: 102 102 73
Width: 705
GlyphClass: 1
Flags: W
LayerCount: 2
Fore
SplineSet
463 0 m 1,0,-1
 211 0 l 1,1,-1
 211 835 l 1,2,-1
 21 835 l 1,3,-1
 21 1037 l 1,4,-1
 213 1037 l 1,5,-1
 213 1161 l 2,6,7
 213 1249 213 1249 258.5 1310 c 128,-1,8
 304 1371 304 1371 378 1402 c 0,9,10
 452 1434 452 1434 538 1434 c 0,11,12
 629 1434 629 1434 723 1393 c 1,13,-1
 640 1197 l 1,14,15
 597 1217 597 1217 559 1217 c 0,16,17
 519 1217 519 1217 491 1196 c 128,-1,18
 463 1175 463 1175 463 1128 c 2,19,-1
 463 1039 l 1,20,-1
 705 1039 l 1,21,-1
 705 835 l 1,22,-1
 463 835 l 1,23,-1
 463 0 l 1,0,-1
EndSplineSet
EndChar

StartChar: g
Encoding: 103 103 74
Width: 1064
GlyphClass: 1
Flags: W
LayerCount: 2
Fore
SplineSet
559 -473 m 0,0,1
 408 -473 408 -473 302 -425 c 128,-1,2
 196 -377 196 -377 140.5 -294.5 c 128,-1,3
 85 -212 85 -212 85 -109 c 0,4,5
 85 -85 85 -85 89 -65 c 1,6,-1
 194 33 l 1,7,8
 96 101 96 101 96 236 c 0,9,10
 96 366 96 366 189 448 c 1,11,12
 106 554 106 554 106 684 c 0,13,14
 106 798 106 798 164.5 880.5 c 128,-1,15
 223 963 223 963 318.5 1007.5 c 128,-1,16
 414 1052 414 1052 524 1052 c 0,17,18
 656 1052 656 1052 762 993 c 1,19,-1
 928 1125 l 1,20,-1
 1046 972 l 1,21,-1
 900 855 l 1,22,23
 943 773 943 773 943 676 c 0,24,25
 943 560 943 560 885 475.5 c 128,-1,26
 827 391 827 391 732.5 346 c 128,-1,27
 638 301 638 301 528 301 c 0,28,29
 425 301 425 301 334 340 c 1,30,31
 305 320 305 320 305 285 c 0,32,33
 305 249 305 249 333 230 c 128,-1,34
 361 211 361 211 407 202.5 c 128,-1,35
 453 194 453 194 545 184 c 2,36,-1
 611 176 l 2,37,38
 731 160 731 160 814.5 133.5 c 128,-1,39
 898 107 898 107 953 44.5 c 128,-1,40
 1008 -18 1008 -18 1008 -129 c 0,41,42
 1008 -246 1008 -246 948.5 -322 c 128,-1,43
 889 -398 889 -398 787.5 -435.5 c 128,-1,44
 686 -473 686 -473 559 -473 c 0,0,1
530 502 m 256,45,46
 616 502 616 502 658.5 553 c 128,-1,47
 701 604 701 604 701 679 c 256,48,49
 701 754 701 754 657.5 808.5 c 128,-1,50
 614 863 614 863 530 863 c 256,51,52
 446 863 446 863 402 808.5 c 128,-1,53
 358 754 358 754 358 679 c 256,54,55
 358 604 358 604 401 553 c 128,-1,56
 444 502 444 502 530 502 c 256,45,46
562 -281 m 0,57,58
 657 -281 657 -281 717 -251 c 128,-1,59
 777 -221 777 -221 777 -163 c 0,60,61
 777 -126 777 -126 750 -106.5 c 128,-1,62
 723 -87 723 -87 674 -77.5 c 128,-1,63
 625 -68 625 -68 511.5 -54.5 c 128,-1,64
 398 -41 398 -41 342 -28 c 1,65,-1
 291 -116 l 1,66,67
 303 -201 303 -201 378 -241 c 128,-1,68
 453 -281 453 -281 562 -281 c 0,57,58
EndSplineSet
Substitution2: "'ss01' Style Set 1 lookup 16 subtable" g.ss01
AlternateSubs2: "'salt' Stylistic Alternatives lookup 15 subtable" g.ss01
Substitution2: "'aalt' Access All Alternates lookup 0 subtable" g.ss01
EndChar

StartChar: h
Encoding: 104 104 75
Width: 1185
GlyphClass: 1
Flags: W
LayerCount: 2
Fore
SplineSet
1075 0 m 1,0,-1
 827 0 l 1,1,-1
 827 598 l 2,2,3
 827 706 827 706 790 767 c 128,-1,4
 753 828 753 828 661 828 c 0,5,6
 587 828 587 828 528.5 791 c 128,-1,7
 470 754 470 754 435.5 696 c 128,-1,8
 401 638 401 638 401 575 c 2,9,-1
 401 0 l 1,10,-1
 153 0 l 1,11,-1
 153 1413 l 1,12,-1
 401 1413 l 1,13,-1
 401 923 l 1,14,15
 461 994 461 994 539.5 1025 c 128,-1,16
 618 1056 618 1056 697 1056 c 0,17,18
 828 1056 828 1056 911.5 995 c 128,-1,19
 995 934 995 934 1035 835.5 c 128,-1,20
 1075 737 1075 737 1075 624 c 2,21,-1
 1075 0 l 1,0,-1
EndSplineSet
EndChar

StartChar: i
Encoding: 105 105 76
Width: 532
GlyphClass: 1
Flags: W
LayerCount: 2
Fore
SplineSet
371 0 m 1,0,-1
 145 0 l 1,1,-1
 145 1039 l 1,2,-1
 371 1039 l 1,3,-1
 371 0 l 1,0,-1
371 1188 m 1,4,-1
 145 1188 l 1,5,-1
 145 1413 l 1,6,-1
 371 1413 l 1,7,-1
 371 1188 l 1,4,-1
EndSplineSet
Substitution2: "'locl' Localized Forms in Latin lookup 23-1" i.loclTRK
Substitution2: "Single Substitution lookup 2 subtable" dotlessi
Substitution2: "'aalt' Access All Alternates lookup 0 subtable" i.loclTRK
EndChar

StartChar: j
Encoding: 106 106 77
Width: 552
GlyphClass: 1
Flags: W
LayerCount: 2
Fore
SplineSet
389 1188 m 1,0,-1
 156 1188 l 1,1,-1
 156 1413 l 1,2,-1
 389 1413 l 1,3,-1
 389 1188 l 1,0,-1
88 -438 m 0,4,5
 7 -438 7 -438 -81 -406 c 1,6,-1
 -24 -205 l 1,7,8
 36 -219 36 -219 85 -219 c 0,9,10
 123 -219 123 -219 139.5 -196.5 c 128,-1,11
 156 -174 156 -174 156 -120 c 2,12,-1
 156 1039 l 1,13,-1
 389 1039 l 1,14,-1
 389 -106 l 2,15,16
 389 -197 389 -197 358 -272.5 c 128,-1,17
 327 -348 327 -348 260.5 -393 c 128,-1,18
 194 -438 194 -438 88 -438 c 0,4,5
EndSplineSet
Substitution2: "Single Substitution lookup 2 subtable" uni0237
EndChar

StartChar: k
Encoding: 107 107 78
Width: 1147
GlyphClass: 1
Flags: W
LayerCount: 2
Fore
SplineSet
1159 0 m 1,0,-1
 860 0 l 1,1,-1
 555 482 l 1,2,-1
 395 305 l 1,3,-1
 395 0 l 1,4,-1
 151 0 l 1,5,-1
 151 1413 l 1,6,-1
 395 1413 l 1,7,-1
 395 607 l 1,8,-1
 787 1039 l 1,9,-1
 1117 1039 l 1,10,-1
 728 636 l 1,11,-1
 1159 0 l 1,0,-1
EndSplineSet
EndChar

StartChar: l
Encoding: 108 108 79
Width: 578
GlyphClass: 1
Flags: W
LayerCount: 2
Fore
SplineSet
363 -20 m 0,0,1
 259 -20 259 -20 202 27 c 128,-1,2
 145 74 145 74 145 199 c 2,3,-1
 145 1413 l 1,4,-1
 389 1413 l 1,5,-1
 389 266 l 2,6,7
 389 199 389 199 476 199 c 0,8,9
 501 199 501 199 541 205 c 1,10,-1
 541 0 l 1,11,12
 438 -20 438 -20 363 -20 c 0,0,1
EndSplineSet
EndChar

StartChar: m
Encoding: 109 109 80
Width: 1772
GlyphClass: 1
Flags: W
LayerCount: 2
Fore
SplineSet
1661 0 m 1,0,-1
 1413 0 l 1,1,-1
 1413 598 l 2,2,3
 1413 706 1413 706 1375 768.5 c 128,-1,4
 1337 831 1337 831 1246 831 c 0,5,6
 1176 831 1176 831 1127 796 c 128,-1,7
 1078 761 1078 761 1053.5 703 c 128,-1,8
 1029 645 1029 645 1029 577 c 2,9,-1
 1029 0 l 1,10,-1
 781 0 l 1,11,-1
 781 602 l 2,12,13
 781 709 781 709 744 770 c 128,-1,14
 707 831 707 831 614 831 c 0,15,16
 546 831 546 831 497.5 796.5 c 128,-1,17
 449 762 449 762 423 704 c 128,-1,18
 397 646 397 646 397 577 c 2,19,-1
 397 0 l 1,20,-1
 151 0 l 1,21,-1
 151 1039 l 1,22,-1
 397 1039 l 1,23,-1
 397 935 l 1,24,25
 448 1001 448 1001 515.5 1029.5 c 128,-1,26
 583 1058 583 1058 652 1058 c 0,27,28
 841 1058 841 1058 947 904 c 1,29,30
 1009 982 1009 982 1098.5 1019 c 128,-1,31
 1188 1056 1188 1056 1283 1056 c 0,32,33
 1413 1056 1413 1056 1496.5 995 c 128,-1,34
 1580 934 1580 934 1620.5 835.5 c 128,-1,35
 1661 737 1661 737 1661 624 c 2,36,-1
 1661 0 l 1,0,-1
EndSplineSet
EndChar

StartChar: n
Encoding: 110 110 81
Width: 1183
GlyphClass: 1
Flags: W
LayerCount: 2
Fore
SplineSet
1073 0 m 1,0,-1
 825 0 l 1,1,-1
 825 598 l 2,2,3
 825 706 825 706 788 767 c 128,-1,4
 751 828 751 828 659 828 c 0,5,6
 585 828 585 828 526 791 c 128,-1,7
 467 754 467 754 433 696 c 128,-1,8
 399 638 399 638 399 575 c 2,9,-1
 399 0 l 1,10,-1
 151 0 l 1,11,-1
 151 1039 l 1,12,-1
 399 1039 l 1,13,-1
 399 923 l 1,14,15
 459 994 459 994 537.5 1025 c 128,-1,16
 616 1056 616 1056 695 1056 c 0,17,18
 826 1056 826 1056 909.5 995 c 128,-1,19
 993 934 993 934 1033 835.5 c 128,-1,20
 1073 737 1073 737 1073 624 c 2,21,-1
 1073 0 l 1,0,-1
EndSplineSet
EndChar

StartChar: o
Encoding: 111 111 82
Width: 1148
GlyphClass: 1
Flags: W
LayerCount: 2
Fore
SplineSet
575 -20 m 0,0,1
 413 -20 413 -20 296.5 54.5 c 128,-1,2
 180 129 180 129 116.5 250.5 c 128,-1,3
 53 372 53 372 53 516 c 0,4,5
 53 656 53 656 116 779 c 128,-1,6
 179 902 179 902 303 980 c 0,7,8
 421 1052 421 1052 575 1052 c 0,9,10
 736 1052 736 1052 853.5 977.5 c 128,-1,11
 971 903 971 903 1034.5 781 c 128,-1,12
 1098 659 1098 659 1098 516 c 0,13,14
 1098 375 1098 375 1035 252 c 128,-1,15
 972 129 972 129 849 52 c 0,16,17
 729 -20 729 -20 575 -20 c 0,0,1
575 190 m 0,18,19
 711 190 711 190 777.5 281.5 c 128,-1,20
 844 373 844 373 844 516 c 0,21,22
 844 658 844 658 778 749.5 c 128,-1,23
 712 841 712 841 575 841 c 0,24,25
 481 841 481 841 422 797.5 c 128,-1,26
 363 754 363 754 335 680 c 128,-1,27
 307 606 307 606 307 516 c 0,28,29
 307 373 307 373 373.5 281.5 c 128,-1,30
 440 190 440 190 575 190 c 0,18,19
EndSplineSet
Substitution2: "Single Substitution lookup 3 subtable" ordmasculine
Substitution2: "Single Substitution lookup 2 subtable" ordmasculine
EndChar

StartChar: p
Encoding: 112 112 83
Width: 1189
GlyphClass: 1
Flags: W
LayerCount: 2
Fore
SplineSet
401 -438 m 1,0,-1
 153 -438 l 1,1,-1
 153 1039 l 1,2,-1
 401 1039 l 1,3,-1
 401 939 l 1,4,5
 455 1003 455 1003 530.5 1031.5 c 128,-1,6
 606 1060 606 1060 689 1060 c 0,7,8
 833 1060 833 1060 932 985 c 128,-1,9
 1031 910 1031 910 1081.5 787 c 128,-1,10
 1132 664 1132 664 1132 520 c 0,11,12
 1132 380 1132 380 1082.5 256 c 128,-1,13
 1033 132 1033 132 929 54 c 0,14,15
 829 -20 829 -20 693 -20 c 0,16,17
 611 -20 611 -20 533.5 8.5 c 128,-1,18
 456 37 456 37 401 100 c 1,19,-1
 401 -438 l 1,0,-1
631 205 m 0,20,21
 719 205 719 205 774.5 246 c 128,-1,22
 830 287 830 287 857 358 c 128,-1,23
 884 429 884 429 884 520 c 0,24,25
 884 662 884 662 820 751.5 c 128,-1,26
 756 841 756 841 631 841 c 256,27,28
 506 841 506 841 442.5 751.5 c 128,-1,29
 379 662 379 662 379 520 c 0,30,31
 379 429 379 429 406 358 c 128,-1,32
 433 287 433 287 488.5 246 c 128,-1,33
 544 205 544 205 631 205 c 0,20,21
EndSplineSet
EndChar

StartChar: q
Encoding: 113 113 84
Width: 1187
GlyphClass: 1
Flags: W
LayerCount: 2
Fore
SplineSet
1043 -438 m 1,0,-1
 797 -438 l 1,1,-1
 797 100 l 1,2,3
 744 36 744 36 669 8 c 128,-1,4
 594 -20 594 -20 510 -20 c 0,5,6
 365 -20 365 -20 266 55 c 128,-1,7
 167 130 167 130 116.5 252.5 c 128,-1,8
 66 375 66 375 66 520 c 0,9,10
 66 660 66 660 115.5 783.5 c 128,-1,11
 165 907 165 907 269 986 c 0,12,13
 369 1060 369 1060 506 1060 c 0,14,15
 588 1060 588 1060 665.5 1031 c 128,-1,16
 743 1002 743 1002 797 939 c 1,17,-1
 797 1039 l 1,18,-1
 1043 1039 l 1,19,-1
 1043 -438 l 1,0,-1
567 205 m 256,20,21
 655 205 655 205 710 245.5 c 128,-1,22
 765 286 765 286 791.5 357.5 c 128,-1,23
 818 429 818 429 818 520 c 0,24,25
 818 663 818 663 754.5 751 c 128,-1,26
 691 839 691 839 567 839 c 0,27,28
 442 839 442 839 378 750 c 128,-1,29
 314 661 314 661 314 520 c 0,30,31
 314 429 314 429 341 358 c 128,-1,32
 368 287 368 287 423.5 246 c 128,-1,33
 479 205 479 205 567 205 c 256,20,21
EndSplineSet
EndChar

StartChar: r
Encoding: 114 114 85
Width: 833
GlyphClass: 1
Flags: W
LayerCount: 2
Fore
SplineSet
387 0 m 1,0,-1
 151 0 l 1,1,-1
 151 1039 l 1,2,-1
 389 1039 l 1,3,-1
 389 871 l 1,4,5
 422 965 422 965 493 1009.5 c 128,-1,6
 564 1054 564 1054 638 1054 c 0,7,8
 692 1054 692 1054 751.5 1038 c 128,-1,9
 811 1022 811 1022 858 988 c 1,10,-1
 742 786 l 1,11,12
 707 822 707 822 627 822 c 0,13,14
 554 822 554 822 500 776.5 c 128,-1,15
 446 731 446 731 416.5 654.5 c 128,-1,16
 387 578 387 578 387 487 c 2,17,-1
 387 0 l 1,0,-1
EndSplineSet
EndChar

StartChar: s
Encoding: 115 115 86
Width: 928
GlyphClass: 1
Flags: W
LayerCount: 2
Fore
SplineSet
491 -20 m 0,0,1
 282 -20 282 -20 150 121 c 0,2,3
 91 185 91 185 66 265 c 1,4,-1
 262 356 l 1,5,6
 289 282 289 282 339 232 c 128,-1,7
 389 182 389 182 464 182 c 0,8,9
 538 182 538 182 575 201 c 0,10,11
 648 239 648 239 648 297 c 256,12,13
 648 355 648 355 603 379.5 c 128,-1,14
 558 404 558 404 458 430 c 128,-1,15
 358 456 358 456 292 486 c 0,16,17
 118 564 118 564 118 734 c 0,18,19
 118 845 118 845 171.5 916 c 128,-1,20
 225 987 225 987 309 1020.5 c 128,-1,21
 393 1054 393 1054 504 1054 c 256,22,23
 615 1054 615 1054 712 992 c 128,-1,24
 809 930 809 930 864 833 c 1,25,-1
 707 732 l 1,26,27
 638 861 638 861 485 861 c 0,28,29
 423 861 423 861 387.5 838 c 128,-1,30
 352 815 352 815 352 775 c 256,31,32
 352 735 352 735 402.5 712.5 c 128,-1,33
 453 690 453 690 551.5 662 c 128,-1,34
 650 634 650 634 718.5 602 c 128,-1,35
 787 570 787 570 837.5 504 c 128,-1,36
 888 438 888 438 888 338 c 256,37,38
 888 238 888 238 853.5 172 c 128,-1,39
 819 106 819 106 762 63 c 0,40,41
 650 -20 650 -20 491 -20 c 0,0,1
EndSplineSet
Substitution2: "'hist' Historical Forms lookup 20 subtable" longs
Substitution2: "'aalt' Access All Alternates lookup 0 subtable" longs
EndChar

StartChar: t
Encoding: 116 116 87
Width: 770
GlyphClass: 1
Flags: W
LayerCount: 2
Fore
SplineSet
514 -20 m 0,0,1
 362 -20 362 -20 277.5 64.5 c 128,-1,2
 193 149 193 149 193 291 c 2,3,-1
 193 835 l 1,4,-1
 26 835 l 1,5,-1
 26 1039 l 1,6,-1
 197 1039 l 1,7,-1
 197 1263 l 1,8,-1
 427 1421 l 1,9,-1
 427 1039 l 1,10,-1
 698 1039 l 1,11,-1
 698 835 l 1,12,-1
 427 835 l 1,13,-1
 427 327 l 2,14,15
 427 195 427 195 553 195 c 0,16,17
 624 195 624 195 698 233 c 1,18,-1
 698 10 l 1,19,20
 666 -2 666 -2 615.5 -11 c 128,-1,21
 565 -20 565 -20 514 -20 c 0,0,1
EndSplineSet
EndChar

StartChar: u
Encoding: 117 117 88
Width: 1183
GlyphClass: 1
Flags: W
LayerCount: 2
Fore
SplineSet
499 -23 m 0,0,1
 371 -23 371 -23 286 40 c 0,2,3
 198 109 198 109 159 212 c 128,-1,4
 120 315 120 315 120 429 c 2,5,-1
 120 1039 l 1,6,-1
 367 1039 l 1,7,-1
 367 435 l 2,8,9
 367 327 367 327 407.5 268 c 128,-1,10
 448 209 448 209 555 209 c 0,11,12
 661 209 661 209 728 277.5 c 128,-1,13
 795 346 795 346 795 523 c 2,14,-1
 795 1039 l 1,15,-1
 1043 1039 l 1,16,-1
 1043 0 l 1,17,-1
 795 0 l 1,18,-1
 795 117 l 1,19,20
 737 45 737 45 659 11 c 128,-1,21
 581 -23 581 -23 499 -23 c 0,0,1
EndSplineSet
EndChar

StartChar: v
Encoding: 118 118 89
Width: 1039
GlyphClass: 1
Flags: W
LayerCount: 2
Fore
SplineSet
624 0 m 1,0,-1
 415 0 l 1,1,-1
 -8 1039 l 1,2,-1
 268 1039 l 1,3,-1
 520 328 l 1,4,-1
 773 1039 l 1,5,-1
 1048 1039 l 1,6,-1
 624 0 l 1,0,-1
EndSplineSet
EndChar

StartChar: w
Encoding: 119 119 90
Width: 1523
GlyphClass: 1
Flags: W
LayerCount: 2
Fore
SplineSet
558 -4 m 1,0,-1
 330 -4 l 1,1,-1
 10 1039 l 1,2,-1
 281 1039 l 1,3,-1
 458 388 l 1,4,-1
 654 1039 l 1,5,-1
 872 1039 l 1,6,-1
 1067 390 l 1,7,-1
 1246 1039 l 1,8,-1
 1516 1039 l 1,9,-1
 1195 0 l 1,10,-1
 967 0 l 1,11,-1
 762 681 l 1,12,-1
 558 -4 l 1,0,-1
EndSplineSet
EndChar

StartChar: x
Encoding: 120 120 91
Width: 1070
GlyphClass: 1
Flags: W
LayerCount: 2
Fore
SplineSet
1061 0 m 1,0,-1
 750 0 l 1,1,-1
 535 349 l 1,2,-1
 319 0 l 1,3,-1
 10 0 l 1,4,-1
 366 524 l 1,5,-1
 10 1039 l 1,6,-1
 319 1039 l 1,7,-1
 535 697 l 1,8,-1
 750 1039 l 1,9,-1
 1061 1039 l 1,10,-1
 703 524 l 1,11,-1
 1061 0 l 1,0,-1
EndSplineSet
EndChar

StartChar: y
Encoding: 121 121 92
Width: 1073
GlyphClass: 1
Flags: W
LayerCount: 2
Fore
SplineSet
486 -430 m 1,0,-1
 209 -430 l 1,1,-1
 400 40 l 1,2,-1
 -6 1039 l 1,3,-1
 272 1039 l 1,4,-1
 535 326 l 1,5,-1
 801 1039 l 1,6,-1
 1080 1039 l 1,7,-1
 486 -430 l 1,0,-1
EndSplineSet
EndChar

StartChar: z
Encoding: 122 122 93
Width: 1039
GlyphClass: 1
Flags: W
LayerCount: 2
Fore
SplineSet
971 0 m 1,0,-1
 55 0 l 1,1,-1
 55 162 l 1,2,-1
 643 835 l 1,3,-1
 85 835 l 1,4,-1
 85 1039 l 1,5,-1
 971 1039 l 1,6,-1
 971 865 l 1,7,-1
 408 205 l 1,8,-1
 971 205 l 1,9,-1
 971 0 l 1,0,-1
EndSplineSet
EndChar

StartChar: braceleft
Encoding: 123 123 94
Width: 618
GlyphClass: 1
Flags: W
LayerCount: 2
Fore
SplineSet
479 -156 m 1,0,-1
 408 -156 l 2,1,2
 345 -156 345 -156 299.5 -129 c 128,-1,3
 254 -102 254 -102 221 -51 c 0,4,5
 184 5 184 5 184 127 c 2,6,-1
 184 487 l 2,7,8
 184 540 184 540 125 565 c 2,9,-1
 53 594 l 1,10,-1
 53 754 l 1,11,12
 124 778 124 778 154 807.5 c 128,-1,13
 184 837 184 837 184 895 c 2,14,-1
 184 1321 l 2,15,16
 184 1454 184 1454 246.5 1516.5 c 128,-1,17
 309 1579 309 1579 430 1579 c 0,18,19
 513 1579 513 1579 565 1575 c 1,20,-1
 565 1411 l 1,21,22
 539 1417 539 1417 507 1421 c 128,-1,23
 475 1425 475 1425 463 1425 c 0,24,25
 421 1425 421 1425 406 1417.5 c 128,-1,26
 391 1410 391 1410 391 1391 c 2,27,-1
 391 881 l 2,28,29
 391 806 391 806 354.5 755.5 c 128,-1,30
 318 705 318 705 250 668 c 1,31,32
 313 639 313 639 352 594 c 128,-1,33
 391 549 391 549 391 492 c 2,34,-1
 391 131 l 2,35,36
 391 2 391 2 492 2 c 0,37,38
 522 2 522 2 565 12 c 1,39,-1
 565 -152 l 1,40,41
 555 -152 555 -152 528 -154 c 2,42,-1
 479 -156 l 1,0,-1
EndSplineSet
EndChar

StartChar: bar
Encoding: 124 124 95
Width: 623
GlyphClass: 1
Flags: W
LayerCount: 2
Fore
SplineSet
401 -512 m 1,0,-1
 221 -512 l 1,1,-1
 221 1534 l 1,2,-1
 401 1534 l 1,3,-1
 401 -512 l 1,0,-1
EndSplineSet
EndChar

StartChar: braceright
Encoding: 125 125 96
Width: 618
GlyphClass: 1
Flags: W
LayerCount: 2
Fore
SplineSet
211 -156 m 2,0,-1
 139 -156 l 2,1,2
 126 -156 126 -156 96.5 -154 c 128,-1,3
 67 -152 67 -152 53 -152 c 1,4,-1
 53 12 l 1,5,6
 98 2 98 2 127 2 c 0,7,8
 182 2 182 2 204.5 36.5 c 128,-1,9
 227 71 227 71 227 131 c 2,10,-1
 227 492 l 2,11,12
 227 547 227 547 266 592 c 128,-1,13
 305 637 305 637 369 668 c 1,14,15
 300 703 300 703 263.5 754 c 128,-1,16
 227 805 227 805 227 881 c 2,17,-1
 227 1391 l 2,18,19
 227 1410 227 1410 212.5 1417.5 c 128,-1,20
 198 1425 198 1425 156 1425 c 0,21,22
 143 1425 143 1425 111 1421 c 128,-1,23
 79 1417 79 1417 53 1411 c 1,24,-1
 53 1575 l 1,25,26
 107 1579 107 1579 188 1579 c 0,27,28
 309 1579 309 1579 371.5 1516.5 c 128,-1,29
 434 1454 434 1454 434 1321 c 2,30,-1
 434 895 l 2,31,32
 434 836 434 836 464.5 807 c 128,-1,33
 495 778 495 778 565 754 c 1,34,-1
 565 594 l 1,35,-1
 518 576 l 2,36,37
 434 544 434 544 434 487 c 2,38,-1
 434 127 l 2,39,40
 434 0 434 0 397 -51 c 0,41,42
 330 -156 330 -156 211 -156 c 2,0,-1
EndSplineSet
EndChar

StartChar: asciitilde
Encoding: 126 126 97
Width: 1157
GlyphClass: 1
Flags: W
LayerCount: 2
Fore
SplineSet
735 379 m 0,0,1
 663 379 663 379 609 396 c 128,-1,2
 555 413 555 413 498 446 c 0,3,4
 463 465 463 465 442.5 473 c 128,-1,5
 422 481 422 481 401 481 c 0,6,7
 363 481 363 481 352.5 466 c 128,-1,8
 342 451 342 451 342 406 c 1,9,-1
 172 406 l 1,10,11
 172 535 172 535 234 593 c 128,-1,12
 296 651 296 651 399 651 c 0,13,14
 484 651 484 651 541.5 633.5 c 128,-1,15
 599 616 599 616 657 584 c 0,16,17
 687 568 687 568 705 560.5 c 128,-1,18
 723 553 723 553 741 553 c 0,19,20
 782 553 782 553 794.5 571.5 c 128,-1,21
 807 590 807 590 807 645 c 1,22,-1
 985 645 l 1,23,24
 985 379 985 379 735 379 c 0,0,1
EndSplineSet
EndChar

StartChar: exclamdown
Encoding: 161 161 99
Width: 635
GlyphClass: 1
Flags: W
LayerCount: 2
Fore
SplineSet
451 735 m 1,0,-1
 184 735 l 1,1,-1
 184 999 l 1,2,-1
 451 999 l 1,3,-1
 451 735 l 1,0,-1
438 -434 m 1,4,-1
 197 -434 l 1,5,-1
 225 571 l 1,6,-1
 410 571 l 1,7,-1
 438 -434 l 1,4,-1
EndSplineSet
EndChar

StartChar: cent
Encoding: 162 162 100
Width: 1116
GlyphClass: 1
Flags: W
LayerCount: 2
Fore
SplineSet
674 -205 m 1,0,-1
 494 -205 l 1,1,-1
 494 -20 l 1,2,3
 365 5 365 5 281 80.5 c 128,-1,4
 197 156 197 156 156 265.5 c 128,-1,5
 115 375 115 375 115 498 c 0,6,7
 115 615 115 615 155 724.5 c 128,-1,8
 195 834 195 834 279 912 c 128,-1,9
 363 990 363 990 494 1016 c 1,10,-1
 494 1200 l 1,11,-1
 674 1200 l 1,12,-1
 674 1016 l 1,13,14
 908 982 908 982 1022 723 c 1,15,-1
 805 639 l 1,16,17
 777 737 777 737 724 780 c 128,-1,18
 671 823 671 823 586 823 c 256,19,20
 501 823 501 823 447 778 c 128,-1,21
 393 733 393 733 367.5 659.5 c 128,-1,22
 342 586 342 586 342 498 c 0,23,24
 342 358 342 358 401.5 265 c 128,-1,25
 461 172 461 172 586 172 c 0,26,27
 672 172 672 172 724.5 216 c 128,-1,28
 777 260 777 260 805 356 c 1,29,-1
 1008 276 l 1,30,31
 918 21 918 21 674 -20 c 1,32,-1
 674 -205 l 1,0,-1
EndSplineSet
EndChar

StartChar: sterling
Encoding: 163 163 101
Width: 1200
GlyphClass: 1
Flags: W
LayerCount: 2
Fore
SplineSet
1178 0 m 1,0,-1
 137 0 l 1,1,-1
 137 207 l 1,2,3
 144 207 144 207 206 243 c 0,4,5
 383 349 383 349 383 475 c 0,6,7
 383 523 383 523 362 604 c 1,8,-1
 141 604 l 1,9,-1
 141 809 l 1,10,-1
 313 809 l 1,11,12
 312 809 312 809 303 841 c 0,13,14
 276 926 276 926 276 1036 c 0,15,16
 276 1152 276 1152 326.5 1244.5 c 128,-1,17
 377 1337 377 1337 474.5 1391.5 c 128,-1,18
 572 1446 572 1446 707 1446 c 0,19,20
 805 1446 805 1446 886 1404.5 c 128,-1,21
 967 1363 967 1363 1024.5 1292.5 c 128,-1,22
 1082 1222 1082 1222 1112 1135 c 1,23,-1
 922 1065 l 1,24,25
 891 1148 891 1148 835 1194.5 c 128,-1,26
 779 1241 779 1241 707 1241 c 0,27,28
 598 1241 598 1241 539.5 1189 c 128,-1,29
 481 1137 481 1137 481 1032 c 0,30,31
 481 977 481 977 490.5 927.5 c 128,-1,32
 500 878 500 878 511.5 843.5 c 128,-1,33
 523 809 523 809 524 809 c 2,34,-1
 1001 809 l 1,35,-1
 1001 604 l 1,36,-1
 571 604 l 1,37,38
 584 530 584 530 584 479 c 0,39,40
 584 313 584 313 493 231 c 0,41,42
 468 209 468 209 461 205 c 1,43,-1
 1178 205 l 1,44,-1
 1178 0 l 1,0,-1
EndSplineSet
EndChar

StartChar: currency
Encoding: 164 164 102
Width: 1348
GlyphClass: 1
Flags: W
LayerCount: 2
Fore
SplineSet
1044 129 m 1,0,-1
 936 238 l 1,1,2
 810 156 810 156 673 156 c 0,3,4
 538 156 538 156 410 238 c 1,5,-1
 303 129 l 1,6,-1
 174 264 l 1,7,-1
 281 369 l 1,8,9
 240 428 240 428 220 495 c 128,-1,10
 200 562 200 562 200 629 c 0,11,12
 200 775 200 775 281 893 c 1,13,-1
 176 995 l 1,14,-1
 305 1130 l 1,15,-1
 412 1022 l 1,16,17
 529 1104 529 1104 678 1104 c 0,18,19
 821 1104 821 1104 936 1024 c 1,20,-1
 1042 1128 l 1,21,-1
 1174 999 l 1,22,-1
 1067 895 l 1,23,24
 1149 778 1149 778 1149 631 c 0,25,26
 1149 486 1149 486 1067 367 c 1,27,-1
 1174 264 l 1,28,-1
 1044 129 l 1,0,-1
673 338 m 0,29,30
 792 338 792 338 878 425 c 128,-1,31
 964 512 964 512 964 633 c 0,32,33
 964 752 964 752 878.5 836 c 128,-1,34
 793 920 793 920 674 920 c 0,35,36
 589 920 589 920 515 872.5 c 128,-1,37
 441 825 441 825 405 738 c 0,38,39
 383 684 383 684 383 627 c 0,40,41
 383 572 383 572 403.5 520 c 128,-1,42
 424 468 424 468 465 426 c 0,43,44
 556 338 556 338 673 338 c 0,29,30
EndSplineSet
EndChar

StartChar: yen
Encoding: 165 165 103
Width: 1323
GlyphClass: 1
Flags: W
LayerCount: 2
Fore
SplineSet
766 0 m 1,0,-1
 557 0 l 1,1,-1
 557 195 l 1,2,-1
 258 195 l 1,3,-1
 258 379 l 1,4,-1
 557 379 l 1,5,-1
 557 496 l 1,6,-1
 258 496 l 1,7,-1
 258 682 l 1,8,-1
 471 682 l 1,9,-1
 -2 1413 l 1,10,-1
 248 1413 l 1,11,-1
 662 743 l 1,12,-1
 1075 1413 l 1,13,-1
 1325 1413 l 1,14,-1
 852 680 l 1,15,-1
 1065 680 l 1,16,-1
 1065 496 l 1,17,-1
 766 496 l 1,18,-1
 766 379 l 1,19,-1
 1065 379 l 1,20,-1
 1065 195 l 1,21,-1
 766 195 l 1,22,-1
 766 0 l 1,0,-1
EndSplineSet
EndChar

StartChar: brokenbar
Encoding: 166 166 104
Width: 643
GlyphClass: 1
Flags: W
LayerCount: 2
Fore
SplineSet
422 731 m 1,0,-1
 221 731 l 1,1,-1
 221 1475 l 1,2,-1
 422 1475 l 1,3,-1
 422 731 l 1,0,-1
422 -307 m 1,4,-1
 221 -307 l 1,5,-1
 221 420 l 1,6,-1
 422 420 l 1,7,-1
 422 -307 l 1,4,-1
EndSplineSet
EndChar

StartChar: section
Encoding: 167 167 105
Width: 1112
GlyphClass: 1
Flags: W
LayerCount: 2
Fore
SplineSet
561 -18 m 0,0,1
 458 -18 458 -18 365.5 12.5 c 128,-1,2
 273 43 273 43 209 108.5 c 128,-1,3
 145 174 145 174 123 276 c 1,4,-1
 356 346 l 1,5,6
 374 261 374 261 426.5 219.5 c 128,-1,7
 479 178 479 178 578 178 c 0,8,9
 660 178 660 178 714 205.5 c 128,-1,10
 768 233 768 233 768 291 c 0,11,12
 768 334 768 334 737.5 360.5 c 128,-1,13
 707 387 707 387 660.5 401.5 c 128,-1,14
 614 416 614 416 532 434 c 0,15,16
 414 459 414 459 341.5 488.5 c 128,-1,17
 269 518 269 518 222 572 c 0,18,19
 170 629 170 629 170 727 c 0,20,21
 170 840 170 840 256 934 c 1,22,23
 172 1010 172 1010 172 1124 c 0,24,25
 172 1225 172 1225 228 1294 c 128,-1,26
 284 1363 284 1363 373 1398.5 c 128,-1,27
 462 1434 462 1434 561 1434 c 0,28,29
 697 1434 697 1434 797 1378.5 c 128,-1,30
 897 1323 897 1323 940 1243 c 1,31,-1
 745 1130 l 1,32,33
 728 1182 728 1182 679 1213.5 c 128,-1,34
 630 1245 630 1245 553 1245 c 0,35,36
 493 1245 493 1245 453.5 1226.5 c 128,-1,37
 414 1208 414 1208 394.5 1179 c 128,-1,38
 375 1150 375 1150 375 1120 c 0,39,40
 375 1081 375 1081 404 1058 c 128,-1,41
 433 1035 433 1035 477 1022 c 128,-1,42
 521 1009 521 1009 598 993 c 0,43,44
 716 967 716 967 790.5 940 c 128,-1,45
 865 913 865 913 919 852.5 c 128,-1,46
 973 792 973 792 973 688 c 0,47,48
 973 570 973 570 893 483 c 1,49,50
 973 409 973 409 973 291 c 0,51,52
 973 185 973 185 914 116 c 0,53,54
 850 44 850 44 756 13 c 128,-1,55
 662 -18 662 -18 561 -18 c 0,0,1
684 571 m 1,56,57
 725 586 725 586 746.5 615.5 c 128,-1,58
 768 645 768 645 768 682 c 0,59,60
 768 773 768 773 645 810 c 0,61,62
 582 830 582 830 457 858 c 1,63,64
 415 837 415 837 395 802.5 c 128,-1,65
 375 768 375 768 375 735 c 0,66,67
 375 655 375 655 495 619 c 0,68,69
 556 599 556 599 684 571 c 1,56,57
EndSplineSet
EndChar

StartChar: copyright
Encoding: 169 169 107
Width: 1739
GlyphClass: 1
Flags: W
LayerCount: 2
Fore
SplineSet
870 -49 m 0,0,1
 721 -49 721 -49 591 -1 c 128,-1,2
 461 47 461 47 358.5 131.5 c 128,-1,3
 256 216 256 216 188 328 c 0,4,5
 82 501 82 501 82 707 c 0,6,7
 82 850 82 850 132.5 974.5 c 128,-1,8
 183 1099 183 1099 271 1197 c 128,-1,9
 359 1295 359 1295 475 1361 c 0,10,11
 656 1462 656 1462 870 1462 c 0,12,13
 1019 1462 1019 1462 1149 1414 c 128,-1,14
 1279 1366 1279 1366 1381 1281.5 c 128,-1,15
 1483 1197 1483 1197 1551 1086 c 0,16,17
 1657 912 1657 912 1657 707 c 0,18,19
 1657 563 1657 563 1607 438.5 c 128,-1,20
 1557 314 1557 314 1468.5 216 c 128,-1,21
 1380 118 1380 118 1265 53 c 0,22,23
 1084 -49 1084 -49 870 -49 c 0,0,1
870 139 m 0,24,25
 1037 139 1037 139 1172 218.5 c 128,-1,26
 1307 298 1307 298 1387 425 c 0,27,28
 1468 556 1468 556 1468 707 c 0,29,30
 1468 865 1468 865 1384.5 993 c 128,-1,31
 1301 1121 1301 1121 1167 1197 c 0,32,33
 1029 1274 1029 1274 870 1274 c 0,34,35
 702 1274 702 1274 567.5 1194.5 c 128,-1,36
 433 1115 433 1115 354 989 c 0,37,38
 272 858 272 858 272 707 c 0,39,40
 272 549 272 549 355.5 420.5 c 128,-1,41
 439 292 439 292 573 217 c 0,42,43
 710 139 710 139 870 139 c 0,24,25
887 264 m 0,44,45
 757 264 757 264 671 325 c 128,-1,46
 585 386 585 386 541.5 486.5 c 128,-1,47
 498 587 498 587 498 705 c 0,48,49
 498 791 498 791 521.5 870 c 128,-1,50
 545 949 545 949 593 1010.5 c 128,-1,51
 641 1072 641 1072 714.5 1108.5 c 128,-1,52
 788 1145 788 1145 887 1145 c 0,53,54
 1007 1145 1007 1145 1094.5 1086.5 c 128,-1,55
 1182 1028 1182 1028 1241 901 c 1,56,-1
 1067 827 l 1,57,58
 1034 897 1034 897 993 925.5 c 128,-1,59
 952 954 952 954 887 954 c 0,60,61
 816 954 816 954 771 921 c 128,-1,62
 726 888 726 888 705 832 c 128,-1,63
 684 776 684 776 684 705 c 256,64,65
 684 634 684 634 704.5 578 c 128,-1,66
 725 522 725 522 769.5 489.5 c 128,-1,67
 814 457 814 457 885 457 c 0,68,69
 952 457 952 457 992 486 c 128,-1,70
 1032 515 1032 515 1065 584 c 1,71,-1
 1241 510 l 1,72,73
 1181 380 1181 380 1093.5 322 c 128,-1,74
 1006 264 1006 264 887 264 c 0,44,45
EndSplineSet
EndChar

StartChar: ordfeminine
Encoding: 170 170 108
Width: 954
GlyphClass: 2
Flags: W
LayerCount: 2
Fore
SplineSet
393 709 m 0,0,1
 326 709 326 709 270 736 c 128,-1,2
 214 763 214 763 179.5 812 c 128,-1,3
 145 861 145 861 145 928 c 0,4,5
 145 1039 145 1039 222 1093 c 128,-1,6
 299 1147 299 1147 424 1147 c 2,7,-1
 618 1147 l 1,8,9
 615 1226 615 1226 576.5 1262 c 128,-1,10
 538 1298 538 1298 463 1298 c 0,11,12
 359 1298 359 1298 285 1192 c 1,13,-1
 166 1272 l 1,14,15
 229 1359 229 1359 300 1396.5 c 128,-1,16
 371 1434 371 1434 467 1434 c 0,17,18
 609 1434 609 1434 685.5 1354.5 c 128,-1,19
 762 1275 762 1275 762 1149 c 2,20,-1
 762 723 l 1,21,-1
 629 723 l 1,22,-1
 625 807 l 1,23,24
 543 709 543 709 393 709 c 0,0,1
420 846 m 0,25,26
 474 846 474 846 516.5 871 c 128,-1,27
 559 896 559 896 585.5 934 c 128,-1,28
 612 972 612 972 618 1014 c 1,29,-1
 434 1014 l 2,30,31
 376 1014 376 1014 340.5 991.5 c 128,-1,32
 305 969 305 969 305 928 c 0,33,34
 305 894 305 894 341.5 870 c 128,-1,35
 378 846 378 846 420 846 c 0,25,26
EndSplineSet
EndChar

StartChar: guillemotleft
Encoding: 171 171 109
Width: 954
GlyphClass: 1
Flags: W
LayerCount: 2
Fore
SplineSet
444 156 m 1,0,-1
 16 510 l 1,1,-1
 444 866 l 1,2,-1
 444 655 l 1,3,-1
 264 510 l 1,4,-1
 444 367 l 1,5,-1
 444 156 l 1,0,-1
807 156 m 1,6,-1
 379 510 l 1,7,-1
 807 866 l 1,8,-1
 807 655 l 1,9,-1
 627 510 l 1,10,-1
 807 367 l 1,11,-1
 807 156 l 1,6,-1
EndSplineSet
EndChar

StartChar: logicalnot
Encoding: 172 172 110
Width: 1300
GlyphClass: 1
Flags: W
LayerCount: 2
Fore
SplineSet
1083 291 m 1,0,-1
 850 291 l 1,1,-1
 850 580 l 1,2,-1
 135 580 l 1,3,-1
 135 797 l 1,4,-1
 1083 797 l 1,5,-1
 1083 291 l 1,0,-1
EndSplineSet
EndChar

StartChar: uni00AD
Encoding: 173 173 111
Width: 1010
GlyphClass: 1
Flags: W
LayerCount: 2
Fore
SplineSet
868 508 m 1,0,-1
 141 508 l 1,1,-1
 141 692 l 1,2,-1
 868 692 l 1,3,-1
 868 508 l 1,0,-1
EndSplineSet
EndChar

StartChar: registered
Encoding: 174 174 112
Width: 1739
GlyphClass: 1
Flags: W
LayerCount: 2
Fore
SplineSet
870 -47 m 0,0,1
 721 -47 721 -47 591 1 c 128,-1,2
 461 49 461 49 358.5 133.5 c 128,-1,3
 256 218 256 218 188 330 c 0,4,5
 82 503 82 503 82 709 c 0,6,7
 82 852 82 852 132.5 976.5 c 128,-1,8
 183 1101 183 1101 271 1199 c 128,-1,9
 359 1297 359 1297 475 1363 c 0,10,11
 656 1464 656 1464 870 1464 c 0,12,13
 1019 1464 1019 1464 1149 1416 c 128,-1,14
 1279 1368 1279 1368 1381 1283.5 c 128,-1,15
 1483 1199 1483 1199 1551 1088 c 0,16,17
 1657 914 1657 914 1657 709 c 0,18,19
 1657 565 1657 565 1607 440.5 c 128,-1,20
 1557 316 1557 316 1468.5 218 c 128,-1,21
 1380 120 1380 120 1265 55 c 0,22,23
 1084 -47 1084 -47 870 -47 c 0,0,1
870 133 m 0,24,25
 1040 133 1040 133 1177 213.5 c 128,-1,26
 1314 294 1314 294 1395 423 c 0,27,28
 1477 555 1477 555 1477 709 c 0,29,30
 1477 870 1477 870 1392.5 999.5 c 128,-1,31
 1308 1129 1308 1129 1172 1206 c 0,32,33
 1032 1284 1032 1284 870 1284 c 0,34,35
 699 1284 699 1284 562.5 1203.5 c 128,-1,36
 426 1123 426 1123 345 995 c 0,37,38
 262 863 262 863 262 709 c 0,39,40
 262 601 262 601 301.5 506.5 c 128,-1,41
 341 412 341 412 409.5 337 c 128,-1,42
 478 262 478 262 568 212 c 0,43,44
 707 133 707 133 870 133 c 0,24,25
1266 289 m 1,45,-1
 1055 289 l 1,46,-1
 883 604 l 1,47,-1
 786 604 l 1,48,-1
 786 289 l 1,49,-1
 602 289 l 1,50,-1
 602 1114 l 1,51,-1
 924 1114 l 2,52,53
 1067 1114 1067 1114 1137.5 1044.5 c 128,-1,54
 1208 975 1208 975 1208 860 c 0,55,56
 1208 770 1208 770 1168 713.5 c 128,-1,57
 1128 657 1128 657 1067 631 c 1,58,-1
 1266 289 l 1,45,-1
924 778 m 2,59,60
 984 778 984 778 1009 796.5 c 128,-1,61
 1034 815 1034 815 1034 860 c 0,62,63
 1034 907 1034 907 1010 923.5 c 128,-1,64
 986 940 986 940 924 940 c 2,65,-1
 776 940 l 1,66,-1
 776 778 l 1,67,-1
 924 778 l 2,59,60
EndSplineSet
EndChar

StartChar: degree
Encoding: 176 176 114
Width: 877
GlyphClass: 1
Flags: W
LayerCount: 2
Fore
SplineSet
438 848 m 0,0,1
 353 848 353 848 287 889.5 c 128,-1,2
 221 931 221 931 183 998 c 128,-1,3
 145 1065 145 1065 145 1141 c 0,4,5
 145 1226 145 1226 187 1292.5 c 128,-1,6
 229 1359 229 1359 296 1396.5 c 128,-1,7
 363 1434 363 1434 438 1434 c 0,8,9
 523 1434 523 1434 589 1393 c 128,-1,10
 655 1352 655 1352 693 1285.5 c 128,-1,11
 731 1219 731 1219 731 1141 c 0,12,13
 731 1056 731 1056 690 990 c 128,-1,14
 649 924 649 924 582.5 886 c 128,-1,15
 516 848 516 848 438 848 c 0,0,1
438 1012 m 0,16,17
 493 1012 493 1012 531 1049.5 c 128,-1,18
 569 1087 569 1087 569 1141 c 0,19,20
 569 1197 569 1197 529.5 1233.5 c 128,-1,21
 490 1270 490 1270 438 1270 c 0,22,23
 383 1270 383 1270 346 1231 c 128,-1,24
 309 1192 309 1192 309 1141 c 0,25,26
 309 1084 309 1084 348.5 1048 c 128,-1,27
 388 1012 388 1012 438 1012 c 0,16,17
EndSplineSet
EndChar

StartChar: plusminus
Encoding: 177 177 115
Width: 1331
GlyphClass: 1
Flags: W
LayerCount: 2
Fore
SplineSet
758 106 m 1,0,-1
 573 106 l 1,1,-1
 573 532 l 1,2,-1
 117 532 l 1,3,-1
 117 717 l 1,4,-1
 573 717 l 1,5,-1
 573 1143 l 1,6,-1
 758 1143 l 1,7,-1
 758 717 l 1,8,-1
 1214 717 l 1,9,-1
 1214 532 l 1,10,-1
 758 532 l 1,11,-1
 758 106 l 1,0,-1
1212 -184 m 1,12,-1
 119 -184 l 1,13,-1
 119 0 l 1,14,-1
 1212 0 l 1,15,-1
 1212 -184 l 1,12,-1
EndSplineSet
EndChar

StartChar: twosuperior
Encoding: 178 178 116
Width: 835
GlyphClass: 2
Flags: W
LayerCount: 2
Fore
SplineSet
788 486 m 1,0,-1
 31 486 l 1,1,-1
 31 617 l 2,2,3
 34 618 34 618 87.5 650 c 128,-1,4
 141 682 141 682 235 747 c 0,5,6
 322 809 322 809 393.5 873 c 128,-1,7
 465 937 465 937 508 1003 c 128,-1,8
 551 1069 551 1069 551 1137 c 0,9,10
 551 1193 551 1193 519 1231.5 c 128,-1,11
 487 1270 487 1270 418 1270 c 0,12,13
 334 1270 334 1270 295.5 1214.5 c 128,-1,14
 257 1159 257 1159 254 1079 c 1,15,-1
 68 1089 l 1,16,17
 68 1176 68 1176 108 1257 c 128,-1,18
 148 1338 148 1338 232 1392 c 0,19,20
 312 1441 312 1441 418 1441 c 0,21,22
 516 1441 516 1441 588.5 1404 c 128,-1,23
 661 1367 661 1367 701.5 1305 c 128,-1,24
 742 1243 742 1243 742 1169 c 0,25,26
 742 995 742 995 514 791 c 0,27,28
 411 703 411 703 330 658 c 1,29,-1
 788 658 l 1,30,-1
 788 486 l 1,0,-1
EndSplineSet
EndChar

StartChar: threesuperior
Encoding: 179 179 117
Width: 868
GlyphClass: 2
Flags: W
LayerCount: 2
Fore
SplineSet
424 462 m 0,0,1
 322 462 322 462 233 496.5 c 128,-1,2
 144 531 144 531 89 602 c 128,-1,3
 34 673 34 673 34 783 c 1,4,-1
 216 792 l 1,5,6
 216 719 216 719 276 678.5 c 128,-1,7
 336 638 336 638 425 638 c 0,8,9
 480 638 480 638 526 653.5 c 128,-1,10
 572 669 572 669 600 699.5 c 128,-1,11
 628 730 628 730 628 776 c 0,12,13
 628 836 628 836 581 870.5 c 128,-1,14
 534 905 534 905 451 905 c 2,15,-1
 332 905 l 1,16,-1
 332 1066 l 1,17,-1
 450 1066 l 2,18,19
 513 1066 513 1066 541.5 1094.5 c 128,-1,20
 570 1123 570 1123 570 1165 c 0,21,22
 570 1220 570 1220 527.5 1247 c 128,-1,23
 485 1274 485 1274 423 1274 c 0,24,25
 356 1274 356 1274 311.5 1242.5 c 128,-1,26
 267 1211 267 1211 265 1152 c 1,27,-1
 86 1162 l 1,28,29
 86 1254 86 1254 132 1319 c 128,-1,30
 178 1384 178 1384 253.5 1418 c 128,-1,31
 329 1452 329 1452 419 1452 c 0,32,33
 504 1452 504 1452 580.5 1421 c 128,-1,34
 657 1390 657 1390 705 1331.5 c 128,-1,35
 753 1273 753 1273 753 1190 c 0,36,37
 753 1075 753 1075 660 999 c 1,38,39
 807 922 807 922 810 763 c 0,40,41
 810 663 810 663 756.5 596 c 128,-1,42
 703 529 703 529 615 495.5 c 128,-1,43
 527 462 527 462 424 462 c 0,0,1
EndSplineSet
EndChar

StartChar: uni00B5
Encoding: 181 181 119
Width: 1311
GlyphClass: 1
Flags: W
LayerCount: 2
Fore
SplineSet
433 -266 m 1,0,-1
 228 -266 l 1,1,-1
 228 1039 l 1,2,-1
 455 1039 l 1,3,-1
 455 429 l 2,4,5
 455 318 455 318 494.5 253 c 128,-1,6
 534 188 534 188 632 188 c 0,7,8
 711 188 711 188 772.5 227 c 128,-1,9
 834 266 834 266 869.5 327 c 128,-1,10
 905 388 905 388 905 455 c 2,11,-1
 905 1039 l 1,12,-1
 1132 1039 l 1,13,-1
 1132 0 l 1,14,-1
 905 0 l 1,15,-1
 905 98 l 1,16,17
 852 46 852 46 777.5 11.5 c 128,-1,18
 703 -23 703 -23 615 -23 c 0,19,20
 524 -23 524 -23 451 8 c 1,21,-1
 433 -266 l 1,0,-1
EndSplineSet
EndChar

StartChar: paragraph
Encoding: 182 182 120
Width: 1262
GlyphClass: 1
Flags: W
LayerCount: 2
Fore
SplineSet
688 -246 m 1,0,-1
 518 -246 l 1,1,-1
 518 623 l 1,2,3
 404 623 404 623 300.5 668.5 c 128,-1,4
 197 714 197 714 129 808 c 0,5,6
 66 898 66 898 66 1018 c 0,7,8
 66 1143 66 1143 130.5 1231.5 c 128,-1,9
 195 1320 195 1320 298 1366.5 c 128,-1,10
 401 1413 401 1413 518 1413 c 2,11,-1
 688 1413 l 1,12,-1
 688 -246 l 1,0,-1
1040 -246 m 1,13,-1
 868 -246 l 1,14,-1
 868 1413 l 1,15,-1
 1040 1413 l 1,16,-1
 1040 -246 l 1,13,-1
EndSplineSet
EndChar

StartChar: periodcentered
Encoding: 183 183 121
Width: 616
GlyphClass: 1
Flags: W
LayerCount: 2
Fore
SplineSet
307 651 m 256,0,1
 244 651 244 651 202 695.5 c 128,-1,2
 160 740 160 740 160 801 c 0,3,4
 160 863 160 863 203 905.5 c 128,-1,5
 246 948 246 948 307 948 c 0,6,7
 370 948 370 948 413.5 905 c 128,-1,8
 457 862 457 862 457 801 c 0,9,10
 457 741 457 741 413.5 696 c 128,-1,11
 370 651 370 651 307 651 c 256,0,1
EndSplineSet
EndChar

StartChar: cedilla
Encoding: 184 184 122
Width: 561
GlyphClass: 4
Flags: W
AnchorPoint: "Anchor-3" 277 -500 basemark 0
LayerCount: 2
Fore
SplineSet
256 -522 m 0,0,1
 191 -522 191 -522 137.5 -485.5 c 128,-1,2
 84 -449 84 -449 59 -393 c 1,3,-1
 195 -336 l 1,4,5
 203 -356 203 -356 220.5 -369.5 c 128,-1,6
 238 -383 238 -383 262 -383 c 0,7,8
 297 -383 297 -383 319.5 -361 c 128,-1,9
 342 -339 342 -339 342 -305 c 0,10,11
 342 -256 342 -256 294.5 -225.5 c 128,-1,12
 247 -195 247 -195 174 -195 c 2,13,-1
 104 -195 l 1,14,-1
 227 -2 l 1,15,-1
 371 -2 l 1,16,-1
 295 -100 l 1,17,18
 391 -114 391 -114 438 -166.5 c 128,-1,19
 485 -219 485 -219 485 -297 c 0,20,21
 485 -398 485 -398 417 -460 c 128,-1,22
 349 -522 349 -522 256 -522 c 0,0,1
EndSplineSet
EndChar

StartChar: onesuperior
Encoding: 185 185 123
Width: 813
GlyphClass: 2
Flags: W
LayerCount: 2
Fore
SplineSet
558 486 m 1,0,-1
 370 486 l 1,1,-1
 370 1160 l 1,2,-1
 121 1160 l 1,3,-1
 121 1305 l 1,4,-1
 276 1305 l 2,5,6
 322 1305 322 1305 349.5 1329 c 128,-1,7
 377 1353 377 1353 377 1403 c 2,8,-1
 377 1428 l 1,9,-1
 558 1428 l 1,10,-1
 558 486 l 1,0,-1
EndSplineSet
EndChar

StartChar: ordmasculine
Encoding: 186 186 124
Width: 991
GlyphClass: 2
Flags: W
LayerCount: 2
Fore
SplineSet
496 711 m 0,0,1
 386 711 386 711 305.5 761.5 c 128,-1,2
 225 812 225 812 181 894.5 c 128,-1,3
 137 977 137 977 137 1073 c 0,4,5
 137 1167 137 1167 180.5 1250.5 c 128,-1,6
 224 1334 224 1334 310 1386 c 0,7,8
 392 1434 392 1434 496 1434 c 0,9,10
 605 1434 605 1434 685 1383.5 c 128,-1,11
 765 1333 765 1333 808.5 1250.5 c 128,-1,12
 852 1168 852 1168 852 1073 c 0,13,14
 852 973 852 973 807 890.5 c 128,-1,15
 762 808 762 808 681.5 759.5 c 128,-1,16
 601 711 601 711 496 711 c 0,0,1
496 856 m 0,17,18
 563 856 563 856 604.5 884.5 c 128,-1,19
 646 913 646 913 665 962 c 128,-1,20
 684 1011 684 1011 684 1073 c 256,21,22
 684 1135 684 1135 665 1184 c 128,-1,23
 646 1233 646 1233 604.5 1261.5 c 128,-1,24
 563 1290 563 1290 496 1290 c 0,25,26
 428 1290 428 1290 385.5 1261.5 c 128,-1,27
 343 1233 343 1233 324 1184 c 128,-1,28
 305 1135 305 1135 305 1073 c 256,29,30
 305 1011 305 1011 324 962 c 128,-1,31
 343 913 343 913 385.5 884.5 c 128,-1,32
 428 856 428 856 496 856 c 0,17,18
EndSplineSet
EndChar

StartChar: guillemotright
Encoding: 187 187 125
Width: 956
GlyphClass: 1
Flags: W
LayerCount: 2
Fore
SplineSet
145 156 m 1,0,-1
 145 367 l 1,1,-1
 326 510 l 1,2,-1
 145 655 l 1,3,-1
 145 866 l 1,4,-1
 573 510 l 1,5,-1
 145 156 l 1,0,-1
508 156 m 1,6,-1
 508 367 l 1,7,-1
 688 510 l 1,8,-1
 508 655 l 1,9,-1
 508 866 l 1,10,-1
 936 510 l 1,11,-1
 508 156 l 1,6,-1
EndSplineSet
EndChar

StartChar: questiondown
Encoding: 191 191 126
Width: 993
GlyphClass: 1
Flags: W
LayerCount: 2
Fore
SplineSet
637 735 m 1,0,-1
 371 735 l 1,1,-1
 371 999 l 1,2,-1
 637 999 l 1,3,-1
 637 735 l 1,0,-1
516 -434 m 0,4,5
 398 -434 398 -434 294.5 -390 c 128,-1,6
 191 -346 191 -346 125 -251 c 0,7,8
 63 -161 63 -161 63 -35 c 0,9,10
 63 146 63 146 175 242 c 0,11,12
 222 281 222 281 293 318 c 0,13,14
 334 340 334 340 355 355 c 0,15,16
 403 390 403 390 403 432 c 2,17,-1
 403 575 l 1,18,-1
 610 575 l 1,19,-1
 610 430 l 2,20,21
 610 279 610 279 521 212 c 0,22,23
 484 183 484 183 423 150 c 0,24,25
 351 115 351 115 313.5 74.5 c 128,-1,26
 276 34 276 34 276 -39 c 0,27,28
 276 -106 276 -106 305.5 -148.5 c 128,-1,29
 335 -191 335 -191 387 -211 c 128,-1,30
 439 -231 439 -231 506 -231 c 0,31,32
 604 -231 604 -231 669 -179.5 c 128,-1,33
 734 -128 734 -128 737 -23 c 1,34,-1
 952 -23 l 1,35,36
 945 -220 945 -220 818.5 -327 c 128,-1,37
 692 -434 692 -434 516 -434 c 0,4,5
EndSplineSet
EndChar

StartChar: Acircumflex
Encoding: 194 194 129
Width: 1343
GlyphClass: 1
Flags: W
LayerCount: 2
Fore
SplineSet
1331 0 m 1,0,-1
 1057 0 l 1,1,-1
 948 307 l 1,2,-1
 399 307 l 1,3,-1
 289 0 l 1,4,-1
 12 0 l 1,5,-1
 578 1413 l 1,6,-1
 768 1413 l 1,7,-1
 1331 0 l 1,0,-1
862 524 m 1,8,-1
 674 1040 l 1,9,-1
 485 524 l 1,10,-1
 862 524 l 1,8,-1
987 1510 m 1,11,-1
 799 1510 l 1,12,-1
 670 1655 l 1,13,-1
 543 1510 l 1,14,-1
 354 1510 l 1,15,-1
 670 1862 l 1,16,-1
 987 1510 l 1,11,-1
EndSplineSet
Position2: "'cpsp' Capital Spacing lookup 0 subtable" dx=5 dy=0 dh=10 dv=0
EndChar

StartChar: Aring
Encoding: 197 197 132
Width: 1343
GlyphClass: 1
Flags: W
LayerCount: 2
Fore
SplineSet
1331 0 m 1,0,-1
 1057 0 l 1,1,-1
 948 307 l 1,2,-1
 399 307 l 1,3,-1
 289 0 l 1,4,-1
 12 0 l 1,5,-1
 543 1325 l 1,6,7
 495 1357 495 1357 468.5 1407.5 c 128,-1,8
 442 1458 442 1458 442 1516 c 0,9,10
 442 1583 442 1583 474.5 1634.5 c 128,-1,11
 507 1686 507 1686 559.5 1715.5 c 128,-1,12
 612 1745 612 1745 672 1745 c 0,13,14
 771 1745 771 1745 837 1676.5 c 128,-1,15
 903 1608 903 1608 903 1516 c 0,16,17
 903 1455 903 1455 875.5 1405 c 128,-1,18
 848 1355 848 1355 803 1325 c 1,19,-1
 1331 0 l 1,0,-1
672 1415 m 0,20,21
 717 1415 717 1415 744.5 1444 c 128,-1,22
 772 1473 772 1473 772 1518 c 0,23,24
 772 1558 772 1558 746 1586 c 128,-1,25
 720 1614 720 1614 672 1614 c 0,26,27
 627 1614 627 1614 600 1586.5 c 128,-1,28
 573 1559 573 1559 573 1518 c 0,29,30
 573 1472 573 1472 602 1443.5 c 128,-1,31
 631 1415 631 1415 672 1415 c 0,20,21
862 524 m 1,32,-1
 674 1040 l 1,33,-1
 485 524 l 1,34,-1
 862 524 l 1,32,-1
EndSplineSet
Position2: "'cpsp' Capital Spacing lookup 0 subtable" dx=5 dy=0 dh=10 dv=0
EndChar

StartChar: AE
Encoding: 198 198 133
Width: 1858
GlyphClass: 1
Flags: W
LayerCount: 2
Fore
SplineSet
1757 0 m 1,0,-1
 776 0 l 1,1,-1
 776 307 l 1,2,-1
 379 307 l 1,3,-1
 268 0 l 1,4,-1
 12 0 l 1,5,-1
 571 1413 l 1,6,-1
 1757 1413 l 1,7,-1
 1757 1200 l 1,8,-1
 1010 1200 l 1,9,-1
 1010 813 l 1,10,-1
 1669 813 l 1,11,-1
 1669 600 l 1,12,-1
 1010 600 l 1,13,-1
 1010 219 l 1,14,-1
 1757 219 l 1,15,-1
 1757 0 l 1,0,-1
776 504 m 1,16,-1
 776 1200 l 1,17,-1
 729 1200 l 1,18,-1
 459 504 l 1,19,-1
 776 504 l 1,16,-1
EndSplineSet
Position2: "'cpsp' Capital Spacing lookup 0 subtable" dx=5 dy=0 dh=10 dv=0
EndChar

StartChar: Ccedilla
Encoding: 199 199 134
Width: 1432
GlyphClass: 1
Flags: W
LayerCount: 2
Fore
SplineSet
741 -522 m 0,0,1
 676 -522 676 -522 622.5 -485.5 c 128,-1,2
 569 -449 569 -449 544 -393 c 1,3,-1
 680 -336 l 1,4,5
 688 -356 688 -356 705.5 -369.5 c 128,-1,6
 723 -383 723 -383 747 -383 c 0,7,8
 782 -383 782 -383 804.5 -361 c 128,-1,9
 827 -339 827 -339 827 -305 c 0,10,11
 827 -256 827 -256 779.5 -225.5 c 128,-1,12
 732 -195 732 -195 659 -195 c 2,13,-1
 589 -195 l 1,14,-1
 702 -18 l 1,15,16
 499 -4 499 -4 360 97 c 0,17,18
 214 205 214 205 148 365 c 128,-1,19
 82 525 82 525 82 707 c 0,20,21
 82 834 82 834 113.5 952 c 128,-1,22
 145 1070 145 1070 212.5 1168.5 c 128,-1,23
 280 1267 280 1267 387 1337 c 0,24,25
 541 1436 541 1436 764 1436 c 0,26,27
 965 1436 965 1436 1127.5 1336 c 128,-1,28
 1290 1236 1290 1236 1382 1030 c 1,29,-1
 1145 936 l 1,30,31
 1069 1194 1069 1194 762 1194 c 0,32,33
 616 1194 616 1194 521 1131 c 128,-1,34
 426 1068 426 1068 380 960 c 128,-1,35
 334 852 334 852 334 717 c 0,36,37
 334 576 334 576 379 463.5 c 128,-1,38
 424 351 424 351 519.5 286 c 128,-1,39
 615 221 615 221 766 221 c 0,40,41
 911 221 911 221 1003.5 285.5 c 128,-1,42
 1096 350 1096 350 1149 483 c 1,43,-1
 1384 387 l 1,44,45
 1303 201 1303 201 1162.5 101 c 128,-1,46
 1022 1 1022 1 845 -16 c 1,47,-1
 780 -100 l 1,48,49
 876 -114 876 -114 923 -166.5 c 128,-1,50
 970 -219 970 -219 970 -297 c 0,51,52
 970 -398 970 -398 902 -460 c 128,-1,53
 834 -522 834 -522 741 -522 c 0,0,1
EndSplineSet
Position2: "'cpsp' Capital Spacing lookup 0 subtable" dx=5 dy=0 dh=10 dv=0
EndChar

StartChar: Ecircumflex
Encoding: 202 202 137
Width: 1245
GlyphClass: 1
Flags: W
LayerCount: 2
Fore
SplineSet
1122 0 m 1,0,-1
 182 0 l 1,1,-1
 182 1413 l 1,2,-1
 1122 1413 l 1,3,-1
 1122 1180 l 1,4,-1
 436 1180 l 1,5,-1
 436 823 l 1,6,-1
 1075 823 l 1,7,-1
 1075 590 l 1,8,-1
 436 590 l 1,9,-1
 436 240 l 1,10,-1
 1122 240 l 1,11,-1
 1122 0 l 1,0,-1
936 1510 m 1,12,-1
 748 1510 l 1,13,-1
 619 1655 l 1,14,-1
 492 1510 l 1,15,-1
 303 1510 l 1,16,-1
 619 1862 l 1,17,-1
 936 1510 l 1,12,-1
EndSplineSet
Position2: "'cpsp' Capital Spacing lookup 0 subtable" dx=5 dy=0 dh=10 dv=0
EndChar

StartChar: Eth
Encoding: 208 208 143
Width: 1430
GlyphClass: 1
Flags: W
LayerCount: 2
Fore
SplineSet
602 0 m 2,0,-1
 205 0 l 1,1,-1
 205 621 l 1,2,-1
 92 621 l 1,3,-1
 92 805 l 1,4,-1
 205 805 l 1,5,-1
 205 1413 l 1,6,-1
 604 1413 l 2,7,8
 967 1413 967 1413 1158.5 1224.5 c 128,-1,9
 1350 1036 1350 1036 1350 696 c 0,10,11
 1350 466 1350 466 1258.5 313 c 128,-1,12
 1167 160 1167 160 1005 82 c 0,13,14
 837 0 837 0 602 0 c 2,0,-1
578 219 m 2,15,16
 827 219 827 219 970.5 338 c 128,-1,17
 1114 457 1114 457 1114 707 c 0,18,19
 1114 962 1114 962 983.5 1079 c 128,-1,20
 853 1196 853 1196 600 1196 c 2,21,-1
 438 1196 l 1,22,-1
 438 805 l 1,23,-1
 819 805 l 1,24,-1
 819 621 l 1,25,-1
 438 621 l 1,26,-1
 438 219 l 1,27,-1
 578 219 l 2,15,16
EndSplineSet
Position2: "'cpsp' Capital Spacing lookup 0 subtable" dx=5 dy=0 dh=10 dv=0
EndChar

StartChar: Ocircumflex
Encoding: 212 212 147
Width: 1528
GlyphClass: 1
Flags: W
LayerCount: 2
Fore
SplineSet
1079 1510 m 1,0,-1
 891 1510 l 1,1,-1
 762 1655 l 1,2,-1
 635 1510 l 1,3,-1
 446 1510 l 1,4,-1
 762 1862 l 1,5,-1
 1079 1510 l 1,0,-1
764 -20 m 256,6,7
 540 -20 540 -20 387 79 c 0,8,9
 279 148 279 148 212 246 c 128,-1,10
 145 344 145 344 113.5 462 c 128,-1,11
 82 580 82 580 82 707 c 256,12,13
 82 834 82 834 113.5 952 c 128,-1,14
 145 1070 145 1070 212 1168 c 128,-1,15
 279 1266 279 1266 387 1336 c 0,16,17
 540 1434 540 1434 764 1434 c 256,18,19
 988 1434 988 1434 1142 1336 c 0,20,21
 1249 1266 1249 1266 1316 1168 c 128,-1,22
 1383 1070 1383 1070 1414.5 952 c 128,-1,23
 1446 834 1446 834 1446 707 c 256,24,25
 1446 580 1446 580 1414.5 462 c 128,-1,26
 1383 344 1383 344 1316 246 c 128,-1,27
 1249 148 1249 148 1142 79 c 0,28,29
 988 -20 988 -20 764 -20 c 256,6,7
764 205 m 0,30,31
 909 205 909 205 1002 273 c 0,32,33
 1178 405 1178 405 1178 707 c 0,34,35
 1178 928 1178 928 1083 1060 c 0,36,37
 977 1208 977 1208 764 1208 c 0,38,39
 619 1208 619 1208 527 1141 c 0,40,41
 350 1008 350 1008 350 707 c 0,42,43
 350 568 350 568 392 454 c 128,-1,44
 434 340 434 340 525 272.5 c 128,-1,45
 616 205 616 205 764 205 c 0,30,31
EndSplineSet
Position2: "'cpsp' Capital Spacing lookup 0 subtable" dx=5 dy=0 dh=10 dv=0
EndChar

StartChar: multiply
Encoding: 215 215 150
Width: 1090
GlyphClass: 1
Flags: W
LayerCount: 2
Fore
SplineSet
221 172 m 1,0,-1
 92 301 l 1,1,-1
 414 625 l 1,2,-1
 113 926 l 1,3,-1
 244 1057 l 1,4,-1
 545 756 l 1,5,-1
 868 1077 l 1,6,-1
 997 948 l 1,7,-1
 676 625 l 1,8,-1
 977 324 l 1,9,-1
 846 193 l 1,10,-1
 545 494 l 1,11,-1
 221 172 l 1,0,-1
EndSplineSet
EndChar

StartChar: Oslash
Encoding: 216 216 151
Width: 1528
GlyphClass: 1
Flags: W
LayerCount: 2
Fore
SplineSet
764 -20 m 0,0,1
 591 -20 591 -20 452 43 c 1,2,-1
 426 0 l 1,3,-1
 244 0 l 1,4,-1
 321 126 l 1,5,6
 198 232 198 232 140 384.5 c 128,-1,7
 82 537 82 537 82 707 c 0,8,9
 82 834 82 834 113.5 952 c 128,-1,10
 145 1070 145 1070 212 1168 c 128,-1,11
 279 1266 279 1266 387 1336 c 0,12,13
 540 1434 540 1434 764 1434 c 0,14,15
 936 1434 936 1434 1075 1371 c 1,16,-1
 1100 1413 l 1,17,-1
 1282 1413 l 1,18,-1
 1207 1288 l 1,19,20
 1330 1182 1330 1182 1388 1030 c 128,-1,21
 1446 878 1446 878 1446 707 c 0,22,23
 1446 580 1446 580 1414.5 462 c 128,-1,24
 1383 344 1383 344 1316 246 c 128,-1,25
 1249 148 1249 148 1142 79 c 0,26,27
 988 -20 988 -20 764 -20 c 0,0,1
452 344 m 1,28,-1
 952 1169 l 1,29,30
 871 1208 871 1208 764 1208 c 0,31,32
 619 1208 619 1208 527 1141 c 0,33,34
 350 1008 350 1008 350 707 c 0,35,36
 350 478 350 478 452 344 c 1,28,-1
764 205 m 0,37,38
 909 205 909 205 1002 273 c 0,39,40
 1178 405 1178 405 1178 707 c 0,41,42
 1178 934 1178 934 1075 1071 c 1,43,-1
 574 245 l 1,44,45
 656 205 656 205 764 205 c 0,37,38
EndSplineSet
Position2: "'cpsp' Capital Spacing lookup 0 subtable" dx=5 dy=0 dh=10 dv=0
EndChar

StartChar: Thorn
Encoding: 222 222 157
Width: 1151
GlyphClass: 1
Flags: W
LayerCount: 2
Fore
SplineSet
414 0 m 1,0,-1
 182 0 l 1,1,-1
 182 1413 l 1,2,-1
 414 1413 l 1,3,-1
 414 1219 l 1,4,-1
 670 1219 l 2,5,6
 813 1219 813 1219 909.5 1169.5 c 128,-1,7
 1006 1120 1006 1120 1055 1030 c 128,-1,8
 1104 940 1104 940 1104 819 c 0,9,10
 1104 677 1104 677 1041 583.5 c 128,-1,11
 978 490 978 490 867.5 443.5 c 128,-1,12
 757 397 757 397 614 397 c 2,13,-1
 414 397 l 1,14,-1
 414 0 l 1,0,-1
614 608 m 2,15,16
 872 608 872 608 872 806 c 0,17,18
 872 1020 872 1020 614 1020 c 2,19,-1
 414 1020 l 1,20,-1
 414 608 l 1,21,-1
 614 608 l 2,15,16
EndSplineSet
Position2: "'cpsp' Capital Spacing lookup 0 subtable" dx=5 dy=0 dh=10 dv=0
EndChar

StartChar: germandbls
Encoding: 223 223 158
Width: 1193
GlyphClass: 1
Flags: W
LayerCount: 2
Fore
SplineSet
741 -18 m 0,0,1
 643 -18 643 -18 537 18 c 1,2,-1
 623 225 l 1,3,4
 679 203 679 203 736 203 c 0,5,6
 802 203 802 203 837.5 237 c 128,-1,7
 873 271 873 271 873 319 c 0,8,9
 873 368 873 368 840.5 408 c 128,-1,10
 808 448 808 448 745 499 c 0,11,12
 691 544 691 544 657 579.5 c 128,-1,13
 623 615 623 615 600.5 660 c 128,-1,14
 578 705 578 705 578 762 c 0,15,16
 578 833 578 833 610 873.5 c 128,-1,17
 642 914 642 914 700 952 c 0,18,19
 750 985 750 985 772.5 1012.5 c 128,-1,20
 795 1040 795 1040 795 1081 c 0,21,22
 795 1116 795 1116 775.5 1149 c 128,-1,23
 756 1182 756 1182 714.5 1203.5 c 128,-1,24
 673 1225 673 1225 606 1225 c 0,25,26
 497 1225 497 1225 446 1167.5 c 128,-1,27
 395 1110 395 1110 395 1020 c 2,28,-1
 395 0 l 1,29,-1
 153 0 l 1,30,-1
 153 1020 l 2,31,32
 153 1152 153 1152 215 1244.5 c 128,-1,33
 277 1337 277 1337 376.5 1385.5 c 128,-1,34
 476 1434 476 1434 591 1434 c 0,35,36
 698 1434 698 1434 801 1390 c 128,-1,37
 904 1346 904 1346 973 1258 c 0,38,39
 1037 1174 1037 1174 1037 1065 c 0,40,41
 1037 996 1037 996 1013.5 950 c 128,-1,42
 990 904 990 904 957 879 c 128,-1,43
 924 854 924 854 882.5 828.5 c 128,-1,44
 841 803 841 803 822.5 787.5 c 128,-1,45
 804 772 804 772 804 752 c 0,46,47
 804 729 804 729 826 707 c 128,-1,48
 848 685 848 685 901 649 c 0,49,50
 968 604 968 604 1012 563 c 0,51,52
 1119 461 1119 461 1119 322 c 0,53,54
 1119 218 1119 218 1068 141.5 c 128,-1,55
 1017 65 1017 65 930.5 23.5 c 128,-1,56
 844 -18 844 -18 741 -18 c 0,0,1
EndSplineSet
EndChar

StartChar: acircumflex
Encoding: 226 226 161
Width: 1077
GlyphClass: 1
Flags: W
LayerCount: 2
Fore
SplineSet
838 1130 m 1,0,-1
 646 1130 l 1,1,-1
 512 1262 l 1,2,-1
 380 1130 l 1,3,-1
 188 1130 l 1,4,-1
 512 1450 l 1,5,-1
 838 1130 l 1,0,-1
429 -20 m 256,6,7
 327 -20 327 -20 239 19 c 128,-1,8
 151 58 151 58 98 133.5 c 128,-1,9
 45 209 45 209 45 318 c 0,10,11
 45 476 45 476 160 546.5 c 128,-1,12
 275 617 275 617 465 617 c 2,13,-1
 732 617 l 1,14,15
 732 717 732 717 681.5 780 c 128,-1,16
 631 843 631 843 527 843 c 0,17,18
 441 843 441 843 380 801 c 128,-1,19
 319 759 319 759 283 694 c 1,20,-1
 96 841 l 1,21,22
 176 949 176 949 280 1002.5 c 128,-1,23
 384 1056 384 1056 522 1056 c 0,24,25
 665 1056 665 1056 764 1001.5 c 128,-1,26
 863 947 863 947 914 851 c 128,-1,27
 965 755 965 755 965 630 c 2,28,-1
 965 0 l 1,29,-1
 764 0 l 1,30,-1
 748 143 l 1,31,32
 689 58 689 58 610 19 c 128,-1,33
 531 -20 531 -20 429 -20 c 256,6,7
461 186 m 0,34,35
 536 186 536 186 596.5 222.5 c 128,-1,36
 657 259 657 259 692.5 317 c 128,-1,37
 728 375 728 375 732 441 c 1,38,-1
 476 441 l 2,39,40
 389 441 389 441 342 400.5 c 128,-1,41
 295 360 295 360 295 309 c 0,42,43
 295 253 295 253 341.5 219.5 c 128,-1,44
 388 186 388 186 461 186 c 0,34,35
EndSplineSet
EndChar

StartChar: aring
Encoding: 229 229 164
Width: 1068
GlyphClass: 1
Flags: W
LayerCount: 2
Fore
SplineSet
508 1101 m 0,0,1
 439 1101 439 1101 386.5 1132 c 128,-1,2
 334 1163 334 1163 304.5 1212 c 128,-1,3
 275 1261 275 1261 275 1316 c 0,4,5
 275 1379 275 1379 308 1427 c 128,-1,6
 341 1475 341 1475 394 1502.5 c 128,-1,7
 447 1530 447 1530 508 1530 c 0,8,9
 610 1530 610 1530 677 1466 c 128,-1,10
 744 1402 744 1402 744 1316 c 0,11,12
 744 1222 744 1222 673.5 1161.5 c 128,-1,13
 603 1101 603 1101 508 1101 c 0,0,1
508 1232 m 0,14,15
 557 1232 557 1232 585 1256.5 c 128,-1,16
 613 1281 613 1281 613 1318 c 0,17,18
 613 1352 613 1352 586 1375.5 c 128,-1,19
 559 1399 559 1399 508 1399 c 0,20,21
 460 1399 460 1399 433 1376 c 128,-1,22
 406 1353 406 1353 406 1318 c 0,23,24
 406 1279 406 1279 435.5 1255.5 c 128,-1,25
 465 1232 465 1232 508 1232 c 0,14,15
424 -20 m 256,26,27
 323 -20 323 -20 236.5 19 c 128,-1,28
 150 58 150 58 97.5 133.5 c 128,-1,29
 45 209 45 209 45 318 c 0,30,31
 45 476 45 476 158.5 546.5 c 128,-1,32
 272 617 272 617 460 617 c 2,33,-1
 723 617 l 1,34,35
 723 717 723 717 673.5 780 c 128,-1,36
 624 843 624 843 522 843 c 0,37,38
 437 843 437 843 377.5 801 c 128,-1,39
 318 759 318 759 283 694 c 1,40,-1
 96 841 l 1,41,42
 175 949 175 949 278 1002.5 c 128,-1,43
 381 1056 381 1056 518 1056 c 0,44,45
 659 1056 659 1056 757 1001.5 c 128,-1,46
 855 947 855 947 905.5 851 c 128,-1,47
 956 755 956 755 956 630 c 2,48,-1
 956 0 l 1,49,-1
 755 0 l 1,50,-1
 739 143 l 1,51,52
 680 58 680 58 602.5 19 c 128,-1,53
 525 -20 525 -20 424 -20 c 256,26,27
458 186 m 0,54,55
 531 186 531 186 590 222.5 c 128,-1,56
 649 259 649 259 684.5 317 c 128,-1,57
 720 375 720 375 723 441 c 1,58,-1
 472 441 l 2,59,60
 386 441 386 441 340.5 400.5 c 128,-1,61
 295 360 295 360 295 309 c 0,62,63
 295 253 295 253 341 219.5 c 128,-1,64
 387 186 387 186 458 186 c 0,54,55
EndSplineSet
EndChar

StartChar: ae
Encoding: 230 230 165
Width: 1730
GlyphClass: 1
Flags: W
LayerCount: 2
Fore
SplineSet
411 -20 m 0,0,1
 314 -20 314 -20 231.5 19 c 128,-1,2
 149 58 149 58 98 130.5 c 128,-1,3
 47 203 47 203 47 303 c 0,4,5
 47 467 47 467 158.5 541.5 c 128,-1,6
 270 616 270 616 456 616 c 2,7,-1
 734 616 l 1,8,9
 734 741 734 741 678.5 795 c 128,-1,10
 623 849 623 849 509 849 c 0,11,12
 429 849 429 849 365 808.5 c 128,-1,13
 301 768 301 768 264 710 c 1,14,-1
 92 847 l 1,15,16
 174 956 174 956 279.5 1006 c 128,-1,17
 385 1056 385 1056 520 1056 c 0,18,19
 638 1056 638 1056 725.5 1012 c 128,-1,20
 813 968 813 968 864 892 c 1,21,22
 923 965 923 965 1008.5 1008.5 c 128,-1,23
 1094 1052 1094 1052 1205 1052 c 0,24,25
 1373 1052 1373 1052 1478 977.5 c 128,-1,26
 1583 903 1583 903 1628.5 783 c 128,-1,27
 1674 663 1674 663 1674 518 c 0,28,29
 1674 488 1674 488 1669.5 466 c 128,-1,30
 1665 444 1665 444 1663 440 c 1,31,-1
 950 440 l 1,32,33
 964 338 964 338 1025 276.5 c 128,-1,34
 1086 215 1086 215 1200 215 c 0,35,36
 1292 215 1292 215 1351 238 c 128,-1,37
 1410 261 1410 261 1458 316 c 1,38,-1
 1635 160 l 1,39,40
 1550 72 1550 72 1445.5 30 c 128,-1,41
 1341 -12 1341 -12 1202 -12 c 0,42,43
 953 -12 953 -12 838 150 c 1,44,45
 674 -20 674 -20 411 -20 c 0,0,1
1424 616 m 1,46,47
 1408 734 1408 734 1348 790.5 c 128,-1,48
 1288 847 1288 847 1184 847 c 0,49,50
 1112 847 1112 847 1064 817.5 c 128,-1,51
 1016 788 1016 788 988.5 736 c 128,-1,52
 961 684 961 684 952 616 c 1,53,-1
 1424 616 l 1,46,47
446 180 m 0,54,55
 523 180 523 180 585 218.5 c 128,-1,56
 647 257 647 257 686 316 c 128,-1,57
 725 375 725 375 734 440 c 1,58,-1
 468 440 l 2,59,60
 375 440 375 440 325.5 400.5 c 128,-1,61
 276 361 276 361 276 304 c 0,62,63
 276 239 276 239 323.5 209.5 c 128,-1,64
 371 180 371 180 446 180 c 0,54,55
EndSplineSet
EndChar

StartChar: ecircumflex
Encoding: 234 234 169
Width: 1105
GlyphClass: 1
Flags: W
LayerCount: 2
Fore
SplineSet
875 1130 m 1,0,-1
 679 1130 l 1,1,-1
 545 1262 l 1,2,-1
 413 1130 l 1,3,-1
 216 1130 l 1,4,-1
 545 1450 l 1,5,-1
 875 1130 l 1,0,-1
577 -12 m 0,6,7
 448 -12 448 -12 350.5 30 c 128,-1,8
 253 72 253 72 188 145.5 c 128,-1,9
 123 219 123 219 90 314 c 128,-1,10
 57 409 57 409 57 514 c 0,11,12
 57 649 57 649 111 772 c 128,-1,13
 165 895 165 895 283 977 c 0,14,15
 396 1052 396 1052 558 1052 c 0,16,17
 737 1052 737 1052 846.5 977.5 c 128,-1,18
 956 903 956 903 1002 783.5 c 128,-1,19
 1048 664 1048 664 1048 518 c 0,20,21
 1048 465 1048 465 1039 440 c 1,22,-1
 326 440 l 1,23,24
 338 338 338 338 399 276.5 c 128,-1,25
 460 215 460 215 575 215 c 0,26,27
 668 215 668 215 726.5 238 c 128,-1,28
 785 261 785 261 835 316 c 1,29,-1
 1010 160 l 1,30,31
 926 73 926 73 820 30.5 c 128,-1,32
 714 -12 714 -12 577 -12 c 0,6,7
799 616 m 1,33,34
 772 847 772 847 558 847 c 0,35,36
 453 847 453 847 397.5 783.5 c 128,-1,37
 342 720 342 720 326 616 c 1,38,-1
 799 616 l 1,33,34
EndSplineSet
EndChar

StartChar: eth
Encoding: 240 240 175
Width: 1199
GlyphClass: 1
Flags: W
LayerCount: 2
Fore
SplineSet
599 -16 m 0,0,1
 464 -16 464 -16 362.5 28.5 c 128,-1,2
 261 73 261 73 193.5 150.5 c 128,-1,3
 126 228 126 228 91.5 327.5 c 128,-1,4
 57 427 57 427 57 537 c 0,5,6
 57 677 57 677 114.5 796.5 c 128,-1,7
 172 916 172 916 291 990 c 0,8,9
 404 1060 404 1060 556 1060 c 0,10,11
 717 1060 717 1060 819 982 c 1,12,13
 751 1155 751 1155 535 1254 c 1,14,-1
 452 1147 l 1,15,-1
 346 1208 l 1,16,-1
 418 1300 l 1,17,18
 357 1319 357 1319 278 1342 c 1,19,-1
 393 1519 l 1,20,21
 472 1493 472 1493 543 1461 c 1,22,-1
 614 1552 l 1,23,-1
 723 1496 l 1,24,-1
 656 1409 l 1,25,26
 899 1267 899 1267 1007.5 1059.5 c 128,-1,27
 1116 852 1116 852 1116 572 c 0,28,29
 1116 287 1116 287 978.5 135.5 c 128,-1,30
 841 -16 841 -16 599 -16 c 0,0,1
586 209 m 0,31,32
 681 209 681 209 744 255 c 128,-1,33
 807 301 807 301 838.5 375.5 c 128,-1,34
 870 450 870 450 870 538 c 0,35,36
 870 624 870 624 838.5 698 c 128,-1,37
 807 772 807 772 744 817.5 c 128,-1,38
 681 863 681 863 586 863 c 0,39,40
 492 863 492 863 429.5 817.5 c 128,-1,41
 367 772 367 772 335 697.5 c 128,-1,42
 303 623 303 623 303 536 c 0,43,44
 303 452 303 452 334 377 c 128,-1,45
 365 302 365 302 427.5 255.5 c 128,-1,46
 490 209 490 209 586 209 c 0,31,32
EndSplineSet
EndChar

StartChar: ocircumflex
Encoding: 244 244 179
Width: 1148
GlyphClass: 1
Flags: W
LayerCount: 2
Fore
SplineSet
901 1130 m 1,0,-1
 707 1130 l 1,1,-1
 573 1262 l 1,2,-1
 441 1130 l 1,3,-1
 247 1130 l 1,4,-1
 573 1450 l 1,5,-1
 901 1130 l 1,0,-1
575 -20 m 0,6,7
 413 -20 413 -20 296.5 54.5 c 128,-1,8
 180 129 180 129 116.5 250.5 c 128,-1,9
 53 372 53 372 53 516 c 0,10,11
 53 656 53 656 116 779 c 128,-1,12
 179 902 179 902 303 980 c 0,13,14
 421 1052 421 1052 575 1052 c 0,15,16
 736 1052 736 1052 853.5 977.5 c 128,-1,17
 971 903 971 903 1034.5 781 c 128,-1,18
 1098 659 1098 659 1098 516 c 0,19,20
 1098 375 1098 375 1035 252 c 128,-1,21
 972 129 972 129 849 52 c 0,22,23
 729 -20 729 -20 575 -20 c 0,6,7
575 190 m 0,24,25
 711 190 711 190 777.5 281.5 c 128,-1,26
 844 373 844 373 844 516 c 0,27,28
 844 658 844 658 778 749.5 c 128,-1,29
 712 841 712 841 575 841 c 0,30,31
 481 841 481 841 422 797.5 c 128,-1,32
 363 754 363 754 335 680 c 128,-1,33
 307 606 307 606 307 516 c 0,34,35
 307 373 307 373 373.5 281.5 c 128,-1,36
 440 190 440 190 575 190 c 0,24,25
EndSplineSet
EndChar

StartChar: divide
Encoding: 247 247 182
Width: 1266
GlyphClass: 1
Flags: W
LayerCount: 2
Fore
SplineSet
766 834 m 1,0,-1
 500 834 l 1,1,-1
 500 1098 l 1,2,-1
 766 1098 l 1,3,-1
 766 834 l 1,0,-1
1182 537 m 1,4,-1
 84 537 l 1,5,-1
 84 721 l 1,6,-1
 1182 721 l 1,7,-1
 1182 537 l 1,4,-1
766 143 m 1,8,-1
 500 143 l 1,9,-1
 500 408 l 1,10,-1
 766 408 l 1,11,-1
 766 143 l 1,8,-1
EndSplineSet
EndChar

StartChar: oslash
Encoding: 248 248 183
Width: 1148
GlyphClass: 1
Flags: W
LayerCount: 2
Fore
SplineSet
572 -20 m 0,0,1
 448 -20 448 -20 343 27 c 1,2,-1
 326 -1 l 1,3,-1
 196 -1 l 1,4,-1
 247 83 l 1,5,6
 156 156 156 156 104.5 267.5 c 128,-1,7
 53 379 53 379 53 514 c 0,8,9
 53 655 53 655 116 778.5 c 128,-1,10
 179 902 179 902 304 980 c 0,11,12
 423 1052 423 1052 578 1052 c 0,13,14
 698 1052 698 1052 802 1008 c 1,15,-1
 822 1039 l 1,16,-1
 952 1039 l 1,17,-1
 899 952 l 1,18,19
 993 878 993 878 1045.5 765.5 c 128,-1,20
 1098 653 1098 653 1098 518 c 0,21,22
 1098 376 1098 376 1034.5 252.5 c 128,-1,23
 971 129 971 129 847 52 c 0,24,25
 727 -20 727 -20 572 -20 c 0,0,1
369 287 m 1,26,-1
 685 821 l 1,27,28
 636 841 636 841 575 841 c 0,29,30
 481 841 481 841 422 797.5 c 128,-1,31
 363 754 363 754 335 680 c 128,-1,32
 307 606 307 606 307 516 c 0,33,34
 307 375 307 375 369 287 c 1,26,-1
575 190 m 0,35,36
 711 190 711 190 777.5 281.5 c 128,-1,37
 844 373 844 373 844 516 c 0,38,39
 844 661 844 661 777 749 c 1,40,-1
 460 213 l 1,41,42
 511 190 511 190 575 190 c 0,35,36
EndSplineSet
EndChar

StartChar: thorn
Encoding: 254 254 189
Width: 1174
GlyphClass: 1
Flags: W
LayerCount: 2
Fore
SplineSet
385 -438 m 1,0,-1
 153 -438 l 1,1,-1
 153 1413 l 1,2,-1
 385 1413 l 1,3,-1
 385 958 l 1,4,5
 498 1060 498 1060 668 1060 c 0,6,7
 814 1060 814 1060 914.5 985.5 c 128,-1,8
 1015 911 1015 911 1066 788 c 128,-1,9
 1117 665 1117 665 1117 520 c 0,10,11
 1117 380 1117 380 1067 256 c 128,-1,12
 1017 132 1017 132 912 54 c 0,13,14
 810 -20 810 -20 668 -20 c 0,15,16
 580 -20 580 -20 508 7 c 128,-1,17
 436 34 436 34 385 82 c 1,18,-1
 385 -438 l 1,0,-1
630 190 m 0,19,20
 718 190 718 190 776 233 c 128,-1,21
 834 276 834 276 862.5 350.5 c 128,-1,22
 891 425 891 425 891 520 c 0,23,24
 891 612 891 612 863 686.5 c 128,-1,25
 835 761 835 761 777 804 c 128,-1,26
 719 847 719 847 630 847 c 0,27,28
 542 847 542 847 483.5 804 c 128,-1,29
 425 761 425 761 396.5 687 c 128,-1,30
 368 613 368 613 368 520 c 256,31,32
 368 427 368 427 396 352.5 c 128,-1,33
 424 278 424 278 482.5 234 c 128,-1,34
 541 190 541 190 630 190 c 0,19,20
EndSplineSet
EndChar

StartChar: Abreve
Encoding: 258 258 193
Width: 1343
GlyphClass: 1
Flags: W
LayerCount: 2
Fore
SplineSet
672 1555 m 0,0,1
 356 1555 356 1555 356 1825 c 1,2,-1
 528 1825 l 1,3,4
 528 1759 528 1759 569.5 1728.5 c 128,-1,5
 611 1698 611 1698 672 1698 c 256,6,7
 733 1698 733 1698 774 1729.5 c 128,-1,8
 815 1761 815 1761 815 1825 c 1,9,-1
 987 1825 l 1,10,11
 987 1555 987 1555 672 1555 c 0,0,1
1331 0 m 1,12,-1
 1057 0 l 1,13,-1
 948 307 l 1,14,-1
 399 307 l 1,15,-1
 289 0 l 1,16,-1
 12 0 l 1,17,-1
 578 1413 l 1,18,-1
 768 1413 l 1,19,-1
 1331 0 l 1,12,-1
862 524 m 1,20,-1
 674 1040 l 1,21,-1
 485 524 l 1,22,-1
 862 524 l 1,20,-1
EndSplineSet
Position2: "'cpsp' Capital Spacing lookup 0 subtable" dx=5 dy=0 dh=10 dv=0
EndChar

StartChar: abreve
Encoding: 259 259 194
Width: 1072
GlyphClass: 1
Flags: W
LayerCount: 2
Fore
SplineSet
511 1163 m 256,0,1
 190 1163 190 1163 190 1413 c 1,2,-1
 362 1413 l 1,3,4
 362 1357 362 1357 405 1331.5 c 128,-1,5
 448 1306 448 1306 511 1306 c 256,6,7
 574 1306 574 1306 617 1332.5 c 128,-1,8
 660 1359 660 1359 660 1413 c 1,9,-1
 832 1413 l 1,10,11
 832 1163 832 1163 511 1163 c 256,0,1
426 -20 m 256,12,13
 324 -20 324 -20 237 19 c 128,-1,14
 150 58 150 58 97.5 133.5 c 128,-1,15
 45 209 45 209 45 318 c 0,16,17
 45 476 45 476 159.5 546.5 c 128,-1,18
 274 617 274 617 462 617 c 2,19,-1
 726 617 l 1,20,21
 726 717 726 717 676.5 780 c 128,-1,22
 627 843 627 843 524 843 c 0,23,24
 439 843 439 843 379 801 c 128,-1,25
 319 759 319 759 283 694 c 1,26,-1
 96 841 l 1,27,28
 175 949 175 949 279 1002.5 c 128,-1,29
 383 1056 383 1056 519 1056 c 0,30,31
 661 1056 661 1056 759.5 1001.5 c 128,-1,32
 858 947 858 947 908.5 851 c 128,-1,33
 959 755 959 755 959 630 c 2,34,-1
 959 0 l 1,35,-1
 758 0 l 1,36,-1
 742 143 l 1,37,38
 683 58 683 58 605.5 19 c 128,-1,39
 528 -20 528 -20 426 -20 c 256,12,13
459 186 m 0,40,41
 533 186 533 186 592.5 222.5 c 128,-1,42
 652 259 652 259 687.5 317 c 128,-1,43
 723 375 723 375 726 441 c 1,44,-1
 473 441 l 2,45,46
 387 441 387 441 341 400.5 c 128,-1,47
 295 360 295 360 295 309 c 0,48,49
 295 253 295 253 341 219.5 c 128,-1,50
 387 186 387 186 459 186 c 0,40,41
EndSplineSet
EndChar

StartChar: aogonek
Encoding: 261 261 196
Width: 1076
GlyphClass: 1
Flags: W
LayerCount: 2
Fore
SplineSet
833 -451 m 0,0,1
 768 -451 768 -451 716 -425 c 128,-1,2
 664 -399 664 -399 635 -352.5 c 128,-1,3
 606 -306 606 -306 606 -246 c 0,4,5
 606 -174 606 -174 642.5 -119.5 c 128,-1,6
 679 -65 679 -65 725 -30 c 0,7,8
 758 -4 758 -4 766 0 c 1,9,-1
 759 0 l 1,10,-1
 743 143 l 1,11,12
 681 55 681 55 602.5 17.5 c 128,-1,13
 524 -20 524 -20 426 -20 c 0,14,15
 321 -20 321 -20 233.5 20.5 c 128,-1,16
 146 61 146 61 95.5 138 c 128,-1,17
 45 215 45 215 45 318 c 0,18,19
 45 476 45 476 160 546.5 c 128,-1,20
 275 617 275 617 462 617 c 2,21,-1
 727 617 l 1,22,23
 727 724 727 724 674.5 783.5 c 128,-1,24
 622 843 622 843 524 843 c 0,25,26
 441 843 441 843 380.5 802 c 128,-1,27
 320 761 320 761 283 694 c 1,28,-1
 96 841 l 1,29,30
 174 945 174 945 276.5 1000.5 c 128,-1,31
 379 1056 379 1056 520 1056 c 0,32,33
 657 1056 657 1056 756 1003 c 128,-1,34
 855 950 855 950 907.5 853.5 c 128,-1,35
 960 757 960 757 960 630 c 2,36,-1
 960 0 l 1,37,38
 937 -7 937 -7 887.5 -34.5 c 128,-1,39
 838 -62 838 -62 794.5 -108 c 128,-1,40
 751 -154 751 -154 751 -213 c 0,41,42
 751 -262 751 -262 771 -281.5 c 128,-1,43
 791 -301 791 -301 825 -301 c 0,44,45
 887 -301 887 -301 928 -244 c 1,46,-1
 1053 -328 l 1,47,48
 972 -451 972 -451 833 -451 c 0,0,1
459 186 m 0,49,50
 533 186 533 186 593 222.5 c 128,-1,51
 653 259 653 259 688.5 317 c 128,-1,52
 724 375 724 375 727 441 c 1,53,-1
 474 441 l 2,54,55
 388 441 388 441 341.5 400.5 c 128,-1,56
 295 360 295 360 295 309 c 0,57,58
 295 253 295 253 341 219.5 c 128,-1,59
 387 186 387 186 459 186 c 0,49,50
EndSplineSet
EndChar

StartChar: dcaron
Encoding: 271 271 206
Width: 1317
GlyphClass: 1
Flags: W
LayerCount: 2
Fore
SplineSet
510 -20 m 0,0,1
 365 -20 365 -20 266 55 c 128,-1,2
 167 130 167 130 116.5 252.5 c 128,-1,3
 66 375 66 375 66 520 c 0,4,5
 66 660 66 660 115.5 783.5 c 128,-1,6
 165 907 165 907 269 986 c 0,7,8
 369 1060 369 1060 506 1060 c 0,9,10
 588 1060 588 1060 665.5 1031 c 128,-1,11
 743 1002 743 1002 797 939 c 1,12,-1
 797 1413 l 1,13,-1
 1045 1413 l 1,14,-1
 1045 0 l 1,15,-1
 797 0 l 1,16,-1
 797 100 l 1,17,18
 744 36 744 36 669 8 c 128,-1,19
 594 -20 594 -20 510 -20 c 0,0,1
1309 998 m 1,20,-1
 1161 998 l 1,21,-1
 1279 1413 l 1,22,-1
 1545 1413 l 1,23,-1
 1309 998 l 1,20,-1
567 205 m 256,24,25
 655 205 655 205 710 245.5 c 128,-1,26
 765 286 765 286 791.5 357.5 c 128,-1,27
 818 429 818 429 818 520 c 0,28,29
 818 663 818 663 754.5 751 c 128,-1,30
 691 839 691 839 567 839 c 0,31,32
 442 839 442 839 378 750 c 128,-1,33
 314 661 314 661 314 520 c 0,34,35
 314 429 314 429 341 358 c 128,-1,36
 368 287 368 287 423.5 246 c 128,-1,37
 479 205 479 205 567 205 c 256,24,25
EndSplineSet
EndChar

StartChar: dcroat
Encoding: 273 273 208
Width: 1194
GlyphClass: 1
Flags: W
LayerCount: 2
Fore
SplineSet
510 -20 m 0,0,1
 365 -20 365 -20 266 55 c 128,-1,2
 167 130 167 130 116.5 252.5 c 128,-1,3
 66 375 66 375 66 520 c 0,4,5
 66 660 66 660 115.5 783.5 c 128,-1,6
 165 907 165 907 269 986 c 0,7,8
 369 1060 369 1060 506 1060 c 0,9,10
 588 1060 588 1060 665.5 1031 c 128,-1,11
 743 1002 743 1002 797 939 c 1,12,-1
 797 1158 l 1,13,-1
 531 1158 l 1,14,-1
 531 1322 l 1,15,-1
 797 1322 l 1,16,-1
 797 1413 l 1,17,-1
 1045 1413 l 1,18,-1
 1045 1322 l 1,19,-1
 1181 1322 l 1,20,-1
 1181 1158 l 1,21,-1
 1045 1158 l 1,22,-1
 1045 0 l 1,23,-1
 818 0 l 1,24,-1
 807 112 l 1,25,26
 753 42 753 42 674.5 11 c 128,-1,27
 596 -20 596 -20 510 -20 c 0,0,1
567 205 m 256,28,29
 655 205 655 205 710 245.5 c 128,-1,30
 765 286 765 286 791.5 357.5 c 128,-1,31
 818 429 818 429 818 520 c 0,32,33
 818 663 818 663 754.5 751 c 128,-1,34
 691 839 691 839 567 839 c 0,35,36
 442 839 442 839 378 750 c 128,-1,37
 314 661 314 661 314 520 c 0,38,39
 314 429 314 429 341 358 c 128,-1,40
 368 287 368 287 423.5 246 c 128,-1,41
 479 205 479 205 567 205 c 256,28,29
EndSplineSet
EndChar

StartChar: eogonek
Encoding: 281 281 216
Width: 1099
GlyphClass: 1
Flags: W
LayerCount: 2
Fore
SplineSet
719 -404 m 0,0,1
 618 -404 618 -404 553 -347.5 c 128,-1,2
 488 -291 488 -291 488 -199 c 0,3,4
 488 -93 488 -93 573 -12 c 1,5,6
 445 -12 445 -12 348 30.5 c 128,-1,7
 251 73 251 73 186.5 146 c 128,-1,8
 122 219 122 219 89.5 314 c 128,-1,9
 57 409 57 409 57 514 c 0,10,11
 57 649 57 649 111 772 c 128,-1,12
 165 895 165 895 282 977 c 0,13,14
 395 1052 395 1052 556 1052 c 0,15,16
 734 1052 734 1052 842.5 977.5 c 128,-1,17
 951 903 951 903 997 783.5 c 128,-1,18
 1043 664 1043 664 1043 518 c 0,19,20
 1043 465 1043 465 1033 440 c 1,21,-1
 326 440 l 1,22,23
 338 338 338 338 398 276.5 c 128,-1,24
 458 215 458 215 572 215 c 0,25,26
 664 215 664 215 722 238 c 128,-1,27
 780 261 780 261 829 316 c 1,28,-1
 1004 160 l 1,29,30
 909 63 909 63 792 22 c 1,31,32
 633 -62 633 -62 633 -166 c 0,33,34
 633 -214 633 -214 653 -234 c 128,-1,35
 673 -254 673 -254 710 -254 c 0,36,37
 773 -254 773 -254 817 -197 c 1,38,-1
 944 -281 l 1,39,40
 861 -404 861 -404 719 -404 c 0,0,1
793 616 m 1,41,42
 766 847 766 847 556 847 c 0,43,44
 452 847 452 847 397 783.5 c 128,-1,45
 342 720 342 720 326 616 c 1,46,-1
 793 616 l 1,41,42
EndSplineSet
EndChar

StartChar: uni0123
Encoding: 291 291 226
Width: 1064
GlyphClass: 1
Flags: W
LayerCount: 2
Fore
SplineSet
630 1149 m 1,0,-1
 366 1149 l 1,1,-1
 624 1434 l 1,2,-1
 768 1434 l 1,3,-1
 630 1149 l 1,0,-1
559 -473 m 0,4,5
 408 -473 408 -473 302 -425 c 128,-1,6
 196 -377 196 -377 140.5 -294.5 c 128,-1,7
 85 -212 85 -212 85 -109 c 0,8,9
 85 -85 85 -85 89 -65 c 1,10,-1
 194 33 l 1,11,12
 96 101 96 101 96 236 c 0,13,14
 96 366 96 366 189 448 c 1,15,16
 106 554 106 554 106 684 c 0,17,18
 106 798 106 798 164.5 880.5 c 128,-1,19
 223 963 223 963 318.5 1007.5 c 128,-1,20
 414 1052 414 1052 524 1052 c 0,21,22
 656 1052 656 1052 762 993 c 1,23,-1
 918 1120 l 1,24,-1
 1046 972 l 1,25,-1
 900 855 l 1,26,27
 943 773 943 773 943 676 c 0,28,29
 943 560 943 560 885 475.5 c 128,-1,30
 827 391 827 391 732.5 346 c 128,-1,31
 638 301 638 301 528 301 c 0,32,33
 425 301 425 301 334 340 c 1,34,35
 305 320 305 320 305 285 c 0,36,37
 305 249 305 249 333 230 c 128,-1,38
 361 211 361 211 407 202.5 c 128,-1,39
 453 194 453 194 545 184 c 2,40,-1
 611 176 l 2,41,42
 731 160 731 160 814.5 133.5 c 128,-1,43
 898 107 898 107 953 44.5 c 128,-1,44
 1008 -18 1008 -18 1008 -129 c 0,45,46
 1008 -246 1008 -246 948.5 -322 c 128,-1,47
 889 -398 889 -398 787.5 -435.5 c 128,-1,48
 686 -473 686 -473 559 -473 c 0,4,5
530 502 m 256,49,50
 616 502 616 502 658.5 553 c 128,-1,51
 701 604 701 604 701 679 c 256,52,53
 701 754 701 754 657.5 808.5 c 128,-1,54
 614 863 614 863 530 863 c 256,55,56
 446 863 446 863 402 808.5 c 128,-1,57
 358 754 358 754 358 679 c 256,58,59
 358 604 358 604 401 553 c 128,-1,60
 444 502 444 502 530 502 c 256,49,50
562 -281 m 0,61,62
 657 -281 657 -281 717 -251 c 128,-1,63
 777 -221 777 -221 777 -163 c 0,64,65
 777 -126 777 -126 750 -106.5 c 128,-1,66
 723 -87 723 -87 674 -77.5 c 128,-1,67
 625 -68 625 -68 511.5 -54.5 c 128,-1,68
 398 -41 398 -41 342 -28 c 1,69,-1
 291 -116 l 1,70,71
 303 -201 303 -201 378 -241 c 128,-1,72
 453 -281 453 -281 562 -281 c 0,61,62
EndSplineSet
Substitution2: "'aalt' Access All Alternates lookup 0 subtable" uni0123.ss01
EndChar

StartChar: Hbar
Encoding: 294 294 229
Width: 1491
GlyphClass: 1
Flags: W
LayerCount: 2
Fore
SplineSet
1309 0 m 1,0,-1
 1055 0 l 1,1,-1
 1055 590 l 1,2,-1
 436 590 l 1,3,-1
 436 0 l 1,4,-1
 182 0 l 1,5,-1
 182 1043 l 1,6,-1
 79 1043 l 1,7,-1
 79 1186 l 1,8,-1
 182 1186 l 1,9,-1
 182 1413 l 1,10,-1
 436 1413 l 1,11,-1
 436 1186 l 1,12,-1
 1055 1186 l 1,13,-1
 1055 1413 l 1,14,-1
 1309 1413 l 1,15,-1
 1309 1186 l 1,16,-1
 1410 1186 l 1,17,-1
 1410 1043 l 1,18,-1
 1309 1043 l 1,19,-1
 1309 0 l 1,0,-1
1055 823 m 1,20,-1
 1055 1043 l 1,21,-1
 436 1043 l 1,22,-1
 436 823 l 1,23,-1
 1055 823 l 1,20,-1
EndSplineSet
Position2: "'cpsp' Capital Spacing lookup 0 subtable" dx=5 dy=0 dh=10 dv=0
EndChar

StartChar: hbar
Encoding: 295 295 230
Width: 1191
GlyphClass: 1
Flags: W
LayerCount: 2
Fore
SplineSet
1075 0 m 1,0,-1
 827 0 l 1,1,-1
 827 598 l 2,2,3
 827 706 827 706 790 767 c 128,-1,4
 753 828 753 828 661 828 c 0,5,6
 587 828 587 828 528.5 791 c 128,-1,7
 470 754 470 754 435.5 696 c 128,-1,8
 401 638 401 638 401 575 c 2,9,-1
 401 0 l 1,10,-1
 153 0 l 1,11,-1
 153 1132 l 1,12,-1
 1 1132 l 1,13,-1
 1 1296 l 1,14,-1
 153 1296 l 1,15,-1
 153 1413 l 1,16,-1
 401 1413 l 1,17,-1
 401 1296 l 1,18,-1
 652 1296 l 1,19,-1
 652 1132 l 1,20,-1
 401 1132 l 1,21,-1
 401 923 l 1,22,23
 461 994 461 994 539.5 1025 c 128,-1,24
 618 1056 618 1056 697 1056 c 0,25,26
 828 1056 828 1056 911.5 995 c 128,-1,27
 995 934 995 934 1035 835.5 c 128,-1,28
 1075 737 1075 737 1075 624 c 2,29,-1
 1075 0 l 1,0,-1
EndSplineSet
EndChar

StartChar: dotlessi
Encoding: 305 305 240
Width: 516
GlyphClass: 2
Flags: W
LayerCount: 2
Fore
SplineSet
371 0 m 1,0,-1
 145 0 l 1,1,-1
 145 1039 l 1,2,-1
 371 1039 l 1,3,-1
 371 0 l 1,0,-1
EndSplineSet
EndChar

StartChar: kgreenlandic
Encoding: 312 312 247
Width: 1145
GlyphClass: 1
Flags: W
LayerCount: 2
Fore
SplineSet
1159 0 m 1,0,-1
 860 0 l 1,1,-1
 555 482 l 1,2,-1
 395 305 l 1,3,-1
 395 0 l 1,4,-1
 151 0 l 1,5,-1
 151 1039 l 1,6,-1
 395 1039 l 1,7,-1
 395 607 l 1,8,-1
 787 1039 l 1,9,-1
 1117 1039 l 1,10,-1
 728 636 l 1,11,-1
 1159 0 l 1,0,-1
EndSplineSet
EndChar

StartChar: Lcaron
Encoding: 317 317 252
Width: 1100
GlyphClass: 1
Flags: W
LayerCount: 2
Fore
SplineSet
1040 0 m 1,0,-1
 182 0 l 1,1,-1
 182 1413 l 1,2,-1
 436 1413 l 1,3,-1
 436 240 l 1,4,-1
 1040 240 l 1,5,-1
 1040 0 l 1,0,-1
813 958 m 1,6,-1
 670 958 l 1,7,-1
 784 1413 l 1,8,-1
 1040 1413 l 1,9,-1
 813 958 l 1,6,-1
EndSplineSet
Position2: "'cpsp' Capital Spacing lookup 0 subtable" dx=5 dy=0 dh=10 dv=0
EndChar

StartChar: lcaron
Encoding: 318 318 253
Width: 686
GlyphClass: 1
Flags: W
LayerCount: 2
Fore
SplineSet
363 -20 m 0,0,1
 259 -20 259 -20 202 27 c 128,-1,2
 145 74 145 74 145 199 c 2,3,-1
 145 1413 l 1,4,-1
 389 1413 l 1,5,-1
 389 266 l 2,6,7
 389 199 389 199 476 199 c 0,8,9
 501 199 501 199 541 205 c 1,10,-1
 541 0 l 1,11,12
 438 -20 438 -20 363 -20 c 0,0,1
681 958 m 1,13,-1
 531 958 l 1,14,-1
 651 1413 l 1,15,-1
 917 1413 l 1,16,-1
 681 958 l 1,13,-1
EndSplineSet
EndChar

StartChar: Lslash
Encoding: 321 321 256
Width: 1090
GlyphClass: 1
Flags: W
LayerCount: 2
Fore
SplineSet
1067 0 m 1,0,-1
 209 0 l 1,1,-1
 209 316 l 1,2,-1
 104 197 l 1,3,-1
 104 467 l 1,4,-1
 209 585 l 1,5,-1
 209 1413 l 1,6,-1
 463 1413 l 1,7,-1
 463 872 l 1,8,-1
 702 1141 l 1,9,-1
 702 872 l 1,10,-1
 463 602 l 1,11,-1
 463 240 l 1,12,-1
 1067 240 l 1,13,-1
 1067 0 l 1,0,-1
EndSplineSet
Position2: "'cpsp' Capital Spacing lookup 0 subtable" dx=5 dy=0 dh=10 dv=0
EndChar

StartChar: lslash
Encoding: 322 322 257
Width: 578
GlyphClass: 1
Flags: W
LayerCount: 2
Fore
SplineSet
360 -20 m 0,0,1
 256 -20 256 -20 199 27 c 128,-1,2
 142 74 142 74 142 199 c 2,3,-1
 142 389 l 1,4,-1
 75 314 l 1,5,-1
 75 542 l 1,6,-1
 142 618 l 1,7,-1
 142 1413 l 1,8,-1
 386 1413 l 1,9,-1
 386 893 l 1,10,-1
 495 1011 l 1,11,-1
 495 782 l 1,12,-1
 386 664 l 1,13,-1
 386 266 l 2,14,15
 386 199 386 199 473 199 c 0,16,17
 498 199 498 199 539 205 c 1,18,-1
 539 0 l 1,19,20
 435 -20 435 -20 360 -20 c 0,0,1
EndSplineSet
EndChar

StartChar: Eng
Encoding: 330 330 265
Width: 1454
GlyphClass: 1
Flags: W
LayerCount: 2
Fore
SplineSet
944 -369 m 2,0,-1
 823 -369 l 1,1,-1
 823 -209 l 1,2,-1
 852 -210 l 2,3,4
 947 -210 947 -210 998.5 -176 c 128,-1,5
 1050 -142 1050 -142 1050 -92 c 0,6,7
 1050 -70 1050 -70 1040 -47 c 2,8,-1
 426 997 l 1,9,-1
 426 0 l 1,10,-1
 182 0 l 1,11,-1
 182 1411 l 1,12,-1
 434 1411 l 1,13,-1
 1028 416 l 1,14,-1
 1028 1411 l 1,15,-1
 1270 1411 l 1,16,-1
 1270 0 l 2,17,18
 1270 -163 1270 -163 1196 -266 c 128,-1,19
 1122 -369 1122 -369 944 -369 c 2,0,-1
EndSplineSet
Position2: "'cpsp' Capital Spacing lookup 0 subtable" dx=5 dy=0 dh=10 dv=0
EndChar

StartChar: eng
Encoding: 331 331 266
Width: 1173
GlyphClass: 1
Flags: W
LayerCount: 2
Fore
SplineSet
742 -369 m 2,0,-1
 619 -369 l 1,1,-1
 619 -168 l 1,2,-1
 698 -168 l 2,3,4
 756 -168 756 -168 783.5 -143 c 128,-1,5
 811 -118 811 -118 817.5 -82 c 128,-1,6
 824 -46 824 -46 824 5 c 2,7,-1
 824 602 l 2,8,9
 824 712 824 712 786 775.5 c 128,-1,10
 748 839 748 839 653 839 c 0,11,12
 578 839 578 839 518 801 c 128,-1,13
 458 763 458 763 423.5 703 c 128,-1,14
 389 643 389 643 389 579 c 2,15,-1
 389 7 l 1,16,-1
 151 7 l 1,17,-1
 151 1039 l 1,18,-1
 389 1039 l 1,19,-1
 389 912 l 1,20,21
 448 989 448 989 528 1022.5 c 128,-1,22
 608 1056 608 1056 689 1056 c 0,23,24
 818 1056 818 1056 900.5 996.5 c 128,-1,25
 983 937 983 937 1022 839.5 c 128,-1,26
 1061 742 1061 742 1061 630 c 2,27,-1
 1061 -57 l 2,28,29
 1061 -124 1061 -124 1043.5 -190 c 128,-1,30
 1026 -256 1026 -256 956 -312.5 c 128,-1,31
 886 -369 886 -369 742 -369 c 2,0,-1
EndSplineSet
EndChar

StartChar: OE
Encoding: 338 338 273
Width: 2255
GlyphClass: 1
Flags: W
LayerCount: 2
Fore
SplineSet
764 -20 m 0,0,1
 540 -20 540 -20 387 79 c 0,2,3
 279 148 279 148 212 246 c 128,-1,4
 145 344 145 344 113.5 462 c 128,-1,5
 82 580 82 580 82 707 c 256,6,7
 82 834 82 834 113.5 952 c 128,-1,8
 145 1070 145 1070 212 1168 c 128,-1,9
 279 1266 279 1266 387 1336 c 0,10,11
 540 1434 540 1434 764 1434 c 0,12,13
 909 1434 909 1434 1015.5 1389 c 128,-1,14
 1122 1344 1122 1344 1192 1266 c 1,15,-1
 1192 1413 l 1,16,-1
 2132 1413 l 1,17,-1
 2132 1180 l 1,18,-1
 1446 1180 l 1,19,-1
 1446 823 l 1,20,-1
 2085 823 l 1,21,-1
 2085 590 l 1,22,-1
 1446 590 l 1,23,-1
 1446 240 l 1,24,-1
 2132 240 l 1,25,-1
 2132 0 l 1,26,-1
 1192 0 l 1,27,-1
 1192 147 l 1,28,29
 1038 -20 1038 -20 764 -20 c 0,0,1
764 219 m 0,30,31
 912 219 912 219 1007 283.5 c 128,-1,32
 1102 348 1102 348 1147 458.5 c 128,-1,33
 1192 569 1192 569 1192 707 c 0,34,35
 1192 844 1192 844 1147.5 954 c 128,-1,36
 1103 1064 1103 1064 1008.5 1129 c 128,-1,37
 914 1194 914 1194 764 1194 c 0,38,39
 616 1194 616 1194 521.5 1130 c 128,-1,40
 427 1066 427 1066 381.5 955.5 c 128,-1,41
 336 845 336 845 336 707 c 0,42,43
 336 573 336 573 380 462 c 128,-1,44
 424 351 424 351 518 285 c 128,-1,45
 612 219 612 219 764 219 c 0,30,31
EndSplineSet
Position2: "'cpsp' Capital Spacing lookup 0 subtable" dx=5 dy=0 dh=10 dv=0
EndChar

StartChar: oe
Encoding: 339 339 274
Width: 1887
GlyphClass: 1
Flags: W
LayerCount: 2
Fore
SplineSet
580 -20 m 0,0,1
 417 -20 417 -20 299 54.5 c 128,-1,2
 181 129 181 129 117 251 c 128,-1,3
 53 373 53 373 53 516 c 0,4,5
 53 656 53 656 115 779 c 128,-1,6
 177 902 177 902 304 980 c 0,7,8
 423 1052 423 1052 580 1052 c 0,9,10
 702 1052 702 1052 798.5 1005 c 128,-1,11
 895 958 895 958 961 882 c 1,12,13
 1098 1052 1098 1052 1329 1052 c 0,14,15
 1509 1052 1509 1052 1619.5 977.5 c 128,-1,16
 1730 903 1730 903 1776.5 783.5 c 128,-1,17
 1823 664 1823 664 1823 520 c 0,18,19
 1823 486 1823 486 1820 463 c 128,-1,20
 1817 440 1817 440 1815 437 c 2,21,-1
 1102 437 l 1,22,23
 1117 342 1117 342 1181.5 283.5 c 128,-1,24
 1246 225 1246 225 1360 225 c 0,25,26
 1524 225 1524 225 1626 343 c 1,27,-1
 1809 176 l 1,28,29
 1623 -12 1623 -12 1362 -12 c 0,30,31
 1228 -12 1228 -12 1127 33.5 c 128,-1,32
 1026 79 1026 79 965 154 c 1,33,34
 897 72 897 72 800.5 26 c 128,-1,35
 704 -20 704 -20 580 -20 c 0,0,1
569 186 m 256,36,37
 703 186 703 186 770 276.5 c 128,-1,38
 837 367 837 367 837 516 c 256,39,40
 837 665 837 665 773.5 754 c 128,-1,41
 710 843 710 843 575 843 c 0,42,43
 441 843 441 843 374 753 c 128,-1,44
 307 663 307 663 307 514 c 0,45,46
 307 364 307 364 371 275 c 128,-1,47
 435 186 435 186 569 186 c 256,36,37
1563 615 m 1,48,49
 1547 729 1547 729 1489 784 c 128,-1,50
 1431 839 1431 839 1329 839 c 0,51,52
 1228 839 1228 839 1174 777 c 128,-1,53
 1120 715 1120 715 1104 615 c 1,54,-1
 1563 615 l 1,48,49
EndSplineSet
EndChar

StartChar: tcaron
Encoding: 357 357 292
Width: 786
GlyphClass: 1
Flags: W
LayerCount: 2
Fore
SplineSet
692 1175 m 1,0,-1
 544 1175 l 1,1,-1
 685 1599 l 1,2,-1
 950 1599 l 1,3,-1
 692 1175 l 1,0,-1
493 -20 m 0,4,5
 345 -20 345 -20 270.5 65.5 c 128,-1,6
 196 151 196 151 196 291 c 2,7,-1
 196 818 l 1,8,-1
 28 818 l 1,9,-1
 28 1039 l 1,10,-1
 201 1039 l 1,11,-1
 201 1270 l 1,12,-1
 430 1433 l 1,13,-1
 430 1039 l 1,14,-1
 700 1039 l 1,15,-1
 700 818 l 1,16,-1
 430 818 l 1,17,-1
 430 285 l 2,18,19
 430 235 430 235 455 216 c 128,-1,20
 480 197 480 197 525 197 c 0,21,22
 603 197 603 197 651.5 214.5 c 128,-1,23
 700 232 700 232 700 233 c 1,24,-1
 700 10 l 2,25,26
 700 8 700 8 645 -6 c 128,-1,27
 590 -20 590 -20 493 -20 c 0,4,5
EndSplineSet
EndChar

StartChar: Tbar
Encoding: 358 358 293
Width: 1180
GlyphClass: 1
Flags: W
LayerCount: 2
Fore
SplineSet
717 0 m 1,0,-1
 463 0 l 1,1,-1
 463 625 l 1,2,-1
 272 625 l 1,3,-1
 272 789 l 1,4,-1
 463 789 l 1,5,-1
 463 1186 l 1,6,-1
 20 1186 l 1,7,-1
 20 1413 l 1,8,-1
 1159 1413 l 1,9,-1
 1159 1186 l 1,10,-1
 717 1186 l 1,11,-1
 717 789 l 1,12,-1
 907 789 l 1,13,-1
 907 625 l 1,14,-1
 717 625 l 1,15,-1
 717 0 l 1,0,-1
EndSplineSet
Position2: "'cpsp' Capital Spacing lookup 0 subtable" dx=5 dy=0 dh=10 dv=0
EndChar

StartChar: tbar
Encoding: 359 359 294
Width: 770
GlyphClass: 1
Flags: W
LayerCount: 2
Fore
SplineSet
514 -20 m 0,0,1
 362 -20 362 -20 277.5 64.5 c 128,-1,2
 193 149 193 149 193 290 c 2,3,-1
 193 438 l 1,4,-1
 42 438 l 1,5,-1
 42 602 l 1,6,-1
 193 602 l 1,7,-1
 193 835 l 1,8,-1
 26 835 l 1,9,-1
 26 1039 l 1,10,-1
 197 1039 l 1,11,-1
 197 1263 l 1,12,-1
 427 1421 l 1,13,-1
 427 1039 l 1,14,-1
 698 1039 l 1,15,-1
 698 835 l 1,16,-1
 427 835 l 1,17,-1
 427 602 l 1,18,-1
 693 602 l 1,19,-1
 693 438 l 1,20,-1
 427 438 l 1,21,-1
 427 330 l 2,22,23
 427 195 427 195 553 195 c 0,24,25
 624 195 624 195 698 234 c 1,26,-1
 698 10 l 1,27,28
 666 -2 666 -2 615.5 -11 c 128,-1,29
 565 -20 565 -20 514 -20 c 0,0,1
EndSplineSet
EndChar

StartChar: Uogonek
Encoding: 370 370 305
Width: 1380
GlyphClass: 1
Flags: W
LayerCount: 2
Fore
SplineSet
868 -400 m 0,0,1
 770 -400 770 -400 706.5 -343.5 c 128,-1,2
 643 -287 643 -287 643 -195 c 0,3,4
 643 -100 643 -100 717 -20 c 1,5,-1
 690 -20 l 2,6,7
 415 -20 415 -20 282.5 130.5 c 128,-1,8
 150 281 150 281 150 551 c 2,9,-1
 150 1413 l 1,10,-1
 403 1413 l 1,11,-1
 403 580 l 2,12,13
 403 454 403 454 430 378.5 c 128,-1,14
 457 303 457 303 517 266 c 0,15,16
 579 225 579 225 690 225 c 0,17,18
 798 225 798 225 860.5 262.5 c 128,-1,19
 923 300 923 300 950 378.5 c 128,-1,20
 977 457 977 457 977 580 c 2,21,-1
 977 1413 l 1,22,-1
 1231 1413 l 1,23,-1
 1231 561 l 2,24,25
 1231 133 1231 133 927 18 c 1,26,27
 788 -62 788 -62 788 -162 c 0,28,29
 788 -210 788 -210 807.5 -230 c 128,-1,30
 827 -250 827 -250 862 -250 c 0,31,32
 923 -250 923 -250 965 -193 c 1,33,-1
 1087 -277 l 1,34,35
 1006 -400 1006 -400 868 -400 c 0,0,1
EndSplineSet
Position2: "'cpsp' Capital Spacing lookup 0 subtable" dx=5 dy=0 dh=10 dv=0
EndChar

StartChar: uogonek
Encoding: 371 371 306
Width: 1182
GlyphClass: 1
Flags: W
LayerCount: 2
Fore
SplineSet
912 -451 m 0,0,1
 847 -451 847 -451 795 -425 c 128,-1,2
 743 -399 743 -399 714 -352.5 c 128,-1,3
 685 -306 685 -306 685 -246 c 0,4,5
 685 -174 685 -174 721.5 -119.5 c 128,-1,6
 758 -65 758 -65 804 -30 c 0,7,8
 837 -4 837 -4 845 0 c 1,9,-1
 791 0 l 1,10,-1
 791 117 l 1,11,12
 738 48 738 48 660 12.5 c 128,-1,13
 582 -23 582 -23 496 -23 c 0,14,15
 370 -23 370 -23 285 40.5 c 128,-1,16
 200 104 200 104 160 207 c 128,-1,17
 120 310 120 310 120 429 c 2,18,-1
 120 1039 l 1,19,-1
 367 1039 l 1,20,-1
 367 435 l 2,21,22
 367 327 367 327 407 268 c 128,-1,23
 447 209 447 209 553 209 c 0,24,25
 658 209 658 209 724.5 277.5 c 128,-1,26
 791 346 791 346 791 523 c 2,27,-1
 791 1039 l 1,28,-1
 1039 1039 l 1,29,-1
 1039 0 l 1,30,31
 1016 -7 1016 -7 966.5 -34.5 c 128,-1,32
 917 -62 917 -62 873.5 -108 c 128,-1,33
 830 -154 830 -154 830 -213 c 0,34,35
 830 -262 830 -262 850 -281.5 c 128,-1,36
 870 -301 870 -301 904 -301 c 0,37,38
 966 -301 966 -301 1007 -244 c 1,39,-1
 1132 -328 l 1,40,41
 1051 -451 1051 -451 912 -451 c 0,0,1
EndSplineSet
EndChar

StartChar: longs
Encoding: 383 383 318
Width: 705
GlyphClass: 2
Flags: W
LayerCount: 2
Fore
SplineSet
463 0 m 1,0,-1
 211 0 l 1,1,-1
 211 835 l 1,2,-1
 21 835 l 1,3,-1
 21 1037 l 1,4,-1
 213 1037 l 1,5,-1
 213 1161 l 2,6,7
 213 1249 213 1249 258.5 1310 c 128,-1,8
 304 1371 304 1371 378 1402 c 0,9,10
 452 1434 452 1434 538 1434 c 0,11,12
 629 1434 629 1434 723 1393 c 1,13,-1
 640 1197 l 1,14,15
 597 1217 597 1217 559 1217 c 0,16,17
 519 1217 519 1217 491 1191.5 c 128,-1,18
 463 1166 463 1166 463 1108 c 2,19,-1
 463 0 l 1,0,-1
EndSplineSet
EndChar

StartChar: florin
Encoding: 402 402 319
Width: 1055
GlyphClass: 1
Flags: W
LayerCount: 2
Fore
SplineSet
66 -457 m 1,0,-1
 66 -252 l 1,1,2
 207 -252 207 -252 281 -224.5 c 128,-1,3
 355 -197 355 -197 385 -137 c 0,4,5
 417 -75 417 -75 417 42 c 2,6,-1
 417 837 l 1,7,-1
 232 837 l 1,8,-1
 232 1039 l 1,9,-1
 417 1039 l 1,10,-1
 417 1153 l 2,11,12
 417 1241 417 1241 460 1307.5 c 128,-1,13
 503 1374 503 1374 573.5 1411 c 128,-1,14
 644 1448 644 1448 726 1448 c 0,15,16
 794 1448 794 1448 853 1423 c 128,-1,17
 912 1398 912 1398 980 1341 c 1,18,-1
 841 1195 l 1,19,20
 803 1223 803 1223 779 1233 c 128,-1,21
 755 1243 755 1243 722 1243 c 0,22,23
 682 1243 682 1243 652 1220 c 128,-1,24
 622 1197 622 1197 622 1143 c 2,25,-1
 622 1039 l 1,26,-1
 939 1039 l 1,27,-1
 939 837 l 1,28,-1
 622 837 l 1,29,-1
 622 47 l 2,30,31
 622 -109 622 -109 562 -222 c 128,-1,32
 502 -335 502 -335 379.5 -396 c 128,-1,33
 257 -457 257 -457 66 -457 c 1,0,-1
EndSplineSet
EndChar

StartChar: Ohorn
Encoding: 416 416 320
Width: 1528
GlyphClass: 1
Flags: W
LayerCount: 2
Fore
SplineSet
764 -20 m 256,0,1
 540 -20 540 -20 387 79 c 0,2,3
 279 148 279 148 212 246 c 128,-1,4
 145 344 145 344 113.5 462 c 128,-1,5
 82 580 82 580 82 707 c 256,6,7
 82 834 82 834 113.5 952 c 128,-1,8
 145 1070 145 1070 212 1168 c 128,-1,9
 279 1266 279 1266 387 1336 c 0,10,11
 540 1434 540 1434 764 1434 c 0,12,13
 1103 1434 1103 1434 1288 1206 c 1,14,15
 1343 1248 1343 1248 1343 1356 c 2,16,-1
 1343 1434 l 1,17,-1
 1504 1434 l 1,18,-1
 1504 1354 l 2,19,20
 1504 1208 1504 1208 1428 1118 c 0,21,22
 1404 1089 1404 1089 1372 1070 c 1,23,24
 1446 908 1446 908 1446 707 c 0,25,26
 1446 580 1446 580 1414.5 462 c 128,-1,27
 1383 344 1383 344 1316 246 c 128,-1,28
 1249 148 1249 148 1142 79 c 0,29,30
 988 -20 988 -20 764 -20 c 256,0,1
764 205 m 0,31,32
 909 205 909 205 1002 273 c 0,33,34
 1178 405 1178 405 1178 707 c 0,35,36
 1178 928 1178 928 1083 1060 c 0,37,38
 977 1208 977 1208 764 1208 c 0,39,40
 619 1208 619 1208 527 1141 c 0,41,42
 350 1008 350 1008 350 707 c 0,43,44
 350 568 350 568 392 454 c 128,-1,45
 434 340 434 340 525 272.5 c 128,-1,46
 616 205 616 205 764 205 c 0,31,32
EndSplineSet
EndChar

StartChar: ohorn
Encoding: 417 417 321
Width: 1148
GlyphClass: 1
Flags: W
LayerCount: 2
Fore
SplineSet
575 -20 m 0,0,1
 413 -20 413 -20 296.5 54.5 c 128,-1,2
 180 129 180 129 116.5 250.5 c 128,-1,3
 53 372 53 372 53 516 c 0,4,5
 53 656 53 656 116 779 c 128,-1,6
 179 902 179 902 304 980 c 0,7,8
 423 1052 423 1052 576 1052 c 0,9,10
 849 1052 849 1052 997 854 c 1,11,12
 1025 897 1025 897 1025 974 c 2,13,-1
 1025 1052 l 1,14,-1
 1186 1052 l 1,15,-1
 1186 970 l 2,16,17
 1186 820 1186 820 1110 728 c 0,18,19
 1094 707 1094 707 1074 692 c 1,20,21
 1098 609 1098 609 1098 519 c 0,22,23
 1098 377 1098 377 1035 253 c 128,-1,24
 972 129 972 129 849 52 c 0,25,26
 729 -20 729 -20 575 -20 c 0,0,1
575 190 m 0,27,28
 711 190 711 190 777.5 281.5 c 128,-1,29
 844 373 844 373 844 516 c 0,30,31
 844 658 844 658 778 749.5 c 128,-1,32
 712 841 712 841 575 841 c 0,33,34
 481 841 481 841 422 797.5 c 128,-1,35
 363 754 363 754 335 680 c 128,-1,36
 307 606 307 606 307 516 c 0,37,38
 307 373 307 373 373.5 281.5 c 128,-1,39
 440 190 440 190 575 190 c 0,27,28
EndSplineSet
EndChar

StartChar: Uhorn
Encoding: 431 431 322
Width: 1380
GlyphClass: 1
Flags: W
LayerCount: 2
Fore
SplineSet
1232 1027 m 1,0,-1
 1232 1179 l 1,1,2
 1381 1179 1381 1179 1381 1356 c 2,3,-1
 1381 1434 l 1,4,-1
 1542 1434 l 1,5,-1
 1542 1354 l 2,6,7
 1542 1208 1542 1208 1466 1117.5 c 128,-1,8
 1390 1027 1390 1027 1232 1027 c 1,0,-1
690 -20 m 0,9,10
 415 -20 415 -20 282.5 130.5 c 128,-1,11
 150 281 150 281 150 551 c 2,12,-1
 150 1413 l 1,13,-1
 403 1413 l 1,14,-1
 403 580 l 2,15,16
 403 454 403 454 430 378.5 c 128,-1,17
 457 303 457 303 517 266 c 0,18,19
 579 225 579 225 690 225 c 0,20,21
 798 225 798 225 860.5 262.5 c 128,-1,22
 923 300 923 300 950 378.5 c 128,-1,23
 977 457 977 457 977 580 c 2,24,-1
 977 1413 l 1,25,-1
 1231 1413 l 1,26,-1
 1231 561 l 2,27,28
 1231 284 1231 284 1098.5 132 c 128,-1,29
 966 -20 966 -20 690 -20 c 0,9,10
EndSplineSet
EndChar

StartChar: uhorn
Encoding: 432 432 323
Width: 1189
GlyphClass: 1
Flags: W
LayerCount: 2
Fore
SplineSet
499 -23 m 0,0,1
 371 -23 371 -23 286 40 c 0,2,3
 198 109 198 109 159 211.5 c 128,-1,4
 120 314 120 314 120 429 c 2,5,-1
 120 1038 l 1,6,-1
 367 1038 l 1,7,-1
 367 435 l 2,8,9
 367 327 367 327 407.5 268 c 128,-1,10
 448 209 448 209 555 209 c 0,11,12
 661 209 661 209 728 277 c 128,-1,13
 795 345 795 345 795 523 c 2,14,-1
 795 1038 l 1,15,-1
 1043 1038 l 1,16,-1
 1043 781 l 1,17,18
 1198 781 1198 781 1198 969 c 2,19,-1
 1198 1052 l 1,20,-1
 1359 1052 l 1,21,-1
 1359 969 l 2,22,23
 1359 817 1359 817 1281.5 723 c 128,-1,24
 1204 629 1204 629 1043 629 c 1,25,-1
 1043 0 l 1,26,-1
 795 0 l 1,27,-1
 795 117 l 1,28,29
 737 45 737 45 659 11 c 128,-1,30
 581 -23 581 -23 499 -23 c 0,0,1
EndSplineSet
EndChar

StartChar: uni01C3
Encoding: 451 451 324
Width: 594
GlyphClass: 1
Flags: W
LayerCount: 2
Fore
SplineSet
389 428 m 1,0,-1
 205 428 l 1,1,-1
 176 1434 l 1,2,-1
 418 1434 l 1,3,-1
 389 428 l 1,0,-1
430 0 m 1,4,-1
 164 0 l 1,5,-1
 164 264 l 1,6,-1
 430 264 l 1,7,-1
 430 0 l 1,4,-1
EndSplineSet
EndChar

StartChar: uni01DD
Encoding: 477 477 350
Width: 1095
GlyphClass: 1
Flags: W
LayerCount: 2
Fore
SplineSet
543 -12 m 0,0,1
 364 -12 364 -12 255 62.5 c 128,-1,2
 146 137 146 137 99.5 256.5 c 128,-1,3
 53 376 53 376 53 522 c 0,4,5
 53 568 53 568 61 600 c 1,6,-1
 775 600 l 1,7,8
 764 701 764 701 703 762.5 c 128,-1,9
 642 824 642 824 526 824 c 0,10,11
 433 824 433 824 374.5 801 c 128,-1,12
 316 778 316 778 266 723 c 1,13,-1
 92 880 l 1,14,15
 176 967 176 967 281.5 1009.5 c 128,-1,16
 387 1052 387 1052 524 1052 c 0,17,18
 653 1052 653 1052 751 1009.5 c 128,-1,19
 849 967 849 967 914 893.5 c 128,-1,20
 979 820 979 820 1011.5 725.5 c 128,-1,21
 1044 631 1044 631 1044 526 c 0,22,23
 1044 391 1044 391 990 268 c 128,-1,24
 936 145 936 145 818 64 c 0,25,26
 705 -12 705 -12 543 -12 c 0,0,1
543 193 m 0,27,28
 613 193 613 193 660.5 222.5 c 128,-1,29
 708 252 708 252 736 304 c 128,-1,30
 764 356 764 356 775 423 c 1,31,-1
 303 423 l 1,32,33
 329 193 329 193 543 193 c 0,27,28
EndSplineSet
EndChar

StartChar: uni01EB
Encoding: 491 491 354
Width: 1142
GlyphClass: 1
Flags: W
LayerCount: 2
Fore
SplineSet
601 -451 m 0,0,1
 500 -451 500 -451 434.5 -393 c 128,-1,2
 369 -335 369 -335 369 -241 c 0,3,4
 369 -160 369 -160 411.5 -101.5 c 128,-1,5
 454 -43 454 -43 506 -7 c 1,6,7
 294 21 294 21 173.5 170.5 c 128,-1,8
 53 320 53 320 53 521 c 0,9,10
 53 660 53 660 115.5 782 c 128,-1,11
 178 904 178 904 302 981 c 0,12,13
 420 1052 420 1052 572 1052 c 0,14,15
 732 1052 732 1052 849 978.5 c 128,-1,16
 966 905 966 905 1029 784 c 128,-1,17
 1092 663 1092 663 1092 521 c 0,18,19
 1092 333 1092 333 992 196.5 c 128,-1,20
 892 60 892 60 726 11 c 1,21,-1
 732 11 l 1,22,23
 713 6 713 6 677.5 -12 c 128,-1,24
 642 -30 642 -30 604.5 -57.5 c 128,-1,25
 567 -85 567 -85 540.5 -123.5 c 128,-1,26
 514 -162 514 -162 514 -210 c 0,27,28
 514 -260 514 -260 534.5 -280.5 c 128,-1,29
 555 -301 555 -301 591 -301 c 0,30,31
 654 -301 654 -301 699 -242 c 1,32,-1
 825 -328 l 1,33,34
 743 -451 743 -451 601 -451 c 0,0,1
572 208 m 0,35,36
 707 208 707 208 772.5 297 c 128,-1,37
 838 386 838 386 838 525 c 0,38,39
 838 663 838 663 772.5 752 c 128,-1,40
 707 841 707 841 572 841 c 0,41,42
 479 841 479 841 421 798.5 c 128,-1,43
 363 756 363 756 335 684 c 128,-1,44
 307 612 307 612 307 525 c 0,45,46
 307 386 307 386 372.5 297 c 128,-1,47
 438 208 438 208 572 208 c 0,35,36
EndSplineSet
EndChar

StartChar: uni0237
Encoding: 567 567 368
Width: 539
GlyphClass: 2
Flags: W
LayerCount: 2
Fore
SplineSet
88 -438 m 0,0,1
 7 -438 7 -438 -81 -406 c 1,2,-1
 -24 -205 l 1,3,4
 36 -219 36 -219 85 -219 c 0,5,6
 123 -219 123 -219 139.5 -196.5 c 128,-1,7
 156 -174 156 -174 156 -120 c 2,8,-1
 156 1039 l 1,9,-1
 389 1039 l 1,10,-1
 389 -106 l 2,11,12
 389 -197 389 -197 358 -272.5 c 128,-1,13
 327 -348 327 -348 260.5 -393 c 128,-1,14
 194 -438 194 -438 88 -438 c 0,0,1
EndSplineSet
EndChar

StartChar: uni0250
Encoding: 592 592 369
Width: 1112
GlyphClass: 1
Flags: W
LayerCount: 2
Fore
SplineSet
592 -20 m 0,0,1
 450 -20 450 -20 351.5 34.5 c 128,-1,2
 253 89 253 89 202 184.5 c 128,-1,3
 151 280 151 280 151 405 c 2,4,-1
 151 1035 l 1,5,-1
 342 1035 l 1,6,-1
 368 892 l 1,7,8
 428 977 428 977 507 1016.5 c 128,-1,9
 586 1056 586 1056 698 1056 c 0,10,11
 792 1056 792 1056 878 1017 c 128,-1,12
 964 978 964 978 1020 899 c 0,13,14
 1071 823 1071 823 1072 725 c 0,15,16
 1072 418 1072 418 651 418 c 2,17,-1
 385 418 l 1,18,19
 385 193 385 193 600 193 c 0,20,21
 677 193 677 193 738.5 236.5 c 128,-1,22
 800 280 800 280 834 342 c 1,23,-1
 1020 195 l 1,24,25
 937 83 937 83 831.5 31.5 c 128,-1,26
 726 -20 726 -20 592 -20 c 0,0,1
641 594 m 2,27,28
 725 594 725 594 773.5 634 c 128,-1,29
 822 674 822 674 822 726 c 0,30,31
 822 782 822 782 774.5 815.5 c 128,-1,32
 727 849 727 849 655 849 c 0,33,34
 580 849 580 849 520 812.5 c 128,-1,35
 460 776 460 776 424 718 c 128,-1,36
 388 660 388 660 385 594 c 1,37,-1
 641 594 l 2,27,28
EndSplineSet
EndChar

StartChar: uni0254
Encoding: 596 596 370
Width: 1025
GlyphClass: 1
Flags: W
LayerCount: 2
Fore
SplineSet
479 -20 m 0,0,1
 321 -20 321 -20 206.5 60.5 c 128,-1,2
 92 141 92 141 34 274 c 1,3,-1
 275 370 l 1,4,5
 298 290 298 290 353.5 249.5 c 128,-1,6
 409 209 409 209 484 209 c 0,7,8
 607 209 607 209 666.5 297 c 128,-1,9
 726 385 726 385 726 518 c 0,10,11
 726 652 726 652 666.5 739 c 128,-1,12
 607 826 607 826 484 826 c 0,13,14
 405 826 405 826 350 782 c 128,-1,15
 295 738 295 738 275 665 c 1,16,-1
 45 754 l 1,17,18
 96 895 96 895 208 975.5 c 128,-1,19
 320 1056 320 1056 477 1056 c 0,20,21
 638 1056 638 1056 750 981 c 0,22,23
 867 900 867 900 920.5 777 c 128,-1,24
 974 654 974 654 974 518 c 0,25,26
 974 383 974 383 920.5 260 c 128,-1,27
 867 137 867 137 752 56 c 0,28,29
 640 -20 640 -20 479 -20 c 0,0,1
EndSplineSet
EndChar

StartChar: uni0258
Encoding: 600 600 371
Width: 1095
GlyphClass: 1
Flags: W
LayerCount: 2
Fore
SplineSet
524 -12 m 0,0,1
 387 -12 387 -12 281.5 30.5 c 128,-1,2
 176 73 176 73 92 160 c 1,3,-1
 266 316 l 1,4,5
 316 261 316 261 375 238 c 128,-1,6
 434 215 434 215 526 215 c 0,7,8
 641 215 641 215 702 277 c 128,-1,9
 763 339 763 339 775 440 c 1,10,-1
 61 440 l 1,11,12
 53 471 53 471 53 518 c 0,13,14
 53 664 53 664 99.5 783.5 c 128,-1,15
 146 903 146 903 255 977.5 c 128,-1,16
 364 1052 364 1052 543 1052 c 0,17,18
 669 1052 669 1052 763 1007.5 c 128,-1,19
 857 963 857 963 919.5 887 c 128,-1,20
 982 811 982 811 1013 714.5 c 128,-1,21
 1044 618 1044 618 1044 514 c 0,22,23
 1044 378 1044 378 987.5 257.5 c 128,-1,24
 931 137 931 137 809 60 c 0,25,26
 691 -12 691 -12 524 -12 c 0,0,1
775 616 m 1,27,28
 765 684 765 684 736.5 736 c 128,-1,29
 708 788 708 788 660.5 817.5 c 128,-1,30
 613 847 613 847 543 847 c 0,31,32
 330 847 330 847 303 616 c 1,33,-1
 775 616 l 1,27,28
EndSplineSet
EndChar

StartChar: uni0259
Encoding: 601 601 372
Width: 1095
GlyphClass: 1
Flags: W
LayerCount: 2
Fore
SplineSet
543 -12 m 0,0,1
 364 -12 364 -12 255 62.5 c 128,-1,2
 146 137 146 137 99.5 256.5 c 128,-1,3
 53 376 53 376 53 522 c 0,4,5
 53 568 53 568 61 600 c 1,6,-1
 775 600 l 1,7,8
 764 701 764 701 703 762.5 c 128,-1,9
 642 824 642 824 526 824 c 0,10,11
 433 824 433 824 374.5 801 c 128,-1,12
 316 778 316 778 266 723 c 1,13,-1
 92 880 l 1,14,15
 176 967 176 967 281.5 1009.5 c 128,-1,16
 387 1052 387 1052 524 1052 c 0,17,18
 653 1052 653 1052 751 1009.5 c 128,-1,19
 849 967 849 967 914 893.5 c 128,-1,20
 979 820 979 820 1011.5 725.5 c 128,-1,21
 1044 631 1044 631 1044 526 c 0,22,23
 1044 391 1044 391 990 268 c 128,-1,24
 936 145 936 145 818 64 c 0,25,26
 705 -12 705 -12 543 -12 c 0,0,1
543 193 m 0,27,28
 613 193 613 193 660.5 222.5 c 128,-1,29
 708 252 708 252 736 304 c 128,-1,30
 764 356 764 356 775 423 c 1,31,-1
 303 423 l 1,32,33
 329 193 329 193 543 193 c 0,27,28
EndSplineSet
EndChar

StartChar: uni02D0
Encoding: 720 720 377
Width: 561
GlyphClass: 1
Flags: W
LayerCount: 2
Fore
SplineSet
281 522 m 1,0,-1
 29 999 l 1,1,-1
 532 999 l 1,2,-1
 281 522 l 1,0,-1
532 0 m 1,3,-1
 29 0 l 1,4,-1
 281 477 l 1,5,-1
 532 0 l 1,3,-1
EndSplineSet
EndChar

StartChar: uni02D1
Encoding: 721 721 378
Width: 561
GlyphClass: 1
Flags: W
LayerCount: 2
Fore
SplineSet
281 211 m 1,0,-1
 29 690 l 1,1,-1
 532 690 l 1,2,-1
 281 211 l 1,0,-1
EndSplineSet
EndChar

StartChar: uni02F5
Encoding: 757 757 385
Width: 1049
GlyphClass: 1
Flags: W
LayerCount: 2
Fore
SplineSet
573 670 m 1,0,-1
 395 670 l 1,1,-1
 88 999 l 1,2,-1
 348 999 l 1,3,-1
 573 670 l 1,0,-1
942 670 m 1,4,-1
 764 670 l 1,5,-1
 457 999 l 1,6,-1
 717 999 l 1,7,-1
 942 670 l 1,4,-1
EndSplineSet
EndChar

StartChar: uni02F6
Encoding: 758 758 386
Width: 1049
GlyphClass: 1
Flags: W
LayerCount: 2
Fore
SplineSet
285 670 m 1,0,-1
 106 670 l 1,1,-1
 332 999 l 1,2,-1
 592 999 l 1,3,-1
 285 670 l 1,0,-1
653 670 m 1,4,-1
 475 670 l 1,5,-1
 700 999 l 1,6,-1
 961 999 l 1,7,-1
 653 670 l 1,4,-1
EndSplineSet
EndChar

StartChar: gravecomb
Encoding: 768 768 387
Width: 0
VWidth: 2040
GlyphClass: 4
Flags: W
AnchorPoint: "Anchor-1" -145 1059 mark 0
LayerCount: 2
Fore
SplineSet
-32 1164 m 1,0,-1
 -210 1164 l 1,1,-1
 -518 1473 l 1,2,-1
 -258 1473 l 1,3,-1
 -32 1164 l 1,0,-1
EndSplineSet
EndChar

StartChar: acutecomb
Encoding: 769 769 388
Width: 0
VWidth: 2040
GlyphClass: 4
Flags: W
AnchorPoint: "Anchor-1" -342 1039 mark 0
LayerCount: 2
Fore
SplineSet
-326 1164 m 5,0,-1
 -504 1164 l 1,1,-1
 -279 1453 l 1,2,-1
 -19 1453 l 1,3,-1
 -326 1164 l 5,0,-1
EndSplineSet
EndChar

StartChar: uni0302
Encoding: 770 770 389
Width: 0
VWidth: 2040
GlyphClass: 4
Flags: W
AnchorPoint: "Anchor-1" -325 1039 mark 0
LayerCount: 2
Fore
SplineSet
-10 1138 m 1,0,-1
 -198 1138 l 1,1,-1
 -327 1283 l 1,2,-1
 -454 1138 l 1,3,-1
 -643 1138 l 1,4,-1
 -327 1490 l 1,5,-1
 -10 1138 l 1,0,-1
EndSplineSet
EndChar

StartChar: tildecomb
Encoding: 771 771 390
Width: 0
VWidth: 2040
GlyphClass: 4
Flags: W
AnchorPoint: "Anchor-1" -436 1060 mark 0
LayerCount: 2
Fore
SplineSet
-309 1166 m 0,0,1
 -371 1166 -371 1166 -411.5 1191 c 128,-1,2
 -452 1216 -452 1216 -489 1258 c 0,3,4
 -515 1285 -515 1285 -532.5 1297.5 c 128,-1,5
 -550 1310 -550 1310 -569 1310 c 0,6,7
 -633 1310 -633 1310 -634 1173 c 1,8,-1
 -774 1173 l 1,9,10
 -774 1317 -774 1317 -714.5 1388 c 128,-1,11
 -655 1459 -655 1459 -561 1459 c 0,12,13
 -508 1459 -508 1459 -469.5 1436.5 c 128,-1,14
 -431 1414 -431 1414 -388 1370 c 0,15,16
 -360 1342 -360 1342 -342.5 1330 c 128,-1,17
 -325 1318 -325 1318 -307 1318 c 0,18,19
 -281 1318 -281 1318 -263 1352 c 128,-1,20
 -245 1386 -245 1386 -245 1453 c 1,21,-1
 -100 1453 l 1,22,23
 -100 1311 -100 1311 -157 1238.5 c 128,-1,24
 -214 1166 -214 1166 -309 1166 c 0,0,1
EndSplineSet
EndChar

StartChar: uni0304
Encoding: 772 772 391
Width: 0
VWidth: 2040
GlyphClass: 4
Flags: W
AnchorPoint: "Anchor-1" -418 1039 mark 0
LayerCount: 2
Fore
SplineSet
-140 1187 m 1,0,-1
 -699 1187 l 1,1,-1
 -699 1330 l 1,2,-1
 -140 1330 l 1,3,-1
 -140 1187 l 1,0,-1
EndSplineSet
EndChar

StartChar: uni0306
Encoding: 774 774 392
Width: 0
VWidth: 2040
GlyphClass: 4
Flags: W
AnchorPoint: "Anchor-1" -405 1039 mark 0
LayerCount: 2
Fore
SplineSet
-405 1183 m 0,0,1
 -721 1183 -721 1183 -721 1453 c 1,2,-1
 -549 1453 l 1,3,4
 -549 1387 -549 1387 -507.5 1356.5 c 128,-1,5
 -466 1326 -466 1326 -405 1326 c 256,6,7
 -344 1326 -344 1326 -303 1357.5 c 128,-1,8
 -262 1389 -262 1389 -262 1453 c 1,9,-1
 -90 1453 l 1,10,11
 -90 1183 -90 1183 -405 1183 c 0,0,1
EndSplineSet
EndChar

StartChar: uni0307
Encoding: 775 775 393
Width: 0
VWidth: 2040
GlyphClass: 4
Flags: W
AnchorPoint: "Anchor-1" -269 1039 mark 0
LayerCount: 2
Fore
SplineSet
-142 1228 m 1,0,-1
 -398 1228 l 1,1,-1
 -398 1453 l 1,2,-1
 -142 1453 l 1,3,-1
 -142 1228 l 1,0,-1
EndSplineSet
EndChar

StartChar: uni0308
Encoding: 776 776 394
Width: 0
VWidth: 2040
GlyphClass: 4
Flags: W
AnchorPoint: "Anchor-1" -420 1039 mark 0
LayerCount: 2
Fore
SplineSet
-496 1228 m 1,0,-1
 -701 1228 l 1,1,-1
 -701 1453 l 1,2,-1
 -496 1453 l 1,3,-1
 -496 1228 l 1,0,-1
-142 1228 m 1,4,-1
 -346 1228 l 1,5,-1
 -346 1453 l 1,6,-1
 -142 1453 l 1,7,-1
 -142 1228 l 1,4,-1
EndSplineSet
EndChar

StartChar: hookabovecomb
Encoding: 777 777 395
Width: 0
VWidth: 2040
GlyphClass: 4
Flags: W
AnchorPoint: "Anchor-1" -300 1026 mark 0
LayerCount: 2
Fore
SplineSet
-341 1072 m 1,0,-1
 -368 1168 l 1,1,-1
 -319 1176 l 2,2,3
 -238 1188 -238 1188 -238 1252 c 0,4,5
 -238 1299 -238 1299 -282 1316 c 0,6,7
 -311 1327 -311 1327 -344.5 1330 c 128,-1,8
 -378 1333 -378 1333 -432 1333 c 1,9,-1
 -432 1476 l 1,10,-1
 -401 1476 l 2,11,12
 -306 1476 -306 1476 -232 1452.5 c 128,-1,13
 -158 1429 -158 1429 -116 1383 c 128,-1,14
 -74 1337 -74 1337 -74 1268 c 0,15,16
 -74 1146 -74 1146 -205 1102 c 0,17,18
 -257 1084 -257 1084 -341 1072 c 1,0,-1
EndSplineSet
EndChar

StartChar: uni030A
Encoding: 778 778 396
Width: 0
VWidth: 2040
GlyphClass: 4
Flags: W
AnchorPoint: "Anchor-1" -316 1039 mark 0
LayerCount: 2
Fore
SplineSet
-318 1109 m 0,0,1
 -386 1109 -386 1109 -437.5 1142.5 c 128,-1,2
 -489 1176 -489 1176 -518 1228.5 c 128,-1,3
 -547 1281 -547 1281 -547 1340 c 0,4,5
 -547 1408 -547 1408 -514.5 1459.5 c 128,-1,6
 -482 1511 -482 1511 -430 1540.5 c 128,-1,7
 -378 1570 -378 1570 -318 1570 c 0,8,9
 -218 1570 -218 1570 -152 1501.5 c 128,-1,10
 -86 1433 -86 1433 -86 1340 c 0,11,12
 -86 1239 -86 1239 -155.5 1174 c 128,-1,13
 -225 1109 -225 1109 -318 1109 c 0,0,1
-318 1240 m 0,14,15
 -271 1240 -271 1240 -244 1269.5 c 128,-1,16
 -217 1299 -217 1299 -217 1343 c 0,17,18
 -217 1383 -217 1383 -243 1411 c 128,-1,19
 -269 1439 -269 1439 -318 1439 c 0,20,21
 -364 1439 -364 1439 -390 1411.5 c 128,-1,22
 -416 1384 -416 1384 -416 1343 c 0,23,24
 -416 1297 -416 1297 -387.5 1268.5 c 128,-1,25
 -359 1240 -359 1240 -318 1240 c 0,14,15
EndSplineSet
EndChar

StartChar: uni030B
Encoding: 779 779 397
Width: 0
VWidth: 2040
GlyphClass: 4
Flags: W
AnchorPoint: "Anchor-1" -547 1039 mark 0
LayerCount: 2
Fore
SplineSet
-670 1123 m 1,0,-1
 -848 1123 l 1,1,-1
 -623 1453 l 1,2,-1
 -404 1453 l 1,3,-1
 -670 1123 l 1,0,-1
-322 1123 m 1,4,-1
 -500 1123 l 1,5,-1
 -275 1453 l 1,6,-1
 -15 1453 l 1,7,-1
 -322 1123 l 1,4,-1
EndSplineSet
EndChar

StartChar: uni030C
Encoding: 780 780 398
Width: 0
VWidth: 2040
GlyphClass: 4
Flags: W
AnchorPoint: "Anchor-1" -327 1039 mark 0
LayerCount: 2
Fore
SplineSet
-329 1119 m 1,0,-1
 -645 1451 l 1,1,-1
 -456 1451 l 1,2,-1
 -329 1316 l 1,3,-1
 -200 1451 l 1,4,-1
 -12 1451 l 1,5,-1
 -329 1119 l 1,0,-1
EndSplineSet
EndChar

StartChar: uni030F
Encoding: 783 783 399
Width: 0
VWidth: 2040
GlyphClass: 4
Flags: W
AnchorPoint: "Anchor-1" -342 1039 mark 0
LayerCount: 2
Fore
SplineSet
-403 1123 m 1,0,-1
 -581 1123 l 1,1,-1
 -889 1453 l 1,2,-1
 -629 1453 l 1,3,-1
 -403 1123 l 1,0,-1
-35 1123 m 1,4,-1
 -213 1123 l 1,5,-1
 -520 1453 l 1,6,-1
 -260 1453 l 1,7,-1
 -35 1123 l 1,4,-1
EndSplineSet
EndChar

StartChar: uni0312
Encoding: 786 786 400
Width: 0
VWidth: 2040
GlyphClass: 4
Flags: W
AnchorPoint: "Anchor-1" -291 1039 mark 0
LayerCount: 2
Fore
SplineSet
-213 1159 m 1,0,-1
 -467 1159 l 1,1,-1
 -219 1474 l 1,2,-1
 -78 1474 l 1,3,-1
 -213 1159 l 1,0,-1
EndSplineSet
EndChar

StartChar: uni031B
Encoding: 795 795 401
Width: 0
GlyphClass: 1
Flags: W
LayerCount: 2
Fore
SplineSet
-396 987 m 1,0,-1
 -396 1139 l 1,1,2
 -247 1139 -247 1139 -247 1316 c 2,3,-1
 -247 1394 l 1,4,-1
 -86 1394 l 1,5,-1
 -86 1314 l 2,6,7
 -86 1168 -86 1168 -162 1077.5 c 128,-1,8
 -238 987 -238 987 -396 987 c 1,0,-1
EndSplineSet
EndChar

StartChar: dotbelowcomb
Encoding: 803 803 402
Width: 0
GlyphClass: 4
Flags: W
AnchorPoint: "Anchor-1" -269 -561 mark 0
LayerCount: 2
Fore
SplineSet
-142 -372 m 1,0,-1
 -398 -372 l 1,1,-1
 -398 -147 l 1,2,-1
 -142 -147 l 1,3,-1
 -142 -372 l 1,0,-1
EndSplineSet
EndChar

StartChar: uni0326
Encoding: 806 806 403
Width: 0
GlyphClass: 4
Flags: W
AnchorPoint: "Anchor-3" -244 -459 basemark 0
AnchorPoint: "Anchor-3" -177 0 mark 0
AnchorPoint: "Anchor-0" -177 0 mark 0
LayerCount: 2
Fore
SplineSet
-277 -459 m 1,0,-1
 -418 -459 l 1,1,-1
 -283 -106 l 1,2,-1
 -29 -106 l 1,3,-1
 -277 -459 l 1,0,-1
EndSplineSet
EndChar

StartChar: uni0327
Encoding: 807 807 404
Width: 0
GlyphClass: 4
Flags: W
AnchorPoint: "Anchor-3" -285 -500 basemark 0
AnchorPoint: "Anchor-3" -262 0 mark 0
AnchorPoint: "Anchor-0" -262 0 mark 0
LayerCount: 2
Fore
SplineSet
-305 -522 m 0,0,1
 -370 -522 -370 -522 -423.5 -485.5 c 128,-1,2
 -477 -449 -477 -449 -502 -393 c 1,3,-1
 -366 -336 l 1,4,5
 -358 -356 -358 -356 -340.5 -369.5 c 128,-1,6
 -323 -383 -323 -383 -299 -383 c 0,7,8
 -264 -383 -264 -383 -241.5 -361 c 128,-1,9
 -219 -339 -219 -339 -219 -305 c 0,10,11
 -219 -256 -219 -256 -266.5 -225.5 c 128,-1,12
 -314 -195 -314 -195 -387 -195 c 2,13,-1
 -457 -195 l 1,14,-1
 -334 -2 l 1,15,-1
 -190 -2 l 1,16,-1
 -266 -100 l 1,17,18
 -170 -114 -170 -114 -123 -166.5 c 128,-1,19
 -76 -219 -76 -219 -76 -297 c 0,20,21
 -76 -398 -76 -398 -144 -460 c 128,-1,22
 -212 -522 -212 -522 -305 -522 c 0,0,1
EndSplineSet
EndChar

StartChar: uni0328
Encoding: 808 808 405
Width: 0
GlyphClass: 4
Flags: W
AnchorPoint: "Anchor-2" -169 0 mark 0
LayerCount: 2
Fore
SplineSet
-262 -451 m 0,0,1
 -326 -451 -326 -451 -377.5 -425 c 128,-1,2
 -429 -399 -429 -399 -458 -352.5 c 128,-1,3
 -487 -306 -487 -306 -487 -246 c 0,4,5
 -487 -174 -487 -174 -450.5 -119.5 c 128,-1,6
 -414 -65 -414 -65 -368 -30 c 0,7,8
 -329 0 -329 0 -323 0 c 2,9,-1
 -133 0 l 1,10,11
 -156 -7 -156 -7 -205.5 -34.5 c 128,-1,12
 -255 -62 -255 -62 -298.5 -108 c 128,-1,13
 -342 -154 -342 -154 -342 -213 c 0,14,15
 -342 -262 -342 -262 -322 -281.5 c 128,-1,16
 -302 -301 -302 -301 -268 -301 c 0,17,18
 -206 -301 -206 -301 -165 -244 c 1,19,-1
 -43 -328 l 1,20,21
 -124 -451 -124 -451 -262 -451 c 0,0,1
EndSplineSet
EndChar

StartChar: pi
Encoding: 960 960 406
Width: 1022
GlyphClass: 1
Flags: W
LayerCount: 2
Fore
SplineSet
854 -20 m 0,0,1
 738 -20 738 -20 677 56 c 128,-1,2
 616 132 616 132 616 251 c 2,3,-1
 616 835 l 1,4,-1
 380 835 l 1,5,-1
 380 0 l 1,6,-1
 175 0 l 1,7,-1
 175 835 l 1,8,-1
 89 835 l 1,9,-1
 89 1039 l 1,10,-1
 906 1039 l 1,11,-1
 906 835 l 1,12,-1
 821 835 l 1,13,-1
 821 277 l 2,14,15
 821 160 821 160 868 160 c 0,16,17
 890 160 890 160 910 175 c 1,18,-1
 978 14 l 1,19,20
 926 -20 926 -20 854 -20 c 0,0,1
EndSplineSet
EndChar

StartChar: uni0402
Encoding: 1026 1026 409
Width: 1610
GlyphClass: 1
Flags: W
LayerCount: 2
Fore
SplineSet
1094 -20 m 0,0,1
 1020 -20 1020 -20 928 18 c 128,-1,2
 836 56 836 56 776 106 c 1,3,-1
 897 283 l 1,4,5
 931 252 931 252 972.5 235.5 c 128,-1,6
 1014 219 1014 219 1053 219 c 0,7,8
 1161 219 1161 219 1225.5 267.5 c 128,-1,9
 1290 316 1290 316 1290 414 c 0,10,11
 1290 534 1290 534 1262.5 607 c 128,-1,12
 1235 680 1235 680 1174 718 c 128,-1,13
 1113 756 1113 756 1004 756 c 0,14,15
 821 756 821 756 717 637 c 1,16,-1
 717 0 l 1,17,-1
 463 0 l 1,18,-1
 463 1184 l 1,19,-1
 20 1184 l 1,20,-1
 20 1411 l 1,21,-1
 1159 1411 l 1,22,-1
 1159 1184 l 1,23,-1
 717 1184 l 1,24,-1
 717 930 l 1,25,26
 859 1001 859 1001 1004 1001 c 0,27,28
 1278 1001 1278 1001 1411 850.5 c 128,-1,29
 1544 700 1544 700 1544 430 c 0,30,31
 1544 -20 1544 -20 1094 -20 c 0,0,1
EndSplineSet
Position2: "'cpsp' Capital Spacing lookup 0 subtable" dx=5 dy=0 dh=10 dv=0
EndChar

StartChar: uni0403
Encoding: 1027 1027 410
Width: 1065
GlyphClass: 1
Flags: W
LayerCount: 2
Fore
SplineSet
639 1536 m 1,0,-1
 461 1536 l 1,1,-1
 686 1825 l 1,2,-1
 946 1825 l 1,3,-1
 639 1536 l 1,0,-1
436 0 m 1,4,-1
 182 0 l 1,5,-1
 182 1411 l 1,6,-1
 1044 1411 l 1,7,-1
 1044 1178 l 1,8,-1
 436 1178 l 1,9,-1
 436 0 l 1,4,-1
EndSplineSet
Position2: "'cpsp' Capital Spacing lookup 0 subtable" dx=5 dy=0 dh=10 dv=0
EndChar

StartChar: uni0404
Encoding: 1028 1028 411
Width: 1432
GlyphClass: 1
Flags: W
LayerCount: 2
Fore
SplineSet
766 -20 m 0,0,1
 542 -20 542 -20 388 78 c 0,2,3
 281 147 281 147 213 245.5 c 128,-1,4
 145 344 145 344 113.5 462 c 128,-1,5
 82 580 82 580 82 707 c 256,6,7
 82 834 82 834 113.5 952 c 128,-1,8
 145 1070 145 1070 212.5 1168.5 c 128,-1,9
 280 1267 280 1267 387 1337 c 0,10,11
 541 1436 541 1436 764 1436 c 0,12,13
 965 1436 965 1436 1127.5 1336 c 128,-1,14
 1290 1236 1290 1236 1382 1030 c 1,15,-1
 1145 936 l 1,16,17
 1069 1194 1069 1194 762 1194 c 0,18,19
 577 1194 577 1194 472 1092.5 c 128,-1,20
 367 991 367 991 342 823 c 1,21,-1
 909 823 l 1,22,-1
 909 590 l 1,23,-1
 344 590 l 1,24,25
 372 419 372 419 477 320 c 128,-1,26
 582 221 582 221 766 221 c 0,27,28
 911 221 911 221 1003.5 285.5 c 128,-1,29
 1096 350 1096 350 1149 483 c 1,30,-1
 1384 387 l 1,31,32
 1295 181 1295 181 1131.5 80.5 c 128,-1,33
 968 -20 968 -20 766 -20 c 0,0,1
EndSplineSet
Position2: "'cpsp' Capital Spacing lookup 0 subtable" dx=5 dy=0 dh=10 dv=0
EndChar

StartChar: uni0409
Encoding: 1033 1033 416
Width: 1935
GlyphClass: 1
Flags: W
LayerCount: 2
Fore
SplineSet
217 -20 m 0,0,1
 156 -20 156 -20 107 -5.5 c 128,-1,2
 58 9 58 9 6 41 c 1,3,-1
 76 227 l 1,4,5
 142 205 142 205 195 205 c 0,6,7
 247 205 247 205 267 421 c 128,-1,8
 287 637 287 637 287 893 c 2,9,-1
 287 1411 l 1,10,-1
 1202 1411 l 1,11,-1
 1202 825 l 1,12,-1
 1393 825 l 2,13,14
 1534 825 1534 825 1647 778.5 c 128,-1,15
 1760 732 1760 732 1826 641 c 128,-1,16
 1892 550 1892 550 1892 416 c 0,17,18
 1892 283 1892 283 1826.5 190 c 128,-1,19
 1761 97 1761 97 1648.5 48.5 c 128,-1,20
 1536 0 1536 0 1393 0 c 2,21,-1
 950 0 l 1,22,-1
 950 1178 l 1,23,-1
 541 1178 l 1,24,-1
 541 895 l 2,25,26
 541 635 541 635 523 446 c 128,-1,27
 505 257 505 257 433.5 118.5 c 128,-1,28
 362 -20 362 -20 217 -20 c 0,0,1
1393 238 m 2,29,30
 1640 238 1640 238 1640 416 c 0,31,32
 1640 506 1640 506 1577.5 547 c 128,-1,33
 1515 588 1515 588 1393 588 c 2,34,-1
 1202 588 l 1,35,-1
 1202 238 l 1,36,-1
 1393 238 l 2,29,30
EndSplineSet
Position2: "'cpsp' Capital Spacing lookup 0 subtable" dx=5 dy=0 dh=10 dv=0
EndChar

StartChar: uni040A
Encoding: 1034 1034 417
Width: 2040
GlyphClass: 1
Flags: W
LayerCount: 2
Fore
SplineSet
1497 0 m 2,0,-1
 1055 0 l 1,1,-1
 1055 590 l 1,2,-1
 436 590 l 1,3,-1
 436 0 l 1,4,-1
 182 0 l 1,5,-1
 182 1411 l 1,6,-1
 436 1411 l 1,7,-1
 436 823 l 1,8,-1
 1055 823 l 1,9,-1
 1055 1411 l 1,10,-1
 1309 1411 l 1,11,-1
 1309 825 l 1,12,-1
 1497 825 l 2,13,14
 1639 825 1639 825 1752 778.5 c 128,-1,15
 1865 732 1865 732 1931 641 c 128,-1,16
 1997 550 1997 550 1997 416 c 256,17,18
 1997 282 1997 282 1931.5 189.5 c 128,-1,19
 1866 97 1866 97 1752.5 48.5 c 128,-1,20
 1639 0 1639 0 1497 0 c 2,0,-1
1497 238 m 2,21,22
 1745 238 1745 238 1745 416 c 0,23,24
 1745 505 1745 505 1682.5 546.5 c 128,-1,25
 1620 588 1620 588 1497 588 c 2,26,-1
 1309 588 l 1,27,-1
 1309 238 l 1,28,-1
 1497 238 l 2,21,22
EndSplineSet
Position2: "'cpsp' Capital Spacing lookup 0 subtable" dx=5 dy=0 dh=10 dv=0
EndChar

StartChar: uni040B
Encoding: 1035 1035 418
Width: 1632
GlyphClass: 1
Flags: W
LayerCount: 2
Fore
SplineSet
1544 0 m 1,0,-1
 1290 0 l 1,1,-1
 1290 401 l 2,2,3
 1290 527 1290 527 1263.5 603 c 128,-1,4
 1237 679 1237 679 1178 716 c 0,5,6
 1115 756 1115 756 1004 756 c 0,7,8
 821 756 821 756 717 637 c 1,9,-1
 717 0 l 1,10,-1
 463 0 l 1,11,-1
 463 1184 l 1,12,-1
 20 1184 l 1,13,-1
 20 1411 l 1,14,-1
 1159 1411 l 1,15,-1
 1159 1184 l 1,16,-1
 717 1184 l 1,17,-1
 717 930 l 1,18,19
 859 1001 859 1001 1004 1001 c 0,20,21
 1278 1001 1278 1001 1411 850.5 c 128,-1,22
 1544 700 1544 700 1544 430 c 2,23,-1
 1544 0 l 1,0,-1
EndSplineSet
Position2: "'cpsp' Capital Spacing lookup 0 subtable" dx=5 dy=0 dh=10 dv=0
EndChar

StartChar: uni040F
Encoding: 1039 1039 422
Width: 1491
GlyphClass: 1
Flags: W
LayerCount: 2
Fore
SplineSet
872 -307 m 1,0,-1
 618 -307 l 1,1,-1
 618 0 l 1,2,-1
 182 0 l 1,3,-1
 182 1411 l 1,4,-1
 436 1411 l 1,5,-1
 436 233 l 1,6,-1
 1055 233 l 1,7,-1
 1055 1411 l 1,8,-1
 1309 1411 l 1,9,-1
 1309 0 l 1,10,-1
 872 0 l 1,11,-1
 872 -307 l 1,0,-1
EndSplineSet
Position2: "'cpsp' Capital Spacing lookup 0 subtable" dx=5 dy=0 dh=10 dv=0
EndChar

StartChar: uni0411
Encoding: 1041 1041 424
Width: 1274
GlyphClass: 1
Flags: W
LayerCount: 2
Fore
SplineSet
733 0 m 2,0,-1
 182 0 l 1,1,-1
 182 1411 l 1,2,-1
 1006 1411 l 1,3,-1
 1006 1182 l 1,4,-1
 436 1182 l 1,5,-1
 436 844 l 1,6,-1
 737 844 l 2,7,8
 894 844 894 844 995.5 788.5 c 128,-1,9
 1097 733 1097 733 1145.5 635 c 128,-1,10
 1194 537 1194 537 1194 410 c 0,11,12
 1194 277 1194 277 1128.5 185.5 c 128,-1,13
 1063 94 1063 94 957.5 47 c 128,-1,14
 852 0 852 0 733 0 c 2,0,-1
737 242 m 2,15,16
 832 242 832 242 888 288.5 c 128,-1,17
 944 335 944 335 944 438 c 0,18,19
 944 515 944 515 885 570 c 128,-1,20
 826 625 826 625 727 625 c 2,21,-1
 436 625 l 1,22,-1
 436 242 l 1,23,-1
 737 242 l 2,15,16
EndSplineSet
Position2: "'cpsp' Capital Spacing lookup 0 subtable" dx=5 dy=0 dh=10 dv=0
EndChar

StartChar: uni0413
Encoding: 1043 1043 426
Width: 1065
GlyphClass: 1
Flags: W
LayerCount: 2
Fore
SplineSet
436 0 m 1,0,-1
 182 0 l 1,1,-1
 182 1411 l 1,2,-1
 1044 1411 l 1,3,-1
 1044 1178 l 1,4,-1
 436 1178 l 1,5,-1
 436 0 l 1,0,-1
EndSplineSet
Position2: "'cpsp' Capital Spacing lookup 0 subtable" dx=5 dy=0 dh=10 dv=0
EndChar

StartChar: uni0414
Encoding: 1044 1044 427
Width: 1470
GlyphClass: 2
Flags: W
LayerCount: 2
Fore
SplineSet
1413 -307 m 1,0,-1
 1159 -307 l 1,1,-1
 1159 0 l 1,2,-1
 274 0 l 1,3,-1
 274 -305 l 1,4,-1
 20 -307 l 1,5,-1
 20 223 l 1,6,-1
 203 223 l 1,7,8
 332 512 332 512 332 893 c 2,9,-1
 332 1411 l 1,10,-1
 1249 1411 l 1,11,-1
 1249 223 l 1,12,-1
 1413 223 l 1,13,-1
 1413 -307 l 1,0,-1
995 223 m 1,14,-1
 995 1178 l 1,15,-1
 586 1178 l 1,16,-1
 586 895 l 2,17,18
 586 691 586 691 560 528 c 128,-1,19
 534 365 534 365 473 223 c 1,20,-1
 995 223 l 1,14,-1
EndSplineSet
Substitution2: "'ss02' Style Set 2 lookup 18 subtable" uni0414.1
Substitution2: "'ss03' Style Set 3 lookup 17 subtable" uni0431.loclSRB
Substitution2: "'locl' Localized Forms in Cyrillic lookup 10 subtable" uni0414.1
Substitution2: "'locl' Localized Forms in Cyrillic lookup 9 subtable" uni0414.loclSRB
Substitution2: "'locl' Localized Forms in Cyrillic lookup 8 subtable" uni0414.loclSRB
Position2: "'cpsp' Capital Spacing lookup 0 subtable" dx=5 dy=0 dh=10 dv=0
EndChar

StartChar: uni0416
Encoding: 1046 1046 429
Width: 2093
GlyphClass: 1
Flags: W
LayerCount: 2
Fore
SplineSet
2068 0 m 1,0,-1
 1753 0 l 1,1,-1
 1587 473 l 2,2,3
 1563 546 1563 546 1515.5 605 c 128,-1,4
 1468 664 1468 664 1399 664 c 2,5,-1
 1174 664 l 1,6,-1
 1174 0 l 1,7,-1
 920 0 l 1,8,-1
 920 664 l 1,9,-1
 694 664 l 2,10,11
 625 664 625 664 577.5 605 c 128,-1,12
 530 546 530 546 506 473 c 2,13,-1
 340 0 l 1,14,-1
 25 0 l 1,15,-1
 287 588 l 2,16,17
 397 834 397 834 518 834 c 1,18,-1
 96 1411 l 1,19,-1
 436 1411 l 1,20,-1
 770 901 l 1,21,-1
 920 901 l 1,22,-1
 920 1411 l 1,23,-1
 1174 1411 l 1,24,-1
 1174 901 l 1,25,-1
 1323 901 l 1,26,-1
 1657 1411 l 1,27,-1
 1997 1411 l 1,28,-1
 1575 834 l 1,29,30
 1696 834 1696 834 1806 588 c 2,31,-1
 2068 0 l 1,0,-1
EndSplineSet
Position2: "'cpsp' Capital Spacing lookup 0 subtable" dx=5 dy=0 dh=10 dv=0
EndChar

StartChar: uni0417
Encoding: 1047 1047 430
Width: 1114
GlyphClass: 1
Flags: W
LayerCount: 2
Fore
SplineSet
506 -20 m 0,0,1
 364 -20 364 -20 240 32 c 128,-1,2
 116 84 116 84 45 193 c 1,3,-1
 248 328 l 1,4,5
 280 264 280 264 345.5 235.5 c 128,-1,6
 411 207 411 207 506 207 c 0,7,8
 579 207 579 207 641 231.5 c 128,-1,9
 703 256 703 256 740.5 304.5 c 128,-1,10
 778 353 778 353 778 426 c 0,11,12
 778 498 778 498 742 545.5 c 128,-1,13
 706 593 706 593 644.5 617 c 128,-1,14
 583 641 583 641 506 641 c 2,15,-1
 375 641 l 1,16,-1
 373 858 l 1,17,-1
 512 858 l 2,18,19
 598 858 598 858 657.5 903 c 128,-1,20
 717 948 717 948 717 1028 c 0,21,22
 717 1113 717 1113 657.5 1157.5 c 128,-1,23
 598 1202 598 1202 510 1202 c 0,24,25
 436 1202 436 1202 379.5 1170.5 c 128,-1,26
 323 1139 323 1139 309 1075 c 1,27,-1
 57 1075 l 1,28,29
 75 1249 75 1249 206.5 1341.5 c 128,-1,30
 338 1434 338 1434 508 1434 c 0,31,32
 622 1434 622 1434 725 1390 c 128,-1,33
 828 1346 828 1346 896 1255 c 0,34,35
 958 1167 958 1167 958 1049 c 0,36,37
 958 846 958 846 797 764 c 1,38,39
 860 745 860 745 912.5 700 c 128,-1,40
 965 655 965 655 997.5 583 c 128,-1,41
 1030 511 1030 511 1030 410 c 0,42,43
 1030 302 1030 302 987.5 221 c 128,-1,44
 945 140 945 140 871.5 86.5 c 128,-1,45
 798 33 798 33 703.5 6.5 c 128,-1,46
 609 -20 609 -20 506 -20 c 0,0,1
EndSplineSet
Position2: "'cpsp' Capital Spacing lookup 0 subtable" dx=5 dy=0 dh=10 dv=0
EndChar

StartChar: uni0418
Encoding: 1048 1048 431
Width: 1454
GlyphClass: 1
Flags: W
LayerCount: 2
Fore
SplineSet
1272 0 m 1,0,-1
 1028 0 l 1,1,-1
 1028 991 l 1,2,-1
 436 0 l 1,3,-1
 182 0 l 1,4,-1
 182 1413 l 1,5,-1
 426 1413 l 1,6,-1
 426 424 l 1,7,-1
 1020 1413 l 1,8,-1
 1272 1413 l 1,9,-1
 1272 0 l 1,0,-1
EndSplineSet
Position2: "'cpsp' Capital Spacing lookup 0 subtable" dx=5 dy=0 dh=10 dv=0
EndChar

StartChar: uni041A
Encoding: 1050 1050 433
Width: 1352
GlyphClass: 1
Flags: W
LayerCount: 2
Fore
SplineSet
1331 0 m 1,0,-1
 1016 0 l 1,1,-1
 850 473 l 2,2,3
 824 547 824 547 777.5 605.5 c 128,-1,4
 731 664 731 664 662 664 c 2,5,-1
 436 664 l 1,6,-1
 436 0 l 1,7,-1
 182 0 l 1,8,-1
 182 1411 l 1,9,-1
 436 1411 l 1,10,-1
 436 901 l 1,11,-1
 586 901 l 1,12,-1
 920 1411 l 1,13,-1
 1260 1411 l 1,14,-1
 838 834 l 1,15,16
 959 834 959 834 1069 588 c 2,17,-1
 1331 0 l 1,0,-1
EndSplineSet
Position2: "'cpsp' Capital Spacing lookup 0 subtable" dx=5 dy=0 dh=10 dv=0
EndChar

StartChar: uni041B
Encoding: 1051 1051 434
Width: 1393
GlyphClass: 2
Flags: W
LayerCount: 2
Fore
SplineSet
215 -20 m 0,0,1
 112 -20 112 -20 12 41 c 1,2,-1
 90 258 l 1,3,4
 132 229 132 229 162 229 c 0,5,6
 222 229 222 229 250.5 320.5 c 128,-1,7
 279 412 279 412 286 573.5 c 128,-1,8
 293 735 293 735 293 1044 c 2,9,-1
 293 1411 l 1,10,-1
 1210 1411 l 1,11,-1
 1210 0 l 1,12,-1
 956 0 l 1,13,-1
 956 1178 l 1,14,-1
 547 1178 l 1,15,-1
 547 907 l 2,16,17
 547 603 547 603 530 417.5 c 128,-1,18
 513 232 513 232 440.5 106 c 128,-1,19
 368 -20 368 -20 215 -20 c 0,0,1
EndSplineSet
Substitution2: "'ss02' Style Set 2 lookup 18 subtable" uni041B.1
Substitution2: "'ss03' Style Set 3 lookup 17 subtable" uni0414.loclSRB
Substitution2: "'locl' Localized Forms in Cyrillic lookup 10 subtable" uni041B.1
Substitution2: "'locl' Localized Forms in Cyrillic lookup 9 subtable" uni041B.loclSRB
Substitution2: "'locl' Localized Forms in Cyrillic lookup 8 subtable" uni041B.loclSRB
Position2: "'cpsp' Capital Spacing lookup 0 subtable" dx=5 dy=0 dh=10 dv=0
EndChar

StartChar: uni041F
Encoding: 1055 1055 438
Width: 1491
GlyphClass: 1
Flags: W
LayerCount: 2
Fore
SplineSet
1309 0 m 1,0,-1
 1055 0 l 1,1,-1
 1055 1178 l 1,2,-1
 436 1178 l 1,3,-1
 436 0 l 1,4,-1
 182 0 l 1,5,-1
 182 1411 l 1,6,-1
 1309 1411 l 1,7,-1
 1309 0 l 1,0,-1
EndSplineSet
Position2: "'cpsp' Capital Spacing lookup 0 subtable" dx=5 dy=0 dh=10 dv=0
EndChar

StartChar: uni0423
Encoding: 1059 1059 442
Width: 1110
GlyphClass: 1
Flags: W
LayerCount: 2
Fore
SplineSet
485 0 m 1,0,-1
 219 0 l 1,1,-1
 412 457 l 1,2,-1
 12 1411 l 1,3,-1
 281 1411 l 1,4,-1
 547 735 l 1,5,-1
 829 1411 l 1,6,-1
 1098 1411 l 1,7,-1
 485 0 l 1,0,-1
EndSplineSet
Position2: "'cpsp' Capital Spacing lookup 0 subtable" dx=5 dy=0 dh=10 dv=0
EndChar

StartChar: uni0424
Encoding: 1060 1060 443
Width: 1782
GlyphClass: 1
Flags: W
LayerCount: 2
Fore
SplineSet
1018 0 m 1,0,-1
 764 0 l 1,1,-1
 764 102 l 1,2,3
 610 102 610 102 492.5 138.5 c 128,-1,4
 375 175 375 175 292 240 c 128,-1,5
 209 305 209 305 160 392 c 0,6,7
 82 528 82 528 82 705 c 0,8,9
 82 873 82 873 156 1011.5 c 128,-1,10
 230 1150 230 1150 391 1234 c 0,11,12
 544 1311 544 1311 764 1311 c 1,13,-1
 764 1411 l 1,14,-1
 1018 1411 l 1,15,-1
 1018 1311 l 1,16,17
 1171 1311 1171 1311 1288.5 1274 c 128,-1,18
 1406 1237 1406 1237 1489.5 1171.5 c 128,-1,19
 1573 1106 1573 1106 1622 1019 c 0,20,21
 1700 882 1700 882 1700 705 c 0,22,23
 1700 537 1700 537 1625.5 399.5 c 128,-1,24
 1551 262 1551 262 1391 179 c 0,25,26
 1237 102 1237 102 1018 102 c 1,27,-1
 1018 0 l 1,0,-1
764 328 m 1,28,-1
 764 1085 l 1,29,30
 629 1085 629 1085 537 1036.5 c 128,-1,31
 445 988 445 988 397.5 902 c 128,-1,32
 350 816 350 816 350 705 c 0,33,34
 350 596 350 596 396 511 c 128,-1,35
 442 426 442 426 534 377 c 128,-1,36
 626 328 626 328 764 328 c 1,28,-1
1018 328 m 1,37,38
 1153 328 1153 328 1245.5 376 c 128,-1,39
 1338 424 1338 424 1385 509 c 128,-1,40
 1432 594 1432 594 1432 705 c 0,41,42
 1432 814 1432 814 1385.5 900 c 128,-1,43
 1339 986 1339 986 1247 1035.5 c 128,-1,44
 1155 1085 1155 1085 1018 1085 c 1,45,-1
 1018 328 l 1,37,38
EndSplineSet
Position2: "'cpsp' Capital Spacing lookup 0 subtable" dx=5 dy=0 dh=10 dv=0
EndChar

StartChar: uni0426
Encoding: 1062 1062 445
Width: 1528
GlyphClass: 1
Flags: W
LayerCount: 2
Fore
SplineSet
1460 -307 m 1,0,-1
 1206 -307 l 1,1,-1
 1206 0 l 1,2,-1
 182 0 l 1,3,-1
 182 1411 l 1,4,-1
 436 1411 l 1,5,-1
 436 233 l 1,6,-1
 1055 233 l 1,7,-1
 1055 1411 l 1,8,-1
 1309 1411 l 1,9,-1
 1309 233 l 1,10,-1
 1460 233 l 1,11,-1
 1460 -307 l 1,0,-1
EndSplineSet
Position2: "'cpsp' Capital Spacing lookup 0 subtable" dx=5 dy=0 dh=10 dv=0
EndChar

StartChar: uni0427
Encoding: 1063 1063 446
Width: 1352
GlyphClass: 1
Flags: W
LayerCount: 2
Fore
SplineSet
1169 0 m 1,0,-1
 915 0 l 1,1,-1
 915 481 l 1,2,3
 775 410 775 410 629 410 c 0,4,5
 354 410 354 410 221 560.5 c 128,-1,6
 88 711 88 711 88 981 c 2,7,-1
 88 1411 l 1,8,-1
 342 1411 l 1,9,-1
 342 1010 l 2,10,11
 342 883 342 883 368.5 807.5 c 128,-1,12
 395 732 395 732 455 695 c 0,13,14
 518 655 518 655 629 655 c 0,15,16
 811 655 811 655 915 774 c 1,17,-1
 915 1411 l 1,18,-1
 1169 1411 l 1,19,-1
 1169 0 l 1,0,-1
EndSplineSet
Position2: "'cpsp' Capital Spacing lookup 0 subtable" dx=5 dy=0 dh=10 dv=0
EndChar

StartChar: uni0428
Encoding: 1064 1064 447
Width: 1802
GlyphClass: 1
Flags: W
LayerCount: 2
Fore
SplineSet
1620 0 m 1,0,-1
 182 0 l 1,1,-1
 182 1411 l 1,2,-1
 436 1411 l 1,3,-1
 436 233 l 1,4,-1
 774 233 l 1,5,-1
 774 1411 l 1,6,-1
 1028 1411 l 1,7,-1
 1028 233 l 1,8,-1
 1366 233 l 1,9,-1
 1366 1411 l 1,10,-1
 1620 1411 l 1,11,-1
 1620 0 l 1,0,-1
EndSplineSet
Position2: "'cpsp' Capital Spacing lookup 0 subtable" dx=5 dy=0 dh=10 dv=0
EndChar

StartChar: uni0429
Encoding: 1065 1065 448
Width: 1839
GlyphClass: 1
Flags: W
LayerCount: 2
Fore
SplineSet
1772 -307 m 1,0,-1
 1518 -307 l 1,1,-1
 1518 0 l 1,2,-1
 182 0 l 1,3,-1
 182 1411 l 1,4,-1
 436 1411 l 1,5,-1
 436 233 l 1,6,-1
 774 233 l 1,7,-1
 774 1411 l 1,8,-1
 1028 1411 l 1,9,-1
 1028 233 l 1,10,-1
 1366 233 l 1,11,-1
 1366 1411 l 1,12,-1
 1620 1411 l 1,13,-1
 1620 233 l 1,14,-1
 1772 233 l 1,15,-1
 1772 -307 l 1,0,-1
EndSplineSet
Position2: "'cpsp' Capital Spacing lookup 0 subtable" dx=5 dy=0 dh=10 dv=0
EndChar

StartChar: uni042A
Encoding: 1066 1066 449
Width: 1405
GlyphClass: 1
Flags: W
LayerCount: 2
Fore
SplineSet
862 0 m 2,0,-1
 420 0 l 1,1,-1
 420 1184 l 1,2,-1
 20 1184 l 1,3,-1
 20 1411 l 1,4,-1
 672 1411 l 1,5,-1
 672 825 l 1,6,-1
 862 825 l 2,7,8
 1004 825 1004 825 1117 778.5 c 128,-1,9
 1230 732 1230 732 1296 641 c 128,-1,10
 1362 550 1362 550 1362 416 c 256,11,12
 1362 282 1362 282 1296.5 189.5 c 128,-1,13
 1231 97 1231 97 1117.5 48.5 c 128,-1,14
 1004 0 1004 0 862 0 c 2,0,-1
862 238 m 2,15,16
 1110 238 1110 238 1110 416 c 0,17,18
 1110 505 1110 505 1047.5 546.5 c 128,-1,19
 985 588 985 588 862 588 c 2,20,-1
 672 588 l 1,21,-1
 672 238 l 1,22,-1
 862 238 l 2,15,16
EndSplineSet
Position2: "'cpsp' Capital Spacing lookup 0 subtable" dx=5 dy=0 dh=10 dv=0
EndChar

StartChar: uni042B
Encoding: 1067 1067 450
Width: 1745
GlyphClass: 1
Flags: W
LayerCount: 2
Fore
SplineSet
625 0 m 2,0,-1
 182 0 l 1,1,-1
 182 1411 l 1,2,-1
 434 1411 l 1,3,-1
 434 825 l 1,4,-1
 625 825 l 2,5,6
 766 825 766 825 879 778.5 c 128,-1,7
 992 732 992 732 1058 641 c 128,-1,8
 1124 550 1124 550 1124 416 c 0,9,10
 1124 283 1124 283 1058.5 190 c 128,-1,11
 993 97 993 97 880.5 48.5 c 128,-1,12
 768 0 768 0 625 0 c 2,0,-1
1563 0 m 1,13,-1
 1309 0 l 1,14,-1
 1309 1411 l 1,15,-1
 1563 1411 l 1,16,-1
 1563 0 l 1,13,-1
625 238 m 2,17,18
 872 238 872 238 872 416 c 0,19,20
 872 506 872 506 809.5 547 c 128,-1,21
 747 588 747 588 625 588 c 2,22,-1
 434 588 l 1,23,-1
 434 238 l 1,24,-1
 625 238 l 2,17,18
EndSplineSet
Position2: "'cpsp' Capital Spacing lookup 0 subtable" dx=5 dy=0 dh=10 dv=0
EndChar

StartChar: uni042C
Encoding: 1068 1068 451
Width: 1167
GlyphClass: 1
Flags: W
LayerCount: 2
Fore
SplineSet
625 0 m 2,0,-1
 182 0 l 1,1,-1
 182 1411 l 1,2,-1
 434 1411 l 1,3,-1
 434 825 l 1,4,-1
 625 825 l 2,5,6
 766 825 766 825 879 778.5 c 128,-1,7
 992 732 992 732 1058 641 c 128,-1,8
 1124 550 1124 550 1124 416 c 0,9,10
 1124 283 1124 283 1058.5 190 c 128,-1,11
 993 97 993 97 880.5 48.5 c 128,-1,12
 768 0 768 0 625 0 c 2,0,-1
625 238 m 2,13,14
 872 238 872 238 872 416 c 0,15,16
 872 506 872 506 809.5 547 c 128,-1,17
 747 588 747 588 625 588 c 2,18,-1
 434 588 l 1,19,-1
 434 238 l 1,20,-1
 625 238 l 2,13,14
EndSplineSet
Position2: "'cpsp' Capital Spacing lookup 0 subtable" dx=5 dy=0 dh=10 dv=0
EndChar

StartChar: uni042D
Encoding: 1069 1069 452
Width: 1432
GlyphClass: 1
Flags: W
LayerCount: 2
Fore
SplineSet
666 -20 m 0,0,1
 464 -20 464 -20 300.5 80.5 c 128,-1,2
 137 181 137 181 47 387 c 1,3,-1
 283 483 l 1,4,5
 335 350 335 350 427.5 285.5 c 128,-1,6
 520 221 520 221 666 221 c 0,7,8
 850 221 850 221 955 320 c 128,-1,9
 1060 419 1060 419 1087 590 c 1,10,-1
 522 590 l 1,11,-1
 522 823 l 1,12,-1
 1090 823 l 1,13,14
 1065 991 1065 991 960 1092.5 c 128,-1,15
 855 1194 855 1194 670 1194 c 0,16,17
 363 1194 363 1194 287 936 c 1,18,-1
 49 1030 l 1,19,20
 141 1236 141 1236 303.5 1336 c 128,-1,21
 466 1436 466 1436 668 1436 c 0,22,23
 891 1436 891 1436 1045 1337 c 0,24,25
 1152 1267 1152 1267 1219.5 1168.5 c 128,-1,26
 1287 1070 1287 1070 1318.5 952 c 128,-1,27
 1350 834 1350 834 1350 707 c 0,28,29
 1350 517 1350 517 1277 350.5 c 128,-1,30
 1204 184 1204 184 1043 79 c 0,31,32
 889 -20 889 -20 666 -20 c 0,0,1
EndSplineSet
Position2: "'cpsp' Capital Spacing lookup 0 subtable" dx=5 dy=0 dh=10 dv=0
EndChar

StartChar: uni042E
Encoding: 1070 1070 453
Width: 2005
GlyphClass: 2
Flags: W
LayerCount: 2
Fore
SplineSet
1241 -20 m 0,0,1
 1035 -20 1035 -20 891.5 60.5 c 128,-1,2
 748 141 748 141 666.5 278.5 c 128,-1,3
 585 416 585 416 565 590 c 1,4,-1
 436 590 l 1,5,-1
 436 0 l 1,6,-1
 182 0 l 1,7,-1
 182 1411 l 1,8,-1
 436 1411 l 1,9,-1
 436 823 l 1,10,-1
 565 823 l 1,11,12
 583 990 583 990 662.5 1128.5 c 128,-1,13
 742 1267 742 1267 894 1353 c 0,14,15
 1039 1434 1039 1434 1241 1434 c 0,16,17
 1465 1434 1465 1434 1619 1336 c 0,18,19
 1726 1266 1726 1266 1793 1168 c 128,-1,20
 1860 1070 1860 1070 1891.5 952 c 128,-1,21
 1923 834 1923 834 1923 707 c 256,22,23
 1923 580 1923 580 1891.5 462 c 128,-1,24
 1860 344 1860 344 1793 246 c 128,-1,25
 1726 148 1726 148 1619 79 c 0,26,27
 1465 -20 1465 -20 1241 -20 c 0,0,1
1241 205 m 0,28,29
 1386 205 1386 205 1479 273 c 0,30,31
 1655 405 1655 405 1655 707 c 0,32,33
 1655 928 1655 928 1560 1060 c 0,34,35
 1454 1208 1454 1208 1241 1208 c 0,36,37
 1096 1208 1096 1208 1004 1141 c 0,38,39
 827 1008 827 1008 827 707 c 0,40,41
 827 568 827 568 869 454 c 128,-1,42
 911 340 911 340 1002 272.5 c 128,-1,43
 1093 205 1093 205 1241 205 c 0,28,29
EndSplineSet
Substitution2: "'ss02' Style Set 2 lookup 18 subtable" uni042E.1
Substitution2: "'ss03' Style Set 3 lookup 17 subtable" uni041B.loclSRB
Substitution2: "'locl' Localized Forms in Cyrillic lookup 10 subtable" uni042E.1
Position2: "'cpsp' Capital Spacing lookup 0 subtable" dx=5 dy=0 dh=10 dv=0
EndChar

StartChar: uni042F
Encoding: 1071 1071 454
Width: 1268
GlyphClass: 1
Flags: W
LayerCount: 2
Fore
SplineSet
1086 -2 m 1,0,-1
 832 -2 l 1,1,-1
 832 604 l 1,2,-1
 662 604 l 1,3,-1
 314 -2 l 1,4,-1
 23 -2 l 1,5,-1
 416 629 l 1,6,7
 338 656 338 656 275.5 707.5 c 128,-1,8
 213 759 213 759 176.5 832 c 128,-1,9
 140 905 140 905 140 997 c 0,10,11
 140 1130 140 1130 207.5 1223 c 128,-1,12
 275 1316 275 1316 386.5 1364.5 c 128,-1,13
 498 1413 498 1413 629 1413 c 2,14,-1
 1086 1413 l 1,15,-1
 1086 -2 l 1,0,-1
830 811 m 1,16,-1
 830 1186 l 1,17,-1
 627 1186 l 2,18,19
 519 1186 519 1186 455 1134 c 128,-1,20
 391 1082 391 1082 391 993 c 0,21,22
 391 915 391 915 446 865.5 c 128,-1,23
 501 816 501 816 606 811 c 1,24,-1
 830 811 l 1,16,-1
EndSplineSet
Position2: "'cpsp' Capital Spacing lookup 0 subtable" dx=5 dy=0 dh=10 dv=0
EndChar

StartChar: uni0431
Encoding: 1073 1073 456
Width: 1212
GlyphClass: 1
Flags: W
LayerCount: 2
Fore
SplineSet
630 -20 m 0,0,1
 480 -20 480 -20 358 40.5 c 128,-1,2
 236 101 236 101 165 227 c 0,3,4
 98 347 98 347 98 516 c 2,5,-1
 98 684 l 2,6,7
 98 912 98 912 165 1037 c 0,8,9
 226 1150 226 1150 304.5 1216 c 128,-1,10
 383 1282 383 1282 490 1322 c 0,11,12
 582 1357 582 1357 689.5 1381.5 c 128,-1,13
 797 1406 797 1406 962 1434 c 1,14,-1
 962 1194 l 1,15,16
 822 1178 822 1178 681 1141.5 c 128,-1,17
 540 1105 540 1105 488 1081 c 0,18,19
 405 1047 405 1047 360.5 983.5 c 128,-1,20
 316 920 316 920 313 772 c 1,21,22
 371 856 371 856 470.5 908.5 c 128,-1,23
 570 961 570 961 701 961 c 0,24,25
 856 961 856 961 959 900.5 c 128,-1,26
 1062 840 1062 840 1112.5 735 c 128,-1,27
 1163 630 1163 630 1163 496 c 0,28,29
 1163 357 1163 357 1097 239.5 c 128,-1,30
 1031 122 1031 122 906 50 c 0,31,32
 784 -20 784 -20 630 -20 c 0,0,1
630 190 m 0,33,34
 716 190 716 190 776 227.5 c 128,-1,35
 836 265 836 265 867 329.5 c 128,-1,36
 898 394 898 394 898 475 c 0,37,38
 898 558 898 558 870.5 620 c 128,-1,39
 843 682 843 682 784 716 c 128,-1,40
 725 750 725 750 630 750 c 0,41,42
 546 750 546 750 485.5 707.5 c 128,-1,43
 425 665 425 665 393.5 601 c 128,-1,44
 362 537 362 537 362 475 c 0,45,46
 362 344 362 344 427.5 267 c 128,-1,47
 493 190 493 190 630 190 c 0,33,34
EndSplineSet
Substitution2: "'locl' Localized Forms in Cyrillic lookup 9 subtable" uni0431.loclSRB
Substitution2: "'locl' Localized Forms in Cyrillic lookup 8 subtable" uni0431.loclSRB
Substitution2: "'aalt' Access All Alternates lookup 0 subtable" uni0431.loclSRB
EndChar

StartChar: uni0432
Encoding: 1074 1074 457
Width: 1097
GlyphClass: 2
Flags: W
LayerCount: 2
Fore
SplineSet
591 0 m 2,0,-1
 145 0 l 1,1,-1
 145 1039 l 1,2,-1
 593 1039 l 2,3,4
 729 1039 729 1039 817.5 1013.5 c 128,-1,5
 906 988 906 988 957.5 923.5 c 128,-1,6
 1009 859 1009 859 1009 737 c 0,7,8
 1009 677 1009 677 976.5 621 c 128,-1,9
 944 565 944 565 876 539 c 1,10,11
 1040 505 1040 505 1040 299 c 0,12,13
 1040 188 1040 188 989.5 122 c 128,-1,14
 939 56 939 56 839 28 c 128,-1,15
 739 0 739 0 591 0 c 2,0,-1
640 633 m 2,16,17
 710 633 710 633 739 656.5 c 128,-1,18
 768 680 768 680 768 723 c 0,19,20
 768 765 768 765 738.5 786.5 c 128,-1,21
 709 808 709 808 638 808 c 2,22,-1
 393 808 l 1,23,-1
 393 633 l 1,24,-1
 640 633 l 2,16,17
632 227 m 2,25,26
 715 227 715 227 751.5 249.5 c 128,-1,27
 788 272 788 272 788 321 c 0,28,29
 788 418 788 418 643 418 c 2,30,-1
 393 418 l 1,31,-1
 393 227 l 1,32,-1
 632 227 l 2,25,26
EndSplineSet
Substitution2: "'ss02' Style Set 2 lookup 18 subtable" uni0432.1
Substitution2: "'ss03' Style Set 3 lookup 17 subtable" uni0432.loclSRB
Substitution2: "'locl' Localized Forms in Cyrillic lookup 10 subtable" uni0432.1
Substitution2: "'locl' Localized Forms in Cyrillic lookup 9 subtable" uni0432.loclSRB
Substitution2: "'locl' Localized Forms in Cyrillic lookup 8 subtable" uni0432.loclSRB
EndChar

StartChar: uni0433
Encoding: 1075 1075 458
Width: 811
GlyphClass: 2
Flags: W
LayerCount: 2
Fore
SplineSet
393 0 m 1,0,-1
 145 0 l 1,1,-1
 145 1039 l 1,2,-1
 821 1039 l 1,3,-1
 821 857 l 1,4,-1
 393 857 l 1,5,-1
 393 0 l 1,0,-1
EndSplineSet
Substitution2: "'ss02' Style Set 2 lookup 18 subtable" uni0433.1
Substitution2: "'ss03' Style Set 3 lookup 17 subtable" uni0433.loclSRB
Substitution2: "'locl' Localized Forms in Cyrillic lookup 10 subtable" uni0433.1
Substitution2: "'locl' Localized Forms in Cyrillic lookup 9 subtable" uni0433.loclSRB
Substitution2: "'locl' Localized Forms in Cyrillic lookup 8 subtable" uni0433.loclSRB
EndChar

StartChar: uni0434
Encoding: 1076 1076 459
Width: 1255
GlyphClass: 2
Flags: W
LayerCount: 2
Fore
SplineSet
1217 -307 m 1,0,-1
 969 -307 l 1,1,-1
 969 0 l 1,2,-1
 244 0 l 1,3,-1
 244 -307 l 1,4,-1
 -4 -307 l 1,5,-1
 -4 182 l 1,6,-1
 145 182 l 1,7,8
 192 234 192 234 215 305.5 c 128,-1,9
 238 377 238 377 245 460.5 c 128,-1,10
 252 544 252 544 252 633 c 2,11,-1
 252 1039 l 1,12,-1
 1070 1039 l 1,13,-1
 1070 182 l 1,14,-1
 1217 182 l 1,15,-1
 1217 -307 l 1,0,-1
822 182 m 1,16,-1
 822 857 l 1,17,-1
 500 857 l 1,18,-1
 500 643 l 2,19,20
 500 549 500 549 493 464 c 128,-1,21
 486 379 486 379 462.5 306.5 c 128,-1,22
 439 234 439 234 393 182 c 1,23,-1
 822 182 l 1,16,-1
EndSplineSet
Substitution2: "'ss02' Style Set 2 lookup 18 subtable" uni0434.1
Substitution2: "'ss03' Style Set 3 lookup 17 subtable" uni0434.loclSRB
Substitution2: "'locl' Localized Forms in Cyrillic lookup 10 subtable" uni0434.1
Substitution2: "'locl' Localized Forms in Cyrillic lookup 9 subtable" uni0434.loclSRB
Substitution2: "'locl' Localized Forms in Cyrillic lookup 8 subtable" uni0434.loclSRB
EndChar

StartChar: uni0435
Encoding: 1077 1077 460
Width: 1105
GlyphClass: 1
Flags: W
LayerCount: 2
Fore
SplineSet
577 -12 m 0,0,1
 448 -12 448 -12 350.5 30 c 128,-1,2
 253 72 253 72 188 145.5 c 128,-1,3
 123 219 123 219 90 314 c 128,-1,4
 57 409 57 409 57 514 c 0,5,6
 57 649 57 649 111 772 c 128,-1,7
 165 895 165 895 283 977 c 0,8,9
 396 1052 396 1052 558 1052 c 0,10,11
 737 1052 737 1052 846.5 977.5 c 128,-1,12
 956 903 956 903 1002 783.5 c 128,-1,13
 1048 664 1048 664 1048 518 c 0,14,15
 1048 465 1048 465 1039 440 c 1,16,-1
 326 440 l 1,17,18
 338 338 338 338 399 276.5 c 128,-1,19
 460 215 460 215 575 215 c 0,20,21
 668 215 668 215 726.5 238 c 128,-1,22
 785 261 785 261 835 316 c 1,23,-1
 1010 160 l 1,24,25
 926 73 926 73 820 30.5 c 128,-1,26
 714 -12 714 -12 577 -12 c 0,0,1
799 616 m 1,27,28
 772 847 772 847 558 847 c 0,29,30
 453 847 453 847 397.5 783.5 c 128,-1,31
 342 720 342 720 326 616 c 1,32,-1
 799 616 l 1,27,28
EndSplineSet
EndChar

StartChar: uni0436
Encoding: 1078 1078 461
Width: 1580
GlyphClass: 2
Flags: W
LayerCount: 2
Fore
SplineSet
1571 0 m 1,0,-1
 1270 0 l 1,1,-1
 1145 369 l 2,2,3
 1107 485 1107 485 1008 486 c 2,4,-1
 913 486 l 1,5,-1
 913 0 l 1,6,-1
 669 0 l 1,7,-1
 669 486 l 1,8,-1
 573 486 l 2,9,10
 475 486 475 486 437 369 c 2,11,-1
 311 0 l 1,12,-1
 10 0 l 1,13,-1
 193 472 l 1,14,15
 221 531 221 531 268.5 583 c 128,-1,16
 316 635 316 635 368 635 c 1,17,-1
 63 1039 l 1,18,-1
 358 1039 l 1,19,-1
 601 666 l 1,20,-1
 669 666 l 1,21,-1
 669 1039 l 1,22,-1
 913 1039 l 1,23,-1
 913 666 l 1,24,-1
 980 666 l 1,25,-1
 1224 1039 l 1,26,-1
 1517 1039 l 1,27,-1
 1213 635 l 1,28,29
 1265 635 1265 635 1312.5 582.5 c 128,-1,30
 1360 530 1360 530 1387 472 c 1,31,-1
 1571 0 l 1,0,-1
EndSplineSet
Substitution2: "'ss02' Style Set 2 lookup 18 subtable" uni0436.1
Substitution2: "'ss03' Style Set 3 lookup 17 subtable" uni0436.loclSRB
Substitution2: "'locl' Localized Forms in Cyrillic lookup 10 subtable" uni0436.1
Substitution2: "'locl' Localized Forms in Cyrillic lookup 9 subtable" uni0436.loclSRB
Substitution2: "'locl' Localized Forms in Cyrillic lookup 8 subtable" uni0436.loclSRB
EndChar

StartChar: uni0437
Encoding: 1079 1079 462
Width: 1052
GlyphClass: 2
Flags: W
LayerCount: 2
Fore
SplineSet
478 -20 m 0,0,1
 396 -20 396 -20 308 6 c 128,-1,2
 220 32 220 32 147 86 c 128,-1,3
 74 140 74 140 30 223 c 1,4,-1
 250 392 l 1,5,6
 273 301 273 301 344.5 254 c 128,-1,7
 416 207 416 207 483 207 c 0,8,9
 610 207 610 207 666.5 228.5 c 128,-1,10
 723 250 723 250 723 314 c 0,11,12
 723 365 723 365 711 387.5 c 128,-1,13
 699 410 699 410 664 419 c 128,-1,14
 629 428 629 428 547 428 c 2,15,-1
 439 428 l 1,16,-1
 439 643 l 1,17,-1
 553 643 l 2,18,19
 638 643 638 643 670.5 663.5 c 128,-1,20
 703 684 703 684 703 741 c 0,21,22
 703 787 703 787 659 803.5 c 128,-1,23
 615 820 615 820 509 820 c 0,24,25
 448 820 448 820 383 786 c 128,-1,26
 318 752 318 752 268 665 c 1,27,-1
 24 802 l 1,28,29
 101 909 101 909 179.5 965 c 128,-1,30
 258 1021 258 1021 333 1036.5 c 128,-1,31
 408 1052 408 1052 501 1052 c 0,32,33
 705 1052 705 1052 825 986.5 c 128,-1,34
 945 921 945 921 945 759 c 0,35,36
 945 678 945 678 905.5 628.5 c 128,-1,37
 866 579 866 579 770 548 c 1,38,39
 873 526 873 526 924 466 c 128,-1,40
 975 406 975 406 975 299 c 0,41,42
 975 120 975 120 843 50 c 128,-1,43
 711 -20 711 -20 478 -20 c 0,0,1
EndSplineSet
Substitution2: "'ss02' Style Set 2 lookup 18 subtable" uni0437.1
Substitution2: "'ss03' Style Set 3 lookup 17 subtable" uni0437.loclSRB
Substitution2: "'locl' Localized Forms in Cyrillic lookup 10 subtable" uni0437.1
Substitution2: "'locl' Localized Forms in Cyrillic lookup 9 subtable" uni0437.loclSRB
Substitution2: "'locl' Localized Forms in Cyrillic lookup 8 subtable" uni0437.loclSRB
EndChar

StartChar: uni0438
Encoding: 1080 1080 463
Width: 1214
GlyphClass: 2
Flags: W
LayerCount: 2
Fore
SplineSet
1075 0 m 1,0,-1
 827 0 l 1,1,-1
 827 549 l 2,2,3
 827 608 827 608 837 679 c 1,4,-1
 827 679 l 1,5,-1
 421 0 l 1,6,-1
 151 0 l 1,7,-1
 151 1039 l 1,8,-1
 399 1039 l 1,9,-1
 399 490 l 2,10,11
 399 431 399 431 389 360 c 1,12,-1
 399 360 l 1,13,-1
 805 1039 l 1,14,-1
 1075 1039 l 1,15,-1
 1075 0 l 1,0,-1
EndSplineSet
Substitution2: "'ss02' Style Set 2 lookup 18 subtable" uni0438.1
Substitution2: "'ss03' Style Set 3 lookup 17 subtable" uni0438.loclSRB
Substitution2: "'locl' Localized Forms in Cyrillic lookup 10 subtable" uni0438.1
Substitution2: "'locl' Localized Forms in Cyrillic lookup 9 subtable" uni0438.loclSRB
Substitution2: "'locl' Localized Forms in Cyrillic lookup 8 subtable" uni0438.loclSRB
EndChar

StartChar: uni043A
Encoding: 1082 1082 465
Width: 1063
GlyphClass: 2
Flags: W
LayerCount: 2
Fore
SplineSet
1053 0 m 1,0,-1
 753 0 l 1,1,-1
 627 369 l 2,2,3
 589 485 589 485 490 486 c 2,4,-1
 395 486 l 1,5,-1
 395 0 l 1,6,-1
 151 0 l 1,7,-1
 151 1039 l 1,8,-1
 395 1039 l 1,9,-1
 395 666 l 1,10,-1
 463 666 l 1,11,-1
 706 1039 l 1,12,-1
 1000 1039 l 1,13,-1
 695 635 l 1,14,15
 748 635 748 635 795 583.5 c 128,-1,16
 842 532 842 532 870 472 c 1,17,-1
 1053 0 l 1,0,-1
EndSplineSet
Substitution2: "'ss02' Style Set 2 lookup 18 subtable" uni043A.1
Substitution2: "'ss03' Style Set 3 lookup 17 subtable" uni043A.loclSRB
Substitution2: "'locl' Localized Forms in Cyrillic lookup 10 subtable" uni043A.1
Substitution2: "'locl' Localized Forms in Cyrillic lookup 9 subtable" uni043A.loclSRB
Substitution2: "'locl' Localized Forms in Cyrillic lookup 8 subtable" uni043A.loclSRB
EndChar

StartChar: uni043B
Encoding: 1083 1083 466
Width: 1161
GlyphClass: 2
Flags: W
LayerCount: 2
Fore
SplineSet
200 -20 m 0,0,1
 140 -20 140 -20 82 -4 c 128,-1,2
 24 12 24 12 -21 35 c 1,3,-1
 47 191 l 1,4,5
 90 172 90 172 118 172 c 0,6,7
 163 172 163 172 184.5 209 c 128,-1,8
 206 246 206 246 213 317.5 c 128,-1,9
 220 389 220 389 220 490 c 0,10,11
 219 634 219 634 219 1039 c 1,12,-1
 1015 1039 l 1,13,-1
 1015 0 l 1,14,-1
 768 0 l 1,15,-1
 768 857 l 1,16,-1
 467 857 l 1,17,-1
 467 519 l 2,18,19
 467 323 467 323 439 206.5 c 128,-1,20
 411 90 411 90 353 35 c 128,-1,21
 295 -20 295 -20 200 -20 c 0,0,1
EndSplineSet
Substitution2: "'ss02' Style Set 2 lookup 18 subtable" uni043B.1
Substitution2: "'ss03' Style Set 3 lookup 17 subtable" uni043B.loclSRB
Substitution2: "'locl' Localized Forms in Cyrillic lookup 10 subtable" uni043B.1
Substitution2: "'locl' Localized Forms in Cyrillic lookup 9 subtable" uni043B.loclSRB
Substitution2: "'locl' Localized Forms in Cyrillic lookup 8 subtable" uni043B.loclSRB
EndChar

StartChar: uni043C
Encoding: 1084 1084 467
Width: 1499
GlyphClass: 1
Flags: W
LayerCount: 2
Fore
SplineSet
1360 0 m 1,0,-1
 1137 0 l 1,1,-1
 1137 713 l 1,2,-1
 849 0 l 1,3,-1
 664 0 l 1,4,-1
 375 711 l 1,5,-1
 375 0 l 1,6,-1
 151 0 l 1,7,-1
 151 1039 l 1,8,-1
 460 1039 l 1,9,-1
 758 303 l 1,10,-1
 1050 1041 l 1,11,-1
 1360 1041 l 1,12,-1
 1360 0 l 1,0,-1
EndSplineSet
EndChar

StartChar: uni043D
Encoding: 1085 1085 468
Width: 1214
GlyphClass: 1
Flags: W
LayerCount: 2
Fore
SplineSet
1075 0 m 1,0,-1
 827 0 l 1,1,-1
 827 486 l 1,2,-1
 399 486 l 1,3,-1
 399 0 l 1,4,-1
 151 0 l 1,5,-1
 151 1039 l 1,6,-1
 399 1039 l 1,7,-1
 399 668 l 1,8,-1
 827 668 l 1,9,-1
 827 1039 l 1,10,-1
 1075 1039 l 1,11,-1
 1075 0 l 1,0,-1
EndSplineSet
EndChar

StartChar: uni043F
Encoding: 1087 1087 470
Width: 1214
GlyphClass: 2
Flags: W
LayerCount: 2
Fore
SplineSet
1075 0 m 1,0,-1
 827 0 l 1,1,-1
 827 857 l 1,2,-1
 399 857 l 1,3,-1
 399 0 l 1,4,-1
 151 0 l 1,5,-1
 151 1039 l 1,6,-1
 1075 1039 l 1,7,-1
 1075 0 l 1,0,-1
EndSplineSet
Substitution2: "'ss02' Style Set 2 lookup 18 subtable" uni043F.1
Substitution2: "'ss03' Style Set 3 lookup 17 subtable" uni043F.loclSRB
Substitution2: "'locl' Localized Forms in Cyrillic lookup 10 subtable" uni043F.1
Substitution2: "'locl' Localized Forms in Cyrillic lookup 9 subtable" uni043F.loclSRB
Substitution2: "'locl' Localized Forms in Cyrillic lookup 8 subtable" uni043F.loclSRB
EndChar

StartChar: uni0440
Encoding: 1088 1088 471
Width: 1177
GlyphClass: 1
Flags: W
LayerCount: 2
Fore
SplineSet
399 -438 m 1,0,-1
 151 -438 l 1,1,-1
 151 1039 l 1,2,-1
 399 1039 l 1,3,-1
 399 939 l 1,4,5
 502 1060 502 1060 693 1060 c 0,6,7
 799 1060 799 1060 880.5 1016 c 128,-1,8
 962 972 962 972 1017.5 896.5 c 128,-1,9
 1073 821 1073 821 1101.5 724 c 128,-1,10
 1130 627 1130 627 1130 520 c 0,11,12
 1130 380 1130 380 1080.5 256.5 c 128,-1,13
 1031 133 1031 133 927 54 c 0,14,15
 827 -20 827 -20 693 -20 c 0,16,17
 608 -20 608 -20 530.5 8 c 128,-1,18
 453 36 453 36 399 100 c 1,19,-1
 399 -438 l 1,0,-1
633 205 m 256,20,21
 718 205 718 205 773 246.5 c 128,-1,22
 828 288 828 288 855 359 c 128,-1,23
 882 430 882 430 882 520 c 0,24,25
 882 609 882 609 855 681 c 128,-1,26
 828 753 828 753 773 797 c 128,-1,27
 718 841 718 841 633 841 c 0,28,29
 511 841 511 841 449 751.5 c 128,-1,30
 387 662 387 662 387 520 c 0,31,32
 387 429 387 429 413 358 c 128,-1,33
 439 287 439 287 493.5 246 c 128,-1,34
 548 205 548 205 633 205 c 256,20,21
EndSplineSet
EndChar

StartChar: uni0442
Encoding: 1090 1090 473
Width: 925
GlyphClass: 2
Flags: W
LayerCount: 2
Fore
SplineSet
586 0 m 1,0,-1
 339 0 l 1,1,-1
 339 857 l 1,2,-1
 -4 857 l 1,3,-1
 -4 1039 l 1,4,-1
 929 1039 l 1,5,-1
 929 857 l 1,6,-1
 586 857 l 1,7,-1
 586 0 l 1,0,-1
EndSplineSet
Substitution2: "'ss02' Style Set 2 lookup 18 subtable" uni0442.1
Substitution2: "'ss03' Style Set 3 lookup 17 subtable" uni0442.loclSRB
Substitution2: "'locl' Localized Forms in Cyrillic lookup 10 subtable" uni0442.1
Substitution2: "'locl' Localized Forms in Cyrillic lookup 9 subtable" uni0442.loclSRB
Substitution2: "'locl' Localized Forms in Cyrillic lookup 8 subtable" uni0442.loclSRB
EndChar

StartChar: uni0443
Encoding: 1091 1091 474
Width: 1073
GlyphClass: 1
Flags: W
LayerCount: 2
Fore
SplineSet
486 -430 m 1,0,-1
 209 -430 l 1,1,-1
 400 40 l 1,2,-1
 -6 1039 l 1,3,-1
 272 1039 l 1,4,-1
 535 326 l 1,5,-1
 801 1039 l 1,6,-1
 1080 1039 l 1,7,-1
 486 -430 l 1,0,-1
EndSplineSet
EndChar

StartChar: uni0444
Encoding: 1092 1092 475
Width: 1521
GlyphClass: 1
Flags: W
LayerCount: 2
Fore
SplineSet
885 -430 m 1,0,-1
 642 -430 l 1,1,-1
 642 -16 l 1,2,3
 607 -20 607 -20 586 -20 c 0,4,5
 424 -20 424 -20 304.5 54.5 c 128,-1,6
 185 129 185 129 119 251 c 128,-1,7
 53 373 53 373 53 516 c 0,8,9
 53 666 53 666 121.5 787.5 c 128,-1,10
 190 909 190 909 310 980.5 c 128,-1,11
 430 1052 430 1052 585 1052 c 1,12,-1
 642 1048 l 1,13,-1
 642 1411 l 1,14,-1
 885 1411 l 1,15,-1
 885 1048 l 1,16,17
 920 1052 920 1052 940 1052 c 0,18,19
 1102 1052 1102 1052 1221.5 977.5 c 128,-1,20
 1341 903 1341 903 1407 781 c 128,-1,21
 1473 659 1473 659 1473 516 c 0,22,23
 1473 366 1473 366 1404.5 244.5 c 128,-1,24
 1336 123 1336 123 1215.5 51.5 c 128,-1,25
 1095 -20 1095 -20 940 -20 c 0,26,27
 920 -20 920 -20 885 -16 c 1,28,-1
 885 -430 l 1,0,-1
585 190 m 0,29,30
 623 190 623 190 642 195 c 1,31,-1
 642 837 l 1,32,33
 607 841 607 841 585 841 c 0,34,35
 491 841 491 841 432 797.5 c 128,-1,36
 373 754 373 754 345 680 c 128,-1,37
 317 606 317 606 317 516 c 0,38,39
 317 373 317 373 383.5 281.5 c 128,-1,40
 450 190 450 190 585 190 c 0,29,30
941 190 m 0,41,42
 1076 190 1076 190 1142.5 281.5 c 128,-1,43
 1209 373 1209 373 1209 516 c 0,44,45
 1209 602 1209 602 1182 676 c 128,-1,46
 1155 750 1155 750 1095.5 795.5 c 128,-1,47
 1036 841 1036 841 941 841 c 0,48,49
 920 841 920 841 885 837 c 1,50,-1
 885 195 l 1,51,52
 903 190 903 190 941 190 c 0,41,42
EndSplineSet
EndChar

StartChar: uni0445
Encoding: 1093 1093 476
Width: 1070
GlyphClass: 1
Flags: W
LayerCount: 2
Fore
SplineSet
1061 0 m 1,0,-1
 750 0 l 1,1,-1
 535 349 l 1,2,-1
 319 0 l 1,3,-1
 10 0 l 1,4,-1
 366 524 l 1,5,-1
 10 1039 l 1,6,-1
 319 1039 l 1,7,-1
 535 697 l 1,8,-1
 750 1039 l 1,9,-1
 1061 1039 l 1,10,-1
 703 524 l 1,11,-1
 1061 0 l 1,0,-1
EndSplineSet
EndChar

StartChar: uni0446
Encoding: 1094 1094 477
Width: 1269
GlyphClass: 2
Flags: W
LayerCount: 2
Fore
SplineSet
1259 -307 m 1,0,-1
 1011 -307 l 1,1,-1
 1011 0 l 1,2,-1
 151 0 l 1,3,-1
 151 1039 l 1,4,-1
 399 1039 l 1,5,-1
 399 182 l 1,6,-1
 827 182 l 1,7,-1
 827 1039 l 1,8,-1
 1075 1039 l 1,9,-1
 1075 182 l 1,10,-1
 1259 182 l 1,11,-1
 1259 -307 l 1,0,-1
EndSplineSet
Substitution2: "'ss02' Style Set 2 lookup 18 subtable" uni0446.1
Substitution2: "'ss03' Style Set 3 lookup 17 subtable" uni0446.loclSRB
Substitution2: "'locl' Localized Forms in Cyrillic lookup 10 subtable" uni0446.1
Substitution2: "'locl' Localized Forms in Cyrillic lookup 9 subtable" uni0446.loclSRB
Substitution2: "'locl' Localized Forms in Cyrillic lookup 8 subtable" uni0446.loclSRB
EndChar

StartChar: uni0447
Encoding: 1095 1095 478
Width: 1132
GlyphClass: 1
Flags: W
LayerCount: 2
Fore
SplineSet
990 0 m 1,0,-1
 742 0 l 1,1,-1
 742 394 l 1,2,3
 685 322 685 322 606.5 288.5 c 128,-1,4
 528 255 528 255 446 255 c 0,5,6
 315 255 315 255 230.5 318 c 128,-1,7
 146 381 146 381 106 483.5 c 128,-1,8
 66 586 66 586 66 704 c 2,9,-1
 66 1039 l 1,10,-1
 314 1039 l 1,11,-1
 314 712 l 2,12,13
 314 605 314 605 350.5 545.5 c 128,-1,14
 387 486 387 486 480 486 c 0,15,16
 554 486 554 486 613 522.5 c 128,-1,17
 672 559 672 559 707 616.5 c 128,-1,18
 742 674 742 674 742 736 c 2,19,-1
 742 1039 l 1,20,-1
 990 1039 l 1,21,-1
 990 0 l 1,0,-1
EndSplineSet
EndChar

StartChar: uni0448
Encoding: 1096 1096 479
Width: 1718
GlyphClass: 2
Flags: W
LayerCount: 2
Fore
SplineSet
1578 0 m 1,0,-1
 151 0 l 1,1,-1
 151 1039 l 1,2,-1
 399 1039 l 1,3,-1
 399 182 l 1,4,-1
 740 182 l 1,5,-1
 740 1039 l 1,6,-1
 988 1039 l 1,7,-1
 988 182 l 1,8,-1
 1330 182 l 1,9,-1
 1330 1039 l 1,10,-1
 1578 1039 l 1,11,-1
 1578 0 l 1,0,-1
EndSplineSet
Substitution2: "'ss02' Style Set 2 lookup 18 subtable" uni0448.1
Substitution2: "'ss03' Style Set 3 lookup 17 subtable" uni0448.loclSRB
Substitution2: "'locl' Localized Forms in Cyrillic lookup 10 subtable" uni0448.1
Substitution2: "'locl' Localized Forms in Cyrillic lookup 9 subtable" uni0448.loclSRB
Substitution2: "'locl' Localized Forms in Cyrillic lookup 8 subtable" uni0448.loclSRB
EndChar

StartChar: uni0449
Encoding: 1097 1097 480
Width: 1773
GlyphClass: 2
Flags: W
LayerCount: 2
Fore
SplineSet
1763 -307 m 1,0,-1
 1515 -307 l 1,1,-1
 1515 0 l 1,2,-1
 151 0 l 1,3,-1
 151 1039 l 1,4,-1
 399 1039 l 1,5,-1
 399 182 l 1,6,-1
 740 182 l 1,7,-1
 740 1039 l 1,8,-1
 988 1039 l 1,9,-1
 988 182 l 1,10,-1
 1330 182 l 1,11,-1
 1330 1039 l 1,12,-1
 1578 1039 l 1,13,-1
 1578 182 l 1,14,-1
 1763 182 l 1,15,-1
 1763 -307 l 1,0,-1
EndSplineSet
Substitution2: "'ss02' Style Set 2 lookup 18 subtable" uni0449.1
Substitution2: "'ss03' Style Set 3 lookup 17 subtable" uni0449.loclSRB
Substitution2: "'locl' Localized Forms in Cyrillic lookup 10 subtable" uni0449.1
Substitution2: "'locl' Localized Forms in Cyrillic lookup 9 subtable" uni0449.loclSRB
Substitution2: "'locl' Localized Forms in Cyrillic lookup 8 subtable" uni0449.loclSRB
EndChar

StartChar: uni044A
Encoding: 1098 1098 481
Width: 1242
GlyphClass: 2
Flags: W
LayerCount: 2
Fore
SplineSet
720 0 m 2,0,-1
 317 0 l 1,1,-1
 317 857 l 1,2,-1
 -4 857 l 1,3,-1
 -4 1039 l 1,4,-1
 565 1039 l 1,5,-1
 565 734 l 1,6,-1
 715 734 l 2,7,8
 950 734 950 734 1064 651 c 128,-1,9
 1178 568 1178 568 1178 377 c 0,10,11
 1178 180 1178 180 1061.5 90 c 128,-1,12
 945 0 945 0 720 0 c 2,0,-1
718 211 m 2,13,14
 808 211 808 211 859 247.5 c 128,-1,15
 910 284 910 284 910 377 c 0,16,17
 910 457 910 457 858 490 c 128,-1,18
 806 523 806 523 718 523 c 2,19,-1
 565 523 l 1,20,-1
 565 211 l 1,21,-1
 718 211 l 2,13,14
EndSplineSet
Substitution2: "'ss02' Style Set 2 lookup 18 subtable" uni044A.1
Substitution2: "'locl' Localized Forms in Cyrillic lookup 10 subtable" uni044A.1
EndChar

